<?xml version="1.0" standalone="no"?>
<!DOCTYPE svg PUBLIC "-//W3C//DTD SVG 1.1//EN" "http://www.w3.org/Graphics/SVG/1.1/DTD/svg11.dtd" >
<svg>
<metadata>
Created by FontForge 20120731 at Mon Jul 15 16:17:13 2019
 By www
Copyright 2006, 2009 International Typeface Corporation. All Rights Reserved.
</metadata>
<defs>
<font id="AlgerianW04-Regular" horiz-adv-x="500" >
  <font-face 
    font-family="AlgerianW04-Regular"
    font-weight="400"
    font-stretch="normal"
    units-per-em="1000"
    panose-1="2 4 5 3 6 9 10 6 4 4"
    ascent="800"
    descent="-200"
    x-height="667"
    cap-height="667"
    bbox="-253 -215 1695 849"
    underline-thickness="50"
    underline-position="-75"
    unicode-range="U+0020-FB04"
  />
<missing-glyph horiz-adv-x="485" 
d="M210 174h53v-63h-53v63zM211 238q0 25 2.5 43t9 32.5t17.5 27.5t28 28q30 29 38 46t8 34q0 34 -21.5 57t-50.5 23t-50.5 -20.5t-26.5 -69.5l-48 8q7 69 42 99.5t86 30.5q52 0 85 -33.5t33 -90.5q0 -31 -12 -55.5t-48 -57.5q-16 -14 -25.5 -24t-14 -19.5t-5.5 -20.5
t-1 -26v-28h-46v16zM438 47v585h-391v-585h391zM0 680h485v-680h-485v680z" />
    <glyph glyph-name="IJ" unicode="IJ" horiz-adv-x="821" 
d="M100 60v547l-73 60h249l-73 -60v-547l73 -60h-249zM432 277q-5 -26 -7 -53t-2 -50q0 -69 28 -108.5t77 -39.5q45 0 69 37t24 106v438l-73 60h249l-73 -60v-400q0 -35 5 -48.5t21 -21.5q-3 -35 -20.5 -63.5t-46 -48.5t-67.5 -31t-85 -11q-58 0 -100 17t-72 53q-7 9 -12 16
t-9.5 15.5t-9 19t-10.5 27.5q-5 16 -13 21t-29 9z" />
    <glyph glyph-name="ij" unicode="ij" horiz-adv-x="821" 
d="M100 60v547l-73 60h249l-73 -60v-547l73 -60h-249zM432 277q-5 -26 -7 -53t-2 -50q0 -69 28 -108.5t77 -39.5q45 0 69 37t24 106v438l-73 60h249l-73 -60v-400q0 -35 5 -48.5t21 -21.5q-3 -35 -20.5 -63.5t-46 -48.5t-67.5 -31t-85 -11q-58 0 -100 17t-72 53q-7 9 -12 16
t-9.5 15.5t-9 19t-10.5 27.5q-5 16 -13 21t-29 9z" />
    <glyph glyph-name="napostrophe" unicode="&#x22;n" horiz-adv-x="610" 
d="M13 0q25 9 42 21.5t27 32t14 48.5t4 71v434l-73 60h269l-73 -60l248 -480v367q0 42 -4 71t-14 48.5t-27 32t-42 21.5h216q-26 -9 -42.5 -21.5t-26.5 -32t-14 -48.5t-4 -71v-494h-84l-287 556v-383q0 -42 4 -71t14 -48.5t26.5 -32t42.5 -21.5h-216zM-61 520q29 26 29 63
q0 34 -33 60l69 41q14 -14 22.5 -30.5t8.5 -36.5q0 -32 -15.5 -59t-57.5 -47z" />
    <glyph glyph-name="uniFB00" unicode="ff" horiz-adv-x="1124" 
d="M100 60v277q-33 2 -59.5 -7.5t-49.5 -29.5q21 80 109 80v227l-73 60h548q-19 -23 -32 -40.5t-23.5 -35t-19 -37t-18.5 -46.5q-2 3 -3.5 7.5t-4.5 9.5q-14 31 -27.5 50.5t-32.5 30t-45.5 14.5t-66.5 4q-26 0 -48 -0.5t-51 -2.5v-241h141l67 80v-203l-67 80h-141v-277
l73 -60h-249zM662 60v277q-33 2 -59.5 -7.5t-49.5 -29.5q21 80 109 80v227l-73 60h548q-19 -23 -32 -40.5t-23.5 -35t-19 -37t-18.5 -46.5q-2 3 -3.5 7.5t-4.5 9.5q-14 31 -27.5 50.5t-32.5 30t-45.5 14.5t-66.5 4q-26 0 -48 -0.5t-51 -2.5v-241h141l67 80v-203l-67 80h-141
v-277l73 -60h-249z" />
    <glyph glyph-name="uniFB01" unicode="fi" horiz-adv-x="865" 
d="M100 60v277q-33 2 -59.5 -7.5t-49.5 -29.5q21 80 109 80v227l-73 60h548q-19 -23 -32 -40.5t-23.5 -35t-19 -37t-18.5 -46.5q-2 3 -3.5 7.5t-4.5 9.5q-14 31 -27.5 50.5t-32.5 30t-45.5 14.5t-66.5 4q-26 0 -48 -0.5t-51 -2.5v-241h141l67 80v-203l-67 80h-141v-277
l73 -60h-249zM662 60v547l-73 60h249l-73 -60v-547l73 -60h-249z" />
    <glyph glyph-name="uniFB02" unicode="fl" horiz-adv-x="1120" 
d="M100 60v277q-33 2 -59.5 -7.5t-49.5 -29.5q21 80 109 80v227l-73 60h548q-19 -23 -32 -40.5t-23.5 -35t-19 -37t-18.5 -46.5q-2 3 -3.5 7.5t-4.5 9.5q-14 31 -27.5 50.5t-32.5 30t-45.5 14.5t-66.5 4q-26 0 -48 -0.5t-51 -2.5v-241h141l67 80v-203l-67 80h-141v-277
l73 -60h-249zM662 60v547l-73 60h249l-73 -60v-560q29 -2 48.5 -3t37.5 -1q83 0 125 35t56 116q11 -32 24.5 -63.5t27.5 -58t27 -46t22 -26.5h-544z" />
    <glyph glyph-name="uniFB03" unicode="ffi" horiz-adv-x="1427" 
d="M100 60v277q-33 2 -59.5 -7.5t-49.5 -29.5q21 80 109 80v227l-73 60h548q-19 -23 -32 -40.5t-23.5 -35t-19 -37t-18.5 -46.5q-2 3 -3.5 7.5t-4.5 9.5q-14 31 -27.5 50.5t-32.5 30t-45.5 14.5t-66.5 4q-26 0 -48 -0.5t-51 -2.5v-241h141l67 80v-203l-67 80h-141v-277
l73 -60h-249zM662 60v277q-33 2 -59.5 -7.5t-49.5 -29.5q21 80 109 80v227l-73 60h548q-19 -23 -32 -40.5t-23.5 -35t-19 -37t-18.5 -46.5q-2 3 -3.5 7.5t-4.5 9.5q-14 31 -27.5 50.5t-32.5 30t-45.5 14.5t-66.5 4q-26 0 -48 -0.5t-51 -2.5v-241h141l67 80v-203l-67 80h-141
v-277l73 -60h-249zM1224 60v547l-73 60h249l-73 -60v-547l73 -60h-249z" />
    <glyph glyph-name="uniFB04" unicode="ffl" horiz-adv-x="1682" 
d="M100 60v277q-33 2 -59.5 -7.5t-49.5 -29.5q21 80 109 80v227l-73 60h548q-19 -23 -32 -40.5t-23.5 -35t-19 -37t-18.5 -46.5q-2 3 -3.5 7.5t-4.5 9.5q-14 31 -27.5 50.5t-32.5 30t-45.5 14.5t-66.5 4q-26 0 -48 -0.5t-51 -2.5v-241h141l67 80v-203l-67 80h-141v-277
l73 -60h-249zM662 60v277q-33 2 -59.5 -7.5t-49.5 -29.5q21 80 109 80v227l-73 60h548q-19 -23 -32 -40.5t-23.5 -35t-19 -37t-18.5 -46.5q-2 3 -3.5 7.5t-4.5 9.5q-14 31 -27.5 50.5t-32.5 30t-45.5 14.5t-66.5 4q-26 0 -48 -0.5t-51 -2.5v-241h141l67 80v-203l-67 80h-141
v-277l73 -60h-249zM1224 60v547l-73 60h249l-73 -60v-560q29 -2 48.5 -3t37.5 -1q83 0 125 35t56 116q11 -32 24.5 -63.5t27.5 -58t27 -46t22 -26.5h-544z" />
    <glyph glyph-name=".notdef" horiz-adv-x="485" 
d="M210 174h53v-63h-53v63zM211 238q0 25 2.5 43t9 32.5t17.5 27.5t28 28q30 29 38 46t8 34q0 34 -21.5 57t-50.5 23t-50.5 -20.5t-26.5 -69.5l-48 8q7 69 42 99.5t86 30.5q52 0 85 -33.5t33 -90.5q0 -31 -12 -55.5t-48 -57.5q-16 -14 -25.5 -24t-14 -19.5t-5.5 -20.5
t-1 -26v-28h-46v16zM438 47v585h-391v-585h391zM0 680h485v-680h-485v680z" />
    <glyph glyph-name=".null" horiz-adv-x="0" 
 />
    <glyph glyph-name="nonmarkingreturn" horiz-adv-x="333" 
 />
    <glyph glyph-name="space" unicode=" " horiz-adv-x="250" 
 />
    <glyph glyph-name="exclam" unicode="!" horiz-adv-x="288" 
d="M135 176q-2 56 -8.5 102t-18.5 86t-30.5 77t-44.5 76q24 11 42 23.5t31 28.5t22 37t16 48q7 -27 16 -48t21.5 -37t30.5 -28.5t42 -23.5q-26 -38 -44.5 -75t-31 -77.5t-19 -86.5t-7.5 -102h-17zM145 128q27 0 46.5 -20t19.5 -48t-19.5 -47.5t-48.5 -19.5q-28 0 -47.5 19.5
t-19.5 47.5q0 29 20 48.5t49 19.5z" />
    <glyph glyph-name="quotedbl" unicode="&#x22;" horiz-adv-x="291" 
d="M33 667h91l-22 -209h-47zM166 667h92l-22 -209h-47z" />
    <glyph glyph-name="numbersign" unicode="#" horiz-adv-x="458" 
d="M261 253l20 150h-83l-19 -150h82zM85 0l26 192h-81v61h90l21 150h-86v59h94l26 188h58l-26 -188h84l25 188h59l-26 -188h79v-59h-88l-20 -150h85v-61h-94l-26 -192h-60l26 192h-82l-25 -192h-59z" />
    <glyph glyph-name="dollar" unicode="$" horiz-adv-x="593" 
d="M293 -12q-14 2 -22.5 3t-20.5 3.5t-31 7.5t-53 14q-19 5 -36 7.5t-29 2.5q-16 0 -32.5 -5t-48.5 -21q22 37 38 65t28 52t20.5 46t16.5 47q7 -44 20 -75t33.5 -52.5t49 -34.5t67.5 -20v266q-25 6 -43 10t-31.5 7.5t-23.5 7t-19 7.5q-48 21 -74 62.5t-26 98.5
q0 87 57 135.5t160 50.5v70h42v-73l18 -3q1 0 3.5 -0.5t11 -2.5t26.5 -6.5t51 -12.5q11 -2 20 -3.5t17 -1.5q31 0 69 23q-13 -20 -27 -45t-27 -51t-23 -50t-15 -42q-21 123 -124 150v-229l53 -15q22 -6 38 -11t28.5 -10.5t22 -11t20.5 -12.5q36 -25 56 -65t20 -86
q0 -60 -31.5 -108t-85.5 -71q-26 -11 -53.5 -17.5t-50.5 -6.5l-17 1v-96h-42v101zM335 23q29 0 49.5 3.5t38.5 12.5q30 16 47 42t17 58q0 43 -27.5 78.5t-72.5 50.5q-9 4 -20.5 7t-31.5 9v-261zM293 631q-25 0 -55 -12q-71 -29 -71 -95q0 -79 91 -108l35 -10v225z" />
    <glyph glyph-name="percent" unicode="%" horiz-adv-x="780" 
d="M183 671q38 0 69 -13t53 -37t34 -57.5t12 -74.5q0 -75 -43.5 -120t-116.5 -45q-38 0 -69 12.5t-53 35.5t-34 55.5t-12 72.5q0 38 11.5 69.5t32.5 54t50.5 35t65.5 12.5zM184 634q-45 0 -65.5 -31.5t-20.5 -103.5q0 -31 5.5 -58.5t15.5 -42.5q10 -17 30 -27t43 -10
q84 0 84 136q0 75 -20.5 106t-71.5 31zM568 661h50l-405 -661h-50zM590 337q38 0 69 -13t53 -37t34 -57.5t12 -74.5q0 -75 -43.5 -120t-116.5 -45q-38 0 -69 12.5t-53 35.5t-34 55.5t-12 72.5q0 38 11.5 69.5t32.5 54t50.5 35t65.5 12.5zM591 300q-45 0 -65.5 -31.5
t-20.5 -103.5q0 -31 5.5 -58.5t15.5 -42.5q10 -17 30 -27t43 -10q84 0 84 136q0 75 -20.5 106t-71.5 31z" />
    <glyph glyph-name="ampersand" unicode="&#x26;" horiz-adv-x="709" 
d="M258 424q-7 26 -10 47.5t-3 44.5q0 72 35.5 115t93.5 43q26 0 49 -9.5t40 -25.5t27 -38t10 -47q0 -101 -142 -144q28 -62 44.5 -98t28 -58.5t21 -37.5t23.5 -35q10 21 13.5 44.5t3.5 64.5q0 20 -1 33.5t-3 27.5q76 -58 136 -79q-25 -25 -53.5 -62t-58.5 -88
q32 -42 60.5 -61t58.5 -19q13 0 23 3.5t24 12.5q7 5 14 5t12 -4.5t5 -10.5q0 -10 -10 -20t-25 -18.5t-33.5 -14t-35.5 -5.5q-38 0 -76 15t-67 41q-41 -34 -80 -48.5t-91 -14.5q-55 0 -101 16t-79.5 45t-52 69t-18.5 88q0 57 26.5 101.5t75.5 72.5q26 14 52.5 25.5t63.5 23.5
zM273 378q-60 -24 -93 -73.5t-33 -115.5q0 -35 11.5 -64.5t32 -51.5t48 -34.5t59.5 -12.5q69 0 125 65q-15 20 -34.5 52t-39.5 71t-40 81.5t-36 82.5zM344 450q52 20 74 43.5t22 60.5q0 34 -19 55.5t-49 21.5q-26 0 -42 -18t-16 -47q0 -26 7 -53t23 -63z" />
    <glyph glyph-name="quotesingle" unicode="'" horiz-adv-x="158" 
d="M33 667h91l-22 -209h-47z" />
    <glyph glyph-name="parenleft" unicode="(" horiz-adv-x="348" 
d="M328 -67q-34 4 -60.5 9.5t-48 14t-40 20.5t-36.5 29q-27 25 -46.5 56.5t-32 71.5t-18.5 89t-6 110q0 122 24.5 200t78.5 128q18 16 36.5 28t40 21t48 14.5t60.5 8.5v-46q-87 -9 -130 -64q-14 -17 -23.5 -41t-15 -58.5t-8 -81.5t-2.5 -109q0 -63 2.5 -109.5t8 -81t15 -58
t23.5 -40.5q43 -55 130 -64v-47z" />
    <glyph glyph-name="parenright" unicode=")" horiz-adv-x="348" 
d="M20 -20q87 9 130 64q13 17 22.5 41t15.5 58t8.5 80.5t2.5 109.5t-2.5 109.5t-8.5 81t-15.5 58.5t-22.5 41q-43 55 -130 64v46q33 -3 59.5 -8.5t48.5 -14t40.5 -21t36.5 -28.5q55 -50 79 -127.5t24 -200.5q0 -122 -24 -199.5t-79 -127.5q-18 -17 -36.5 -29t-40 -20.5
t-48 -14t-60.5 -9.5v47z" />
    <glyph glyph-name="asterisk" unicode="*" horiz-adv-x="369" 
d="M51 431q27 6 55 28.5t54 58.5q-50 15 -88 15q-14 0 -25.5 -1.5t-26.5 -4.5l32 98q29 -49 116 -77q1 38 -8.5 75t-26.5 60h103q-37 -42 -37 -134q36 11 68 31.5t50 44.5l32 -98q-14 5 -25 7t-28 2q-39 0 -86 -16q47 -66 108 -89l-83 -60v10q0 53 -49 120q-23 -29 -37 -65
t-14 -65z" />
    <glyph glyph-name="plus" unicode="+" horiz-adv-x="467" 
d="M201 295h-179v65h179v185h65v-185h179v-65h-179v-173h-65v173z" />
    <glyph glyph-name="comma" unicode="," horiz-adv-x="228" 
d="M17 -128q14 12 21 18.5t12 12.5q11 14 18.5 37t7.5 44q0 46 -28 77l10 4q28 10 50.5 21t50.5 29q9 -20 12.5 -36t3.5 -35q0 -63 -39.5 -109.5t-114.5 -69.5z" />
    <glyph glyph-name="hyphen" unicode="-" horiz-adv-x="322" 
d="M20 364h259l23 -61h-259z" />
    <glyph glyph-name="period" unicode="." horiz-adv-x="228" 
d="M116 128q27 0 46.5 -20t19.5 -48t-19.5 -47.5t-48.5 -19.5q-28 0 -47.5 19.5t-19.5 47.5q0 29 20 48.5t49 19.5z" />
    <glyph glyph-name="slash" unicode="/" horiz-adv-x="566" 
d="M484 733h82l-484 -800h-82z" />
    <glyph glyph-name="zero" unicode="0" horiz-adv-x="605" 
d="M297 674q57 0 106 -24t84 -69q78 -99 78 -270q0 -75 -18 -135.5t-51.5 -103t-81 -66t-105.5 -23.5q-61 0 -110.5 25t-85 71.5t-54.5 111t-19 144.5q0 76 18.5 138.5t52 107t81 69t105.5 24.5zM299 634q-45 0 -75.5 -20t-46.5 -56q-16 -39 -25 -98t-9 -128t9 -127t26 -96
t54 -62t79 -24q151 0 151 303q0 81 -7 134t-23 89q-17 40 -52.5 62.5t-80.5 22.5z" />
    <glyph glyph-name="one" unicode="1" horiz-adv-x="320" 
d="M130 60v500q-15 -11 -39 -18.5t-46 -7.5q-24 0 -41 12.5t-17 29.5q0 11 7 19t18 8q9 0 15 -6t6 -15q0 -5 -1 -7v-4q0 -8 15 -8q33 0 66 26t50 68h64v-597l73 -60h-243z" />
    <glyph glyph-name="two" unicode="2" horiz-adv-x="530" 
d="M20 0q20 88 69.5 151.5t137.5 115.5q23 15 37.5 24.5t24 16.5t17 13t16.5 14q70 64 70 158q0 66 -37 103.5t-101 37.5q-57 0 -92.5 -32t-35.5 -83q0 -39 22.5 -65t57.5 -26q20 0 33.5 6.5t30.5 25.5q-7 -45 -35.5 -70t-70.5 -25q-28 0 -52 10t-42 28t-28 42t-10 51
q0 39 16.5 71.5t45.5 56t69 37t88 13.5q51 0 95 -15.5t76.5 -42.5t51 -64t18.5 -79q0 -92 -96 -161q-13 -9 -22 -14.5t-23 -14t-38 -22t-67 -37.5q-20 -11 -41 -27.5t-40 -35.5t-35 -39t-25 -39h211q34 0 58 0.5t41 2.5t29 5t21 8q29 17 38 53v-152h-483z" />
    <glyph glyph-name="three" unicode="3" horiz-adv-x="539" 
d="M214 399h5q12 -1 20.5 -1h11.5q27 0 49.5 9t39 24.5t26 36.5t9.5 45q0 25 -10 47.5t-27.5 38.5t-41.5 25.5t-52 9.5q-54 0 -85.5 -27t-31.5 -72q0 -26 14 -43.5t36 -17.5q15 0 29 8q-8 -22 -26.5 -34t-43.5 -12q-20 0 -37 7.5t-30 21t-20.5 30.5t-7.5 37q0 30 16.5 56
t45.5 45t68.5 30t85.5 11q48 0 87.5 -11.5t68 -31.5t44 -49t15.5 -63q0 -57 -39 -96t-105 -48q87 -20 132.5 -71t45.5 -126q0 -93 -65 -144t-183 -51q-75 0 -128 24t-80 69q-23 38 -33 91q38 12 63 24.5t52 33.5q-5 -17 -6.5 -32t-1.5 -31q0 -62 26 -94q17 -21 45 -33
t62 -12q66 0 103 40t37 112q0 38 -11 70.5t-30 56t-45 37t-56 13.5q-10 0 -24 -2t-37 -7z" />
    <glyph glyph-name="four" unicode="4" horiz-adv-x="522" 
d="M293 60v114h-306v17q36 39 69 96.5t59.5 122t42.5 129t17 117.5h129q-9 -47 -35.5 -109t-62 -125t-76.5 -119.5t-78 -93.5h241v228q35 18 56 35.5t41 45.5v-309h35q23 0 36 -1.5t24 -5.5q17 -7 27 -21.5t10 -30.5q0 -15 -10.5 -25.5t-25.5 -10.5q-14 0 -23 7.5t-9 18.5
q0 5 1 8.5t6 8.5l1 4q0 8 -6.5 10.5t-29.5 2.5h-36v-114l73 -60h-244z" />
    <glyph glyph-name="five" unicode="5" horiz-adv-x="544" 
d="M72 340v317h271q29 0 47 0.5t28.5 2.5t16 5t9.5 9q2 4 4.5 10t2.5 10q0 6 -4 6q-2 0 -6 -4q-6 -6 -14 -6q-10 0 -17 7t-7 17t7.5 17t17.5 7q20 0 36 -20.5t16 -46.5q0 -28 -17 -50.5t-45 -32.5q-11 -4 -22 -7t-24.5 -4.5t-31.5 -2t-43 -0.5h-179v-174q36 29 72.5 41.5
t82.5 12.5t89.5 -15t78.5 -43q37 -31 56.5 -76.5t19.5 -102.5q0 -54 -19.5 -99t-56.5 -77q-32 -27 -82 -42.5t-108 -15.5q-72 0 -119.5 18.5t-82.5 58.5q-33 39 -42 87q10 4 26.5 12.5t34 19t34 21.5t26.5 19q-3 -16 -4 -29t-1 -27q0 -38 9 -62.5t29 -42.5q41 -35 96 -35
q72 0 111 54t39 151q0 88 -39.5 134.5t-111.5 46.5q-92 0 -151 -89z" />
    <glyph glyph-name="six" unicode="6" horiz-adv-x="563" 
d="M508 553q-8 -3 -14.5 -6.5t-13.5 -6.5q-26 -14 -43 -24t-24 -15q-2 23 -2.5 30.5t-2.5 18.5q-10 43 -37.5 66.5t-69.5 23.5q-19 0 -38 -6.5t-35.5 -18.5t-29.5 -28.5t-21 -36.5q-19 -45 -27.5 -103t-8.5 -143q0 -71 6.5 -116.5t22.5 -80.5q17 -38 49.5 -61t69.5 -23
q31 0 56.5 16t44.5 44t29.5 66.5t10.5 84.5q0 81 -33 128.5t-90 47.5q-45 0 -73.5 -28t-36.5 -82q-5 -27 -20 -27q-9 0 -15.5 9t-6.5 21q0 14 4.5 32.5t12.5 35.5q20 40 59 62.5t90 22.5q45 0 82.5 -16.5t64.5 -47t41.5 -73t14.5 -93.5q0 -54 -16 -99t-45.5 -77t-71 -49.5
t-91.5 -17.5q-63 0 -114 27t-83 78q-30 49 -46.5 111t-16.5 128q0 76 20.5 140.5t57 112t86.5 74t109 26.5q69 0 120 -32t79 -92z" />
    <glyph glyph-name="seven" unicode="7" horiz-adv-x="513" 
d="M161 0q3 51 13 97t28 90.5t45.5 90t65.5 96.5q30 40 51.5 69.5t35.5 52.5t22 41.5t12 36.5h-344v-18q0 -57 -12.5 -83t-40.5 -26q-15 0 -26 8t-11 19q0 10 7 17.5t16 7.5q5 0 8.5 -1.5t8.5 -5.5q5 -5 8 -5q10 0 13 17q0 2 0.5 3.5t0.5 6.5t0.5 14.5t0.5 27.5v101h430
q-4 -30 -11.5 -60t-21.5 -65t-35 -77.5t-52 -98.5q-38 -72 -56 -149t-18 -168v-18t1 -21h-139z" />
    <glyph glyph-name="eight" unicode="8" horiz-adv-x="582" 
d="M382 397q29 -14 46 -22t27.5 -14.5t18 -13.5t18.5 -19q31 -32 47.5 -70.5t16.5 -77.5q0 -46 -22 -86.5t-62 -67.5q-30 -20 -72.5 -31.5t-93.5 -11.5q-62 0 -113 15t-88 42t-57.5 64.5t-20.5 81.5q0 45 21.5 82.5t63.5 64.5q20 12 38.5 21.5t47.5 23.5q-69 29 -98.5 62
t-29.5 80q0 38 18.5 69.5t58.5 60.5q7 5 14 9.5t16 9.5t21.5 12t30.5 17q52 27 83.5 48t31.5 29q0 3 -1.5 4.5t-10.5 6.5q-13 7 -13 22q0 13 8.5 22t20.5 9q14 0 25.5 -14.5t11.5 -33.5q0 -17 -11 -32.5t-37 -33.5q-9 -6 -15 -10.5t-16.5 -11t-28 -17.5t-49.5 -30
q-8 -5 -22 -15.5t-22 -18.5q-30 -29 -30 -67q0 -26 16 -46.5t54 -40.5q28 -14 53.5 -24.5t51.5 -17.5q60 17 90.5 48t30.5 71q0 36 -26.5 60.5t-65.5 24.5q-25 0 -44 -11t-28 -31q-5 -9 -7.5 -12t-7.5 -3q-16 0 -16 24q0 32 28 52.5t71 20.5q29 0 54.5 -9.5t44.5 -26.5
t30 -40t11 -49q0 -22 -6 -40t-20 -35t-36.5 -34t-55.5 -36zM235 356q-66 -37 -93 -74t-27 -92q0 -38 14.5 -71t40.5 -55q49 -41 151 -41q42 0 66.5 7.5t43.5 25.5q42 39 42 97q0 102 -133 163q-8 3 -13.5 5.5t-15.5 6.5t-27.5 10.5t-48.5 17.5z" />
    <glyph glyph-name="nine" unicode="9" horiz-adv-x="544" 
d="M383 401q16 0 16 -28q0 -32 -13.5 -59t-37.5 -47.5t-56.5 -32t-69.5 -11.5q-44 0 -81 15.5t-64 43.5t-42 66.5t-15 83.5q0 51 17.5 95.5t48.5 77t73 51t91 18.5q55 0 102 -24t80.5 -67t52.5 -102.5t19 -130.5q0 -121 -47 -221.5t-137 -167.5q-51 -38 -112 -59.5
t-121 -21.5q-31 0 -31 17q0 13 23 16q75 8 135 42.5t105 91.5q20 26 36 61t27.5 76.5t17.5 87.5t6 93q0 55 -5.5 94.5t-16.5 71.5q-17 46 -55.5 74.5t-83.5 28.5q-60 0 -94.5 -48.5t-34.5 -133.5q0 -81 37 -127t100 -46q23 0 43.5 7t34.5 21q8 7 13.5 13.5t10 15.5t8 21.5
t7.5 31.5q1 12 13 12z" />
    <glyph glyph-name="colon" unicode=":" horiz-adv-x="228" 
d="M116 128q27 0 46.5 -20t19.5 -48t-19.5 -47.5t-48.5 -19.5q-28 0 -47.5 19.5t-19.5 47.5q0 29 20 48.5t49 19.5zM116 510q27 0 46.5 -20t19.5 -48t-19.5 -47.5t-48.5 -19.5q-28 0 -47.5 19.5t-19.5 47.5q0 29 20 48.5t49 19.5z" />
    <glyph glyph-name="semicolon" unicode=";" horiz-adv-x="228" 
d="M17 -128q14 12 21 18.5t12 12.5q11 14 18.5 37t7.5 44q0 46 -28 77l10 4q28 10 50.5 21t50.5 29q9 -20 12.5 -36t3.5 -35q0 -63 -39.5 -109.5t-114.5 -69.5zM113 510q27 0 46.5 -20t19.5 -48t-19.5 -47.5t-48.5 -19.5q-28 0 -47.5 19.5t-19.5 47.5q0 29 20 48.5t49 19.5z
" />
    <glyph glyph-name="less" unicode="&#x3c;" horiz-adv-x="467" 
d="M428 20l-389 217v58l389 217v-71l-314 -174v-2l314 -174v-71z" />
    <glyph glyph-name="equal" unicode="=" horiz-adv-x="467" 
d="M34 398h399v-61h-399v61zM34 201h399v-61h-399v61z" />
    <glyph glyph-name="greater" unicode="&#x3e;" horiz-adv-x="467" 
d="M39 90l318 175v2l-318 174v71l389 -216v-61l-389 -215v70z" />
    <glyph glyph-name="question" unicode="?" horiz-adv-x="419" 
d="M177 172q1 -5 -5.5 -11t-12.5 -6q-11 0 -21.5 18.5t-10.5 38.5q0 68 80 151q26 27 43.5 47.5t27.5 37.5t14 33t4 36q0 40 -27 68t-67 28q-18 0 -34 -6.5t-28.5 -17t-20 -25t-7.5 -29.5q0 -34 43 -59l-5 -4q-8 -4 -15 -8t-13 -8q-6 -3 -14.5 -8.5t-18.5 -12.5t-19 -14.5
l-15 -12.5q-39 46 -39 98q0 31 14 58.5t39 47.5t59 31.5t75 11.5q43 0 79.5 -12.5t63.5 -35t42.5 -52.5t15.5 -65q0 -65 -50 -113q-9 -9 -15.5 -14.5t-17 -13t-28.5 -19.5t-50 -34q-18 -12 -30 -25t-23 -30q-7 -11 -11.5 -21t-4.5 -12zM191 128q27 0 46.5 -20t19.5 -48
t-19.5 -47.5t-48.5 -19.5q-28 0 -47.5 19.5t-19.5 47.5q0 29 20 48.5t49 19.5z" />
    <glyph glyph-name="at" unicode="@" horiz-adv-x="742" 
d="M514 314q-2 -24 -3 -36.5t-2 -19.5t-1 -9v-5q0 -20 9.5 -32t25.5 -12q21 0 40.5 16.5t34 44.5t23.5 64.5t9 75.5q0 51 -19.5 95t-53.5 77t-79 52t-97 19q-59 0 -111 -25.5t-91 -70t-61.5 -103.5t-22.5 -126q0 -63 20.5 -117t57 -93t86 -61.5t108.5 -22.5q27 0 58 5.5
t61 16.5q6 3 12.5 6t14.5 7.5t20 12t29 18.5t26 11q11 0 11 -11q0 -14 -29 -35q-42 -30 -98 -47.5t-111 -17.5q-72 0 -134 26t-108 71t-72.5 106.5t-26.5 132.5q0 73 28.5 137t77.5 111.5t115 75t141 27.5q65 0 121 -21.5t97.5 -58.5t65 -88t23.5 -109q0 -48 -15 -92
t-40.5 -77.5t-58.5 -53.5t-70 -20q-69 0 -74 71q-24 -40 -50.5 -57.5t-62.5 -17.5q-60 0 -95 43.5t-35 118.5q0 48 15.5 89.5t41.5 73t61.5 49.5t75.5 18q10 0 17 -0.5t14.5 -2t16 -5t22.5 -8.5q21 -8 35 -8q10 0 16.5 2.5t18.5 11.5zM450 405l1 8q1 10 -2 29.5t-8 32.5
q-6 16 -20 26.5t-29 10.5q-22 0 -40.5 -15.5t-31.5 -43t-20.5 -66t-7.5 -84.5q0 -54 15.5 -84.5t43.5 -30.5q27 0 50 27q18 21 26.5 45t13.5 67z" />
    <glyph glyph-name="A" unicode="A" horiz-adv-x="690" 
d="M-27 0q34 15 63 40.5t54 63.5t47 89t42 118q-20 14 -36.5 20t-43.5 9q6 9 13.5 21.5t14 24.5t11 22t5.5 14q8 -11 13.5 -17t18.5 -17l26 -23l90 242l-55 60h239l-55 -60l88 -235q25 16 42.5 31t32.5 33q3 -11 8 -25t11 -28t12 -26.5t11 -19.5q-13 1 -19 1h-11
q-20 0 -35 -3.5t-32 -12.5l97 -262l78 -60h-262l71 60l-72 189l-35 -35q-9 -10 -19.5 -22t-19.5 -24t-16.5 -22.5t-11.5 -17.5q-34 55 -63 93.5t-55 64.5l-28 -84t-14.5 -46.5t-5 -25t-0.5 -20.5q0 -14 2 -25.5t8 -22.5t16 -23.5t26 -28.5q2 -3 9 -10h-260zM375 254
q19 24 46 48l-98 258l-85 -225q14 -15 25.5 -28.5t22 -27t22 -29t25.5 -34.5l5 -8q1 2 6 7z" />
    <glyph glyph-name="B" unicode="B" horiz-adv-x="639" 
d="M100 60v268q-19 -1 -30 -1.5t-19.5 -1t-16.5 -1t-20 -1.5l22 50q13 -1 22.5 -1.5t17.5 -0.5h15.5t8.5 -1v190l-59 40q60 42 129.5 63t144.5 21q56 0 103 -13.5t81 -37.5t53 -57.5t19 -73.5q0 -57 -38.5 -96t-110.5 -53q40 -6 73.5 -22.5t58 -41t38 -55.5t13.5 -66
q0 -27 -8.5 -52t-23.5 -45.5t-36.5 -35t-46.5 -21.5q-16 -4 -31 -7t-33 -4.5t-40.5 -2t-52.5 -0.5h-306zM210 370l53 -1q90 0 135 24q27 14 43.5 45t16.5 66q0 60 -39 98t-102 38q-31 0 -58.5 -8.5t-55.5 -27.5v-234h7zM203 46q49 -3 74 -3q114 0 164.5 33.5t50.5 108.5
q0 42 -16 73t-46 47q-20 11 -65.5 17t-106.5 6h-23.5t-31.5 -1v-281z" />
    <glyph glyph-name="C" unicode="C" horiz-adv-x="595" 
d="M584 667q-20 -35 -34.5 -61t-26 -49.5t-22 -47.5t-22.5 -55q-5 38 -14 65t-23 51q-20 32 -55 51.5t-71 19.5q-35 0 -68.5 -19.5t-53.5 -51.5q-48 -77 -48 -222q0 -156 51 -238.5t148 -82.5q72 0 114.5 47t51.5 138q3 22 18 22q20 0 20 -34q0 -17 -5 -43t-13 -47
q-21 -63 -73.5 -95t-130.5 -32q-63 0 -117.5 22t-90.5 64q-42 48 -64 114t-22 144t21.5 143.5t60.5 113t92.5 74t116.5 26.5q17 0 30.5 -1t28 -4t31 -8.5t39.5 -14.5q22 -8 36 -11.5t28 -3.5q18 0 31 5t36 21z" />
    <glyph glyph-name="D" unicode="D" horiz-adv-x="614" 
d="M100 60v547l-73 60h223q80 0 132.5 -13.5t90.5 -44.5q54 -42 80.5 -110t26.5 -159q0 -102 -29 -174.5t-86 -112.5q-20 -15 -41 -25t-46.5 -16.5t-56.5 -9t-70 -2.5h-224zM203 47q28 -2 39.5 -3t21.5 -1q52 0 88 18t62 56q26 39 39.5 97t13.5 128q0 139 -51.5 210.5
t-148.5 71.5q-10 0 -24 -1t-40 -3v-573z" />
    <glyph glyph-name="E" unicode="E" horiz-adv-x="603" 
d="M100 60v277q-34 1 -59.5 -8t-49.5 -29q11 42 37.5 61t71.5 19v227l-73 60h548q-19 -23 -32 -40.5t-23.5 -35t-19 -37t-18.5 -46.5q-2 3 -3.5 7.5t-4.5 9.5q-14 31 -27.5 50.5t-32.5 30t-45.5 14.5t-66.5 4q-26 0 -48 -0.5t-51 -2.5v-241h141l67 80v-203l-67 80h-141v-291
q28 -2 42 -2.5t26 -0.5q54 0 94.5 8t63.5 24q19 13 35.5 34.5t38.5 61.5q6 -27 14 -49t19.5 -42.5t27.5 -39.5t39 -40h-576z" />
    <glyph glyph-name="F" unicode="F" horiz-adv-x="562" 
d="M100 60v277q-33 2 -59.5 -7.5t-49.5 -29.5q21 80 109 80v227l-73 60h548q-19 -23 -32 -40.5t-23.5 -35t-19 -37t-18.5 -46.5q-2 3 -3.5 7.5t-4.5 9.5q-14 31 -27.5 50.5t-32.5 30t-45.5 14.5t-66.5 4q-26 0 -48 -0.5t-51 -2.5v-241h141l67 80v-203l-67 80h-141v-277
l73 -60h-249z" />
    <glyph glyph-name="G" unicode="G" horiz-adv-x="679" 
d="M413 0q-43 0 -72.5 1t-51.5 3.5t-38.5 7t-32.5 11.5q-44 19 -78 50t-58 72t-36.5 90t-12.5 105q0 70 21 133.5t59 108.5q42 48 101 75t122 27q17 0 31.5 -1t32.5 -5t43 -10.5t63 -17.5q20 -7 44 -7q31 0 67 17l-97 -192q-19 172 -166 172q-39 0 -75.5 -15.5t-62.5 -44.5
q-36 -39 -53 -96.5t-17 -139.5q0 -301 249 -301h14t16.5 0.5t23 1.5t33.5 2v257h-145q-107 0 -107 70q0 23 14.5 39t35.5 16q14 0 24.5 -9.5t10.5 -23.5q0 -16 -11 -24q-2 -2 -4.5 -2.5t-13.5 -3.5q-7 0 -7 -6q0 -8 7.5 -10.5t27.5 -2.5h344l-73 -60v-227l73 -60h-245z" />
    <glyph glyph-name="H" unicode="H" horiz-adv-x="636" 
d="M100 60v260q-37 -3 -58.5 -13t-37.5 -31q15 42 37.5 64t58.5 30v237l-73 60h250l-74 -60v-237q58 -16 142 -16q26 0 46 1.5t42 4.5v247l-74 60h250l-73 -60v-547l73 -60h-250l74 60v253q-27 -3 -50 -4.5t-50 -1.5q-79 0 -130 13v-260l74 -60h-250z" />
    <glyph glyph-name="I" unicode="I" horiz-adv-x="303" 
d="M100 60v547l-73 60h249l-73 -60v-547l73 -60h-249z" />
    <glyph glyph-name="J" unicode="J" horiz-adv-x="518" 
d="M129 277q-5 -26 -7 -53t-2 -50q0 -69 28 -108.5t77 -39.5q45 0 69 37t24 106v438l-73 60h249l-73 -60v-400q0 -35 5 -48.5t21 -21.5q-3 -35 -20.5 -63.5t-46 -48.5t-67.5 -31t-85 -11q-58 0 -100 17t-72 53q-7 9 -12 16t-9.5 15.5t-9 19t-10.5 27.5q-5 16 -13 21t-29 9z
" />
    <glyph glyph-name="K" unicode="K" horiz-adv-x="643" 
d="M100 60v547l-73 60h249l-73 -60v-322l201 240q17 20 26.5 40t9.5 34q0 23 -19.5 42.5t-48.5 25.5h274q-98 -26 -194 -152l-72 -86l190 -369l86 -60h-272l73 60l-147 287l-107 -129v-158l73 -60h-249z" />
    <glyph glyph-name="L" unicode="L" horiz-adv-x="558" 
d="M100 60v547l-73 60h249l-73 -60v-560q29 -2 48.5 -3t37.5 -1q83 0 125 35t56 116q11 -32 24.5 -63.5t27.5 -58t27 -46t22 -26.5h-544z" />
    <glyph glyph-name="M" unicode="M" horiz-adv-x="758" 
d="M13 0q23 8 38.5 20t26.5 33q12 21 17 52.5t5 87.5v414l-73 60h274l-73 -60l150 -444l161 444l-73 60h265l-73 -60v-547l73 -60h-249l73 60v475l-193 -535h-36l-184 541v-348q0 -62 6 -95t22 -56q11 -17 24.5 -26t34.5 -16h-216z" />
    <glyph glyph-name="N" unicode="N" horiz-adv-x="610" 
d="M13 0q25 9 42 21.5t27 32t14 48.5t4 71v434l-73 60h269l-73 -60l248 -480v367q0 42 -4 71t-14 48.5t-27 32t-42 21.5h216q-26 -9 -42.5 -21.5t-26.5 -32t-14 -48.5t-4 -71v-494h-84l-287 556v-383q0 -42 4 -71t14 -48.5t26.5 -32t42.5 -21.5h-216z" />
    <glyph glyph-name="O" unicode="O" horiz-adv-x="632" 
d="M315 684q138 0 210.5 -91.5t72.5 -264.5q0 -81 -19.5 -145t-56 -108.5t-89 -68t-118.5 -23.5q-67 0 -119.5 23.5t-88.5 68.5t-55 110t-19 148q0 82 19 147.5t55 110.5t88.5 69t119.5 24zM310 641q-42 0 -76.5 -23t-52.5 -62t-26.5 -91t-8.5 -130q0 -79 9 -132t29 -92
q19 -38 56.5 -61.5t79.5 -23.5t77 23.5t53 61.5q18 39 26.5 91t8.5 127q0 82 -9 135.5t-29 91.5t-58 61.5t-79 23.5z" />
    <glyph glyph-name="P" unicode="P" horiz-adv-x="572" 
d="M100 60v253q-5 2 -8 2h-8q-24 0 -46 -4.5t-48 -14.5q32 65 110 64v247l-73 60h240q78 0 128.5 -10t82.5 -31q39 -25 59.5 -62t20.5 -82q0 -43 -20 -80t-55 -57q-72 -42 -202 -42q-12 0 -32 1t-46 3v-247l73 -60h-249zM203 354q17 -2 30 -3t27 -1q72 0 119 21
q35 17 50.5 43t15.5 69q0 69 -43 105t-124 36q-15 0 -32 -1t-43 -3v-266z" />
    <glyph glyph-name="Q" unicode="Q" horiz-adv-x="632" 
d="M421 1q-26 -10 -51.5 -14t-54.5 -4q-67 0 -119.5 23.5t-88.5 68.5t-55 110t-19 148t19 148.5t55.5 110.5t89 68.5t119.5 23.5t119.5 -23.5t88.5 -68.5t55 -110.5t19 -148.5q0 -204 -112 -295q46 -43 110 -43q19 0 36.5 4t42.5 13q-8 -10 -19 -27t-22 -36t-21.5 -38
t-17.5 -33q-99 16 -174 123zM431 82q28 37 41 96t13 153q0 80 -9 133t-29 92q-20 38 -57.5 61.5t-79.5 23.5t-76.5 -23t-52.5 -62q-19 -40 -27 -91.5t-8 -129.5q0 -79 9 -132t29 -92q19 -38 57 -61.5t80 -23.5q18 0 33 4t33 14q-14 25 -36 40.5t-45 15.5l-12 -1l36 44
q23 -5 51 -21.5t47 -37.5z" />
    <glyph glyph-name="R" unicode="R" horiz-adv-x="596" 
d="M100 60v217q-34 -3 -51.5 -6t-33.5 -10q11 24 15.5 37.5t6.5 24.5q14 -1 17 -1h9q8 0 16.5 0.5t20.5 1.5v236l-73 40q60 40 136 62t152 22q53 0 98.5 -13.5t79 -36.5t52.5 -55.5t19 -69.5q0 -63 -45 -108.5t-130 -68.5q16 -46 42 -95.5t56 -95t61.5 -83t60.5 -58.5
q-43 -14 -89 -37.5t-78 -49.5q-9 58 -19 106t-23 94.5t-30 95t-40 106.5q-9 -3 -27.5 -7t-38 -7.5t-37 -6t-24.5 -2.5v-232l73 -60h-249zM203 331q121 14 184.5 59t63.5 117q0 28 -11.5 52.5t-31.5 42.5t-47.5 28.5t-58.5 10.5q-29 0 -52.5 -8.5t-46.5 -28.5v-273z" />
    <glyph glyph-name="S" unicode="S" horiz-adv-x="560" 
d="M516 661q-7 -9 -18 -28t-23.5 -44t-25 -52t-21.5 -51q-6 26 -11 42t-13 30q-19 38 -57.5 60.5t-83.5 22.5q-57 0 -92 -31.5t-35 -80.5q0 -66 65 -96q12 -6 20 -9.5t22.5 -8t40 -10.5t71.5 -17q51 -12 83.5 -28.5t55.5 -41.5q49 -53 49 -127q0 -44 -18 -82t-49.5 -66
t-75 -44t-93.5 -16q-18 0 -34.5 1.5t-37 5.5t-47.5 11.5t-64 19.5q-33 10 -56 10q-16 0 -32.5 -6.5t-45.5 -24.5q13 19 28 47t28.5 57t24.5 55.5t16 43.5q8 -36 14 -53t15 -33q25 -42 75.5 -66.5t114.5 -24.5q69 0 109.5 33t40.5 88q0 33 -18.5 63t-50.5 49q-13 7 -26 12.5
t-30 10.5t-41 10.5t-60 12.5q-52 11 -84.5 25t-53.5 36q-48 49 -48 126q0 43 15.5 78t43 60.5t66.5 39.5t86 14q35 0 67 -6t77 -20q21 -7 33.5 -9.5t20.5 -2.5q13 0 26.5 3.5t36.5 11.5z" />
    <glyph glyph-name="T" unicode="T" horiz-adv-x="605" 
d="M251 60v561q-41 3 -57 3q-35 0 -62.5 -13.5t-41.5 -37.5q-7 -12 -12 -25.5t-14 -40.5q-13 38 -32 78t-45 82h631q-26 -43 -45.5 -82.5t-31.5 -77.5q-9 27 -14 40.5t-12 25.5q-14 24 -41.5 37.5t-62.5 13.5q-17 0 -57 -3v-561l73 -60h-249z" />
    <glyph glyph-name="U" unicode="U" horiz-adv-x="630" 
d="M491 474q0 47 -5 79.5t-17.5 54t-33 35.5t-51.5 24h256q-32 -10 -52.5 -23.5t-32.5 -35.5t-17 -54.5t-5 -79.5v-217q0 -50 -1.5 -84.5t-5.5 -59t-10.5 -40.5t-16.5 -29q-49 -61 -173 -61q-66 0 -114 18t-74 52q-23 28 -32.5 76t-9.5 130v348l-73 60h250l-74 -60v-416
q0 -52 7 -82t24 -47q36 -36 110 -36q43 0 74.5 13t48.5 39q15 22 21.5 64t6.5 114v218z" />
    <glyph glyph-name="V" unicode="V" horiz-adv-x="620" 
d="M255 60l-195 547l-73 60h250l-73 -60l176 -502l138 361q23 60 36 109.5t13 74.5q0 51 -39 90q75 14 134.5 36.5t101.5 53.5q-33 -32 -59 -65.5t-50 -77t-48 -100.5t-52 -136l-149 -391l73 -60h-258z" />
    <glyph glyph-name="W" unicode="W" horiz-adv-x="846" 
d="M214 60l-154 547l-73 60h251l-73 -60l121 -434l136 494h49l135 -490l72 260q24 87 35 138.5t11 77.5q0 30 -12 50t-40 37q30 7 66 18.5t70 24.5t63 25.5t44 21.5q-37 -40 -64 -76.5t-48.5 -81t-41 -103.5t-42.5 -144l-89 -327l10 -38l73 -60h-252l74 60l-117 419
l-110 -389l10 -30l73 -60h-251z" />
    <glyph glyph-name="X" unicode="X" horiz-adv-x="602" 
d="M-13 0q24 17 40.5 30.5t31 28t29 32.5t33.5 44l133 183l-180 289l-74 60h259l-73 -60l140 -225l163 225l-74 60h200q-33 -26 -66 -61t-63 -77l-135 -186l177 -283l74 -60h-261l74 60l-137 219l-158 -219l74 -60h-207z" />
    <glyph glyph-name="Y" unicode="Y" horiz-adv-x="653" 
d="M275 60v220l-124 192q-30 46 -49 75t-36 49t-34.5 35.5t-44.5 35.5h268l-73 -63l179 -272l141 230q25 42 36 68.5t11 47.5q0 15 -10.5 29.5t-33.5 32.5q30 5 66 14.5t71.5 21.5t67 25.5t52.5 25.5l-40.5 -40.5t-32 -33.5t-27 -31t-26 -34t-29.5 -42.5t-37 -55.5
l-192 -310v-220l73 -60h-249z" />
    <glyph glyph-name="Z" unicode="Z" horiz-adv-x="591" 
d="M414 621q-12 1 -22 1.5l-20 1t-21 0.5h-26q-44 0 -74.5 -2t-52 -6.5t-37 -13t-29.5 -21.5q-16 -14 -26 -31t-19 -42q-11 24 -19.5 42t-17 35.5t-19 36.5t-25.5 45h564l-416 -621q27 -2 46.5 -2.5t47.5 -0.5q49 0 83.5 3t58.5 11t41 21t32 34q11 15 19.5 29.5t16.5 32.5
q22 -57 45.5 -102t46.5 -72h-591z" />
    <glyph glyph-name="bracketleft" unicode="[" horiz-adv-x="332" 
d="M80 720h232v-47h-125v-679h125v-47h-232v773z" />
    <glyph glyph-name="backslash" unicode="\" horiz-adv-x="566" 
d="M0 733h82l484 -800h-82z" />
    <glyph glyph-name="bracketright" unicode="]" horiz-adv-x="332" 
d="M20 -6h125v679h-125v47h232v-773h-232v47z" />
    <glyph glyph-name="asciicircum" unicode="^" horiz-adv-x="467" 
d="M30 303l173 390h61l172 -390h-71l-131 312h-2l-131 -312h-71z" />
    <glyph glyph-name="underscore" unicode="_" 
d="M0 -50h500v-50h-500v50z" />
    <glyph glyph-name="grave" unicode="`" 
d="M95 811h106l76 -102h-55z" />
    <glyph glyph-name="a" unicode="a" horiz-adv-x="690" 
d="M-27 0q34 15 63 40.5t54 63.5t47 89t42 118q-20 14 -36.5 20t-43.5 9q6 9 13.5 21.5t14 24.5t11 22t5.5 14q8 -11 13.5 -17t18.5 -17l26 -23l90 242l-55 60h239l-55 -60l88 -235q25 16 42.5 31t32.5 33q3 -11 8 -25t11 -28t12 -26.5t11 -19.5q-13 1 -19 1h-11
q-20 0 -35 -3.5t-32 -12.5l97 -262l78 -60h-262l71 60l-72 189l-35 -35q-9 -10 -19.5 -22t-19.5 -24t-16.5 -22.5t-11.5 -17.5q-34 55 -63 93.5t-55 64.5l-28 -84t-14.5 -46.5t-5 -25t-0.5 -20.5q0 -14 2 -25.5t8 -22.5t16 -23.5t26 -28.5q2 -3 9 -10h-260zM375 254
q19 24 46 48l-98 258l-85 -225q14 -15 25.5 -28.5t22 -27t22 -29t25.5 -34.5l5 -8q1 2 6 7z" />
    <glyph glyph-name="b" unicode="b" horiz-adv-x="639" 
d="M100 60v268q-19 -1 -30 -1.5t-19.5 -1t-16.5 -1t-20 -1.5l22 50q13 -1 22.5 -1.5t17.5 -0.5h15.5t8.5 -1v190l-59 40q60 42 129.5 63t144.5 21q56 0 103 -13.5t81 -37.5t53 -57.5t19 -73.5q0 -57 -38.5 -96t-110.5 -53q40 -6 73.5 -22.5t58 -41t38 -55.5t13.5 -66
q0 -27 -8.5 -52t-23.5 -45.5t-36.5 -35t-46.5 -21.5q-16 -4 -31 -7t-33 -4.5t-40.5 -2t-52.5 -0.5h-306zM210 370l53 -1q90 0 135 24q27 14 43.5 45t16.5 66q0 60 -39 98t-102 38q-31 0 -58.5 -8.5t-55.5 -27.5v-234h7zM203 46q49 -3 74 -3q114 0 164.5 33.5t50.5 108.5
q0 42 -16 73t-46 47q-20 11 -65.5 17t-106.5 6h-23.5t-31.5 -1v-281z" />
    <glyph glyph-name="c" unicode="c" horiz-adv-x="595" 
d="M584 667q-20 -35 -34.5 -61t-26 -49.5t-22 -47.5t-22.5 -55q-5 38 -14 65t-23 51q-20 32 -55 51.5t-71 19.5q-35 0 -68.5 -19.5t-53.5 -51.5q-48 -77 -48 -222q0 -156 51 -238.5t148 -82.5q72 0 114.5 47t51.5 138q3 22 18 22q20 0 20 -34q0 -17 -5 -43t-13 -47
q-21 -63 -73.5 -95t-130.5 -32q-63 0 -117.5 22t-90.5 64q-42 48 -64 114t-22 144t21.5 143.5t60.5 113t92.5 74t116.5 26.5q17 0 30.5 -1t28 -4t31 -8.5t39.5 -14.5q22 -8 36 -11.5t28 -3.5q18 0 31 5t36 21z" />
    <glyph glyph-name="d" unicode="d" horiz-adv-x="614" 
d="M100 60v547l-73 60h223q80 0 132.5 -13.5t90.5 -44.5q54 -42 80.5 -110t26.5 -159q0 -102 -29 -174.5t-86 -112.5q-20 -15 -41 -25t-46.5 -16.5t-56.5 -9t-70 -2.5h-224zM203 47q28 -2 39.5 -3t21.5 -1q52 0 88 18t62 56q26 39 39.5 97t13.5 128q0 139 -51.5 210.5
t-148.5 71.5q-10 0 -24 -1t-40 -3v-573z" />
    <glyph glyph-name="e" unicode="e" horiz-adv-x="603" 
d="M100 60v277q-34 1 -59.5 -8t-49.5 -29q11 42 37.5 61t71.5 19v227l-73 60h548q-19 -23 -32 -40.5t-23.5 -35t-19 -37t-18.5 -46.5q-2 3 -3.5 7.5t-4.5 9.5q-14 31 -27.5 50.5t-32.5 30t-45.5 14.5t-66.5 4q-26 0 -48 -0.5t-51 -2.5v-241h141l67 80v-203l-67 80h-141v-291
q28 -2 42 -2.5t26 -0.5q54 0 94.5 8t63.5 24q19 13 35.5 34.5t38.5 61.5q6 -27 14 -49t19.5 -42.5t27.5 -39.5t39 -40h-576z" />
    <glyph glyph-name="f" unicode="f" horiz-adv-x="562" 
d="M100 60v277q-33 2 -59.5 -7.5t-49.5 -29.5q21 80 109 80v227l-73 60h548q-19 -23 -32 -40.5t-23.5 -35t-19 -37t-18.5 -46.5q-2 3 -3.5 7.5t-4.5 9.5q-14 31 -27.5 50.5t-32.5 30t-45.5 14.5t-66.5 4q-26 0 -48 -0.5t-51 -2.5v-241h141l67 80v-203l-67 80h-141v-277
l73 -60h-249z" />
    <glyph glyph-name="g" unicode="g" horiz-adv-x="679" 
d="M413 0q-43 0 -72.5 1t-51.5 3.5t-38.5 7t-32.5 11.5q-44 19 -78 50t-58 72t-36.5 90t-12.5 105q0 70 21 133.5t59 108.5q42 48 101 75t122 27q17 0 31.5 -1t32.5 -5t43 -10.5t63 -17.5q20 -7 44 -7q31 0 67 17l-97 -192q-19 172 -166 172q-39 0 -75.5 -15.5t-62.5 -44.5
q-36 -39 -53 -96.5t-17 -139.5q0 -301 249 -301h14t16.5 0.5t23 1.5t33.5 2v257h-145q-107 0 -107 70q0 23 14.5 39t35.5 16q14 0 24.5 -9.5t10.5 -23.5q0 -16 -11 -24q-2 -2 -4.5 -2.5t-13.5 -3.5q-7 0 -7 -6q0 -8 7.5 -10.5t27.5 -2.5h344l-73 -60v-227l73 -60h-245z" />
    <glyph glyph-name="h" unicode="h" horiz-adv-x="636" 
d="M100 60v260q-37 -3 -58.5 -13t-37.5 -31q15 42 37.5 64t58.5 30v237l-73 60h250l-74 -60v-237q58 -16 142 -16q26 0 46 1.5t42 4.5v247l-74 60h250l-73 -60v-547l73 -60h-250l74 60v253q-27 -3 -50 -4.5t-50 -1.5q-79 0 -130 13v-260l74 -60h-250z" />
    <glyph glyph-name="i" unicode="i" horiz-adv-x="303" 
d="M100 60v547l-73 60h249l-73 -60v-547l73 -60h-249z" />
    <glyph glyph-name="j" unicode="j" horiz-adv-x="518" 
d="M129 277q-5 -26 -7 -53t-2 -50q0 -69 28 -108.5t77 -39.5q45 0 69 37t24 106v438l-73 60h249l-73 -60v-400q0 -35 5 -48.5t21 -21.5q-3 -35 -20.5 -63.5t-46 -48.5t-67.5 -31t-85 -11q-58 0 -100 17t-72 53q-7 9 -12 16t-9.5 15.5t-9 19t-10.5 27.5q-5 16 -13 21t-29 9z
" />
    <glyph glyph-name="k" unicode="k" horiz-adv-x="643" 
d="M100 60v547l-73 60h249l-73 -60v-322l201 240q17 20 26.5 40t9.5 34q0 23 -19.5 42.5t-48.5 25.5h274q-98 -26 -194 -152l-72 -86l190 -369l86 -60h-272l73 60l-147 287l-107 -129v-158l73 -60h-249z" />
    <glyph glyph-name="l" unicode="l" horiz-adv-x="558" 
d="M100 60v547l-73 60h249l-73 -60v-560q29 -2 48.5 -3t37.5 -1q83 0 125 35t56 116q11 -32 24.5 -63.5t27.5 -58t27 -46t22 -26.5h-544z" />
    <glyph glyph-name="m" unicode="m" horiz-adv-x="758" 
d="M13 0q23 8 38.5 20t26.5 33q12 21 17 52.5t5 87.5v414l-73 60h274l-73 -60l150 -444l161 444l-73 60h265l-73 -60v-547l73 -60h-249l73 60v475l-193 -535h-36l-184 541v-348q0 -62 6 -95t22 -56q11 -17 24.5 -26t34.5 -16h-216z" />
    <glyph glyph-name="n" unicode="n" horiz-adv-x="610" 
d="M13 0q25 9 42 21.5t27 32t14 48.5t4 71v434l-73 60h269l-73 -60l248 -480v367q0 42 -4 71t-14 48.5t-27 32t-42 21.5h216q-26 -9 -42.5 -21.5t-26.5 -32t-14 -48.5t-4 -71v-494h-84l-287 556v-383q0 -42 4 -71t14 -48.5t26.5 -32t42.5 -21.5h-216z" />
    <glyph glyph-name="o" unicode="o" horiz-adv-x="632" 
d="M315 684q138 0 210.5 -91.5t72.5 -264.5q0 -81 -19.5 -145t-56 -108.5t-89 -68t-118.5 -23.5q-67 0 -119.5 23.5t-88.5 68.5t-55 110t-19 148q0 82 19 147.5t55 110.5t88.5 69t119.5 24zM310 641q-42 0 -76.5 -23t-52.5 -62t-26.5 -91t-8.5 -130q0 -79 9 -132t29 -92
q19 -38 56.5 -61.5t79.5 -23.5t77 23.5t53 61.5q18 39 26.5 91t8.5 127q0 82 -9 135.5t-29 91.5t-58 61.5t-79 23.5z" />
    <glyph glyph-name="p" unicode="p" horiz-adv-x="572" 
d="M100 60v253q-5 2 -8 2h-8q-24 0 -46 -4.5t-48 -14.5q32 65 110 64v247l-73 60h240q78 0 128.5 -10t82.5 -31q39 -25 59.5 -62t20.5 -82q0 -43 -20 -80t-55 -57q-72 -42 -202 -42q-12 0 -32 1t-46 3v-247l73 -60h-249zM203 354q17 -2 30 -3t27 -1q72 0 119 21
q35 17 50.5 43t15.5 69q0 69 -43 105t-124 36q-15 0 -32 -1t-43 -3v-266z" />
    <glyph glyph-name="q" unicode="q" horiz-adv-x="632" 
d="M421 1q-26 -10 -51.5 -14t-54.5 -4q-67 0 -119.5 23.5t-88.5 68.5t-55 110t-19 148t19 148.5t55.5 110.5t89 68.5t119.5 23.5t119.5 -23.5t88.5 -68.5t55 -110.5t19 -148.5q0 -204 -112 -295q46 -43 110 -43q19 0 36.5 4t42.5 13q-8 -10 -19 -27t-22 -36t-21.5 -38
t-17.5 -33q-99 16 -174 123zM431 82q28 37 41 96t13 153q0 80 -9 133t-29 92q-20 38 -57.5 61.5t-79.5 23.5t-76.5 -23t-52.5 -62q-19 -40 -27 -91.5t-8 -129.5q0 -79 9 -132t29 -92q19 -38 57 -61.5t80 -23.5q18 0 33 4t33 14q-14 25 -36 40.5t-45 15.5l-12 -1l36 44
q23 -5 51 -21.5t47 -37.5z" />
    <glyph glyph-name="r" unicode="r" horiz-adv-x="596" 
d="M100 60v217q-34 -3 -51.5 -6t-33.5 -10q11 24 15.5 37.5t6.5 24.5q14 -1 17 -1h9q8 0 16.5 0.5t20.5 1.5v236l-73 40q60 40 136 62t152 22q53 0 98.5 -13.5t79 -36.5t52.5 -55.5t19 -69.5q0 -63 -45 -108.5t-130 -68.5q16 -46 42 -95.5t56 -95t61.5 -83t60.5 -58.5
q-43 -14 -89 -37.5t-78 -49.5q-9 58 -19 106t-23 94.5t-30 95t-40 106.5q-9 -3 -27.5 -7t-38 -7.5t-37 -6t-24.5 -2.5v-232l73 -60h-249zM203 331q121 14 184.5 59t63.5 117q0 28 -11.5 52.5t-31.5 42.5t-47.5 28.5t-58.5 10.5q-29 0 -52.5 -8.5t-46.5 -28.5v-273z" />
    <glyph glyph-name="s" unicode="s" horiz-adv-x="560" 
d="M516 661q-7 -9 -18 -28t-23.5 -44t-25 -52t-21.5 -51q-6 26 -11 42t-13 30q-19 38 -57.5 60.5t-83.5 22.5q-57 0 -92 -31.5t-35 -80.5q0 -66 65 -96q12 -6 20 -9.5t22.5 -8t40 -10.5t71.5 -17q51 -12 83.5 -28.5t55.5 -41.5q49 -53 49 -127q0 -44 -18 -82t-49.5 -66
t-75 -44t-93.5 -16q-18 0 -34.5 1.5t-37 5.5t-47.5 11.5t-64 19.5q-33 10 -56 10q-16 0 -32.5 -6.5t-45.5 -24.5q13 19 28 47t28.5 57t24.5 55.5t16 43.5q8 -36 14 -53t15 -33q25 -42 75.5 -66.5t114.5 -24.5q69 0 109.5 33t40.5 88q0 33 -18.5 63t-50.5 49q-13 7 -26 12.5
t-30 10.5t-41 10.5t-60 12.5q-52 11 -84.5 25t-53.5 36q-48 49 -48 126q0 43 15.5 78t43 60.5t66.5 39.5t86 14q35 0 67 -6t77 -20q21 -7 33.5 -9.5t20.5 -2.5q13 0 26.5 3.5t36.5 11.5z" />
    <glyph glyph-name="t" unicode="t" horiz-adv-x="605" 
d="M251 60v561q-41 3 -57 3q-35 0 -62.5 -13.5t-41.5 -37.5q-7 -12 -12 -25.5t-14 -40.5q-13 38 -32 78t-45 82h631q-26 -43 -45.5 -82.5t-31.5 -77.5q-9 27 -14 40.5t-12 25.5q-14 24 -41.5 37.5t-62.5 13.5q-17 0 -57 -3v-561l73 -60h-249z" />
    <glyph glyph-name="u" unicode="u" horiz-adv-x="630" 
d="M491 474q0 47 -5 79.5t-17.5 54t-33 35.5t-51.5 24h256q-32 -10 -52.5 -23.5t-32.5 -35.5t-17 -54.5t-5 -79.5v-217q0 -50 -1.5 -84.5t-5.5 -59t-10.5 -40.5t-16.5 -29q-49 -61 -173 -61q-66 0 -114 18t-74 52q-23 28 -32.5 76t-9.5 130v348l-73 60h250l-74 -60v-416
q0 -52 7 -82t24 -47q36 -36 110 -36q43 0 74.5 13t48.5 39q15 22 21.5 64t6.5 114v218z" />
    <glyph glyph-name="v" unicode="v" horiz-adv-x="620" 
d="M255 60l-195 547l-73 60h250l-73 -60l176 -502l138 361q23 60 36 109.5t13 74.5q0 51 -39 90q75 14 134.5 36.5t101.5 53.5q-33 -32 -59 -65.5t-50 -77t-48 -100.5t-52 -136l-149 -391l73 -60h-258z" />
    <glyph glyph-name="w" unicode="w" horiz-adv-x="846" 
d="M214 60l-154 547l-73 60h251l-73 -60l121 -434l136 494h49l135 -490l72 260q24 87 35 138.5t11 77.5q0 30 -12 50t-40 37q30 7 66 18.5t70 24.5t63 25.5t44 21.5q-37 -40 -64 -76.5t-48.5 -81t-41 -103.5t-42.5 -144l-89 -327l10 -38l73 -60h-252l74 60l-117 419
l-110 -389l10 -30l73 -60h-251z" />
    <glyph glyph-name="x" unicode="x" horiz-adv-x="602" 
d="M-13 0q24 17 40.5 30.5t31 28t29 32.5t33.5 44l133 183l-180 289l-74 60h259l-73 -60l140 -225l163 225l-74 60h200q-33 -26 -66 -61t-63 -77l-135 -186l177 -283l74 -60h-261l74 60l-137 219l-158 -219l74 -60h-207z" />
    <glyph glyph-name="y" unicode="y" horiz-adv-x="653" 
d="M275 60v220l-124 192q-30 46 -49 75t-36 49t-34.5 35.5t-44.5 35.5h268l-73 -63l179 -272l141 230q25 42 36 68.5t11 47.5q0 15 -10.5 29.5t-33.5 32.5q30 5 66 14.5t71.5 21.5t67 25.5t52.5 25.5l-40.5 -40.5t-32 -33.5t-27 -31t-26 -34t-29.5 -42.5t-37 -55.5
l-192 -310v-220l73 -60h-249z" />
    <glyph glyph-name="z" unicode="z" horiz-adv-x="591" 
d="M414 621q-12 1 -22 1.5l-20 1t-21 0.5h-26q-44 0 -74.5 -2t-52 -6.5t-37 -13t-29.5 -21.5q-16 -14 -26 -31t-19 -42q-11 24 -19.5 42t-17 35.5t-19 36.5t-25.5 45h564l-416 -621q27 -2 46.5 -2.5t47.5 -0.5q49 0 83.5 3t58.5 11t41 21t32 34q11 15 19.5 29.5t16.5 32.5
q22 -57 45.5 -102t46.5 -72h-591z" />
    <glyph glyph-name="braceleft" unicode="{" horiz-adv-x="346" 
d="M260 -53q-45 0 -81.5 9.5t-54.5 24.5q-20 19 -32.5 51t-12.5 67q0 20 5.5 46t17.5 66q9 28 9 50q0 16 -12.5 28t-34.5 17q-8 2 -19.5 3t-31.5 2v45q98 6 98 73q0 7 -0.5 11.5t-3 13t-7.5 24t-14 43.5q-7 17 -7 48q0 42 16.5 76.5t44.5 51.5q16 10 50.5 16.5t71.5 6.5h64
v-47q-36 -1 -55 -4.5t-33 -11.5q-21 -12 -33.5 -37t-12.5 -54v-13.5t2 -13t6 -19t12 -32.5q8 -24 8 -42q0 -26 -14.5 -49.5t-40.5 -38.5q-15 -10 -35.5 -15t-55.5 -9q18 -2 30 -3.5t21.5 -3.5t17 -4t15.5 -5q31 -12 47.5 -33.5t16.5 -48.5q0 -7 -0.5 -12t-2.5 -13t-6 -22.5
t-12 -39.5q-7 -20 -7 -46q0 -37 16.5 -64.5t44.5 -36.5q14 -5 29.5 -6.5t41.5 -1.5v-47h-66z" />
    <glyph glyph-name="bar" unicode="|" 
d="M213 667h74v-834h-74v834z" />
    <glyph glyph-name="braceright" unicode="}" horiz-adv-x="346" 
d="M20 -6q36 1 55 4.5t33 11.5q21 12 33.5 37t12.5 54q0 8 -0.5 13.5t-2.5 13t-6 19t-11 32.5q-8 24 -8 42q0 26 14.5 49.5t40.5 38.5q15 9 35.5 14.5t55.5 10.5q-17 1 -29 2.5t-21.5 3t-17 4l-16.5 5.5q-31 12 -47.5 33.5t-16.5 48.5q0 7 0.5 11.5t2.5 13t6 22.5t12 40
q7 20 7 46q0 37 -16.5 64.5t-44.5 36.5q-14 5 -29.5 6.5t-41.5 1.5v47h66q45 0 81.5 -9.5t54.5 -24.5q20 -19 32.5 -51t12.5 -67q0 -20 -5.5 -46t-17.5 -66q-9 -29 -9 -50q0 -16 12.5 -28t34.5 -17q8 -2 19.5 -3t31.5 -2v-45q-98 -6 -98 -73q0 -7 0.5 -11.5t3 -13t7.5 -24
t14 -43.5q7 -17 7 -48q0 -42 -16.5 -76.5t-44.5 -51.5q-16 -10 -50.5 -16.5t-71.5 -6.5h-64v47z" />
    <glyph glyph-name="asciitilde" unicode="~" horiz-adv-x="467" 
d="M29 276q58 103 135 103q16 0 34 -4.5t53 -16.5q31 -11 47.5 -14.5t30.5 -3.5q49 0 90 50l18 -11q-24 -48 -61 -75.5t-74 -27.5q-8 0 -14.5 0.5t-15.5 3t-22 6.5t-33 11q-18 6 -30.5 10t-22 6t-17 3t-16.5 1q-23 0 -38.5 -9t-37.5 -34l-8 -9z" />
    <glyph glyph-name="uni00A0" unicode="&#xa0;" horiz-adv-x="250" 
 />
    <glyph glyph-name="exclamdown" unicode="&#xa1;" horiz-adv-x="288" 
d="M152 464q1 -56 7.5 -102t19 -86.5t31 -77.5t44.5 -75q-24 -11 -42 -23.5t-30.5 -28.5t-21.5 -36.5t-16 -47.5q-7 27 -16 47.5t-22 36.5t-31 28.5t-42 23.5q26 39 44.5 76t30.5 77t18.5 86t8.5 102h17zM144 647q28 0 47.5 -19.5t19.5 -47.5q0 -29 -20 -48.5t-49 -19.5
q-27 0 -46.5 20t-19.5 48t19.5 47.5t48.5 19.5z" />
    <glyph glyph-name="cent" unicode="&#xa2;" horiz-adv-x="451" 
d="M214 86q-81 13 -127.5 76.5t-46.5 160.5q0 50 13 93.5t36 76.5t55 54t70 27v69h40v-69q31 0 87 -24q18 -8 27.5 -10.5t18.5 -2.5q21 0 38 18q-9 -14 -20 -35.5t-21.5 -44.5t-19.5 -45.5t-13 -38.5q-2 60 -28.5 99.5t-68.5 44.5v-416h8q93 0 110 128q2 17 15 17
q18 0 18 -25q0 -46 -22.5 -84.5t-58.5 -54.5q-14 -6 -30.5 -10t-39.5 -6v-84h-40v86zM214 534q-85 -25 -85 -195q0 -85 20 -134.5t65 -74.5v404z" />
    <glyph glyph-name="sterling" unicode="&#xa3;" horiz-adv-x="664" 
d="M624 237q7 -28 10 -50.5t3 -48.5q0 -71 -33 -107q-20 -23 -52.5 -35.5t-72.5 -12.5q-57 0 -108.5 18.5t-108.5 60.5q-70 -73 -143 -73q-22 0 -41 7t-33.5 18.5t-23 27.5t-8.5 34q0 45 37.5 72.5t97.5 27.5q12 0 22 -1t20.5 -3.5t24 -6.5t31.5 -10q1 7 1 11v8
q0 52 -39 105h-124l-21 60h117q-37 62 -37 136q0 45 16.5 82t46.5 64t72 41.5t93 14.5q94 0 155.5 -45.5t83.5 -132.5l-129 -27v9q0 20 -5 45.5t-12 42.5q-12 29 -43 47t-68 18q-24 0 -47.5 -8.5t-40.5 -22.5q-25 -21 -25 -59q0 -22 8 -53t22 -66l35 -86h131l22 -60h-138
q2 -8 2 -13v-13q0 -35 -5 -62t-17 -53q31 -17 54 -27.5t41 -16.5t34 -8.5t34 -2.5q54 0 84.5 28t30.5 76q0 25 -7 50h53zM215 94q-23 16 -49 25t-49 9q-31 0 -52 -15.5t-21 -38.5t18 -36.5t48 -13.5q35 0 64 17.5t46 49.5z" />
    <glyph glyph-name="currency" unicode="&#xa4;" horiz-adv-x="467" 
d="M29 171l42 42q-40 55 -40 120q0 32 9 60.5t29 57.5l-44 44l46 46l44 -44q52 39 119 39t120 -40l42 42l46 -46l-43 -43q19 -29 27.5 -56.5t8.5 -59.5q0 -63 -38 -118l41 -40l-46 -46l-41 40q-55 -38 -118 -38q-62 0 -116 36l-42 -42zM235 496q-27 0 -51 -12.5t-42 -34.5
t-28 -52t-10 -64q0 -33 10 -62.5t27.5 -51.5t41 -35t50.5 -13t50.5 12.5t41 34.5t27.5 51.5t10 63.5q0 33 -10 63t-27.5 52t-40.5 35t-49 13z" />
    <glyph glyph-name="yen" unicode="&#xa5;" horiz-adv-x="640" 
d="M275 60v123h-129l-21 58h150v30l-21 37h-108l-24 60h94l-77 118q-25 39 -44.5 66.5t-37 47t-34.5 33t-36 24.5h272l-73 -60l174 -262l168 265l-74 57h200l-73 -57l-144 -232h75l23 -60h-135l-21 -37v-30h133l23 -58h-156v-123l73 -60h-250z" />
    <glyph glyph-name="brokenbar" unicode="&#xa6;" 
d="M213 667h74v-344h-74v344zM213 153h74v-320h-74v320z" />
    <glyph glyph-name="section" unicode="&#xa7;" horiz-adv-x="535" 
d="M393 598q-9 28 -17 40.5t-22 23.5q-17 14 -41 21.5t-50 7.5q-51 0 -82.5 -22.5t-31.5 -58.5q0 -32 25.5 -53.5t85.5 -38.5q39 -11 61.5 -17.5t36.5 -11t23.5 -8.5t22.5 -10q91 -39 91 -121q0 -45 -29 -79t-84 -53q85 -43 85 -125q0 -36 -15 -65.5t-42.5 -50.5t-66 -32.5
t-84.5 -11.5q-18 0 -31 0.5t-28 3.5t-35.5 8t-52.5 14q-13 3 -24.5 5t-20.5 2q-14 0 -25.5 -3.5t-28.5 -12.5q15 24 24.5 40t18 30.5t17 31.5l21.5 43q8 -57 50 -88t111 -31q63 0 99 24.5t36 66.5q0 43 -41 75q-10 7 -19 12.5t-24 11t-39.5 13t-64.5 18.5q-44 12 -75 25.5
t-50 30.5t-27.5 38t-8.5 47q0 51 32.5 84t89.5 42q-45 15 -69 47t-24 77q0 69 53 107.5t144 38.5q15 0 27.5 -1t25.5 -3t27.5 -5.5t31.5 -8.5q32 -8 40 -8q22 0 48 14q-13 -23 -20.5 -36.5t-14.5 -26.5t-14.5 -29t-20.5 -43zM219 446q-32 -5 -49.5 -11.5t-29.5 -17.5
q-23 -23 -23 -55q0 -20 9 -35t31.5 -28.5t61.5 -26.5t99 -28q45 7 70 28.5t25 55.5q0 46 -49 71q-8 4 -16 7.5t-20 7.5t-29.5 9l-45.5 13z" />
    <glyph glyph-name="dieresis" unicode="&#xa8;" 
d="M340 811q20 0 34.5 -15t14.5 -35q0 -21 -15 -35.5t-35 -14.5q-21 0 -35.5 14.5t-14.5 35.5t14.5 35.5t36.5 14.5zM159 811q20 0 34.5 -15t14.5 -35q0 -21 -14.5 -35.5t-35.5 -14.5t-35.5 14.5t-14.5 35.5t15 35.5t36 14.5z" />
    <glyph glyph-name="copyright" unicode="&#xa9;" horiz-adv-x="794" 
d="M569 544l3 -2q-18 -30 -29 -49t-19.5 -35.5t-16 -34t-18.5 -44.5q-1 8 -2 15t-1 9q-8 49 -31.5 75.5t-59.5 26.5q-46 0 -71 -42.5t-25 -120.5q0 -87 29.5 -133t83.5 -46q79 0 93 102q3 18 17 18q19 0 19 -26q0 -11 -3 -26.5t-8 -28.5q-29 -78 -129 -78q-41 0 -75 14.5
t-58 41.5t-37 65t-13 85q0 46 13.5 85t37.5 67.5t57.5 44.5t73.5 16q10 0 18.5 -0.5t16.5 -2t18.5 -5t25.5 -9.5q12 -5 20.5 -6.5t15.5 -1.5q6 0 10 0.5t8.5 2.5t11 6.5t17.5 12.5zM400 674q78 0 143 -26t112 -73.5t73 -113t26 -143.5q0 -72 -26 -136t-74 -107
q-45 -39 -110 -61.5t-137 -22.5q-69 0 -132 20.5t-114 58.5q-121 91 -121 264q0 82 27.5 148t81.5 109q48 40 113.5 61.5t137.5 21.5zM397 633q-69 0 -123 -20.5t-88 -59.5q-33 -38 -51.5 -99t-18.5 -134q0 -141 72 -215t210 -74q145 0 217 90q32 40 46 89t14 119
q0 77 -14 127.5t-46 88.5q-73 88 -218 88z" />
    <glyph glyph-name="ordfeminine" unicode="&#xaa;" horiz-adv-x="380" 
d="M253 322q-29 -33 -54 -46.5t-58 -13.5q-48 0 -77.5 27t-29.5 72q0 50 50 76q8 4 16 6.5t21 5t33 4.5t52 5q30 3 43 14q12 12 12 35q0 65 -80 65q-35 0 -57 -14.5t-45 -50.5q-6 11 -10 18t-8 12.5t-9 12t-13 16.5q7 1 12 2t10 2.5t11.5 4.5t17.5 8q28 11 50 16t50 5
q60 0 95 -23q19 -14 27.5 -34.5t8.5 -55.5v-188l25 -36h-93v55zM257 451l-4 -3q-11 -10 -24.5 -14t-42.5 -7q-42 -5 -61.5 -21t-19.5 -48q0 -26 15.5 -41.5t41.5 -15.5q23 0 43.5 11.5t34.5 31.5q5 8 8.5 15.5t5.5 17.5t2.5 22.5t0.5 31.5v20z" />
    <glyph glyph-name="guillemotleft" unicode="&#xab;" horiz-adv-x="283" 
d="M129 333l86 144h45l-56 -144l56 -143h-49zM21 333l87 144h44l-56 -144l56 -143h-49z" />
    <glyph glyph-name="logicalnot" unicode="&#xac;" horiz-adv-x="467" 
d="M369 339h-335v61h399v-215h-64v154z" />
    <glyph glyph-name="uni00AD" unicode="&#xad;" horiz-adv-x="322" 
d="M20 364h259l23 -61h-259z" />
    <glyph glyph-name="registered" unicode="&#xae;" horiz-adv-x="469" 
d="M155 375v69q-10 -1 -14.5 -2t-10.5 -4q-3 0 -10 -3q6 11 8.5 18t4.5 15q5 0 7 -1h5q7 0 10 1v75l-31 16l6 3l4 3q19 12 47.5 19.5t54.5 7.5q39 0 65.5 -18t26.5 -46q0 -45 -61 -64q35 -78 82 -113q-20 -7 -37 -15t-34 -21q-3 22 -6.5 39t-8 33t-10.5 32.5t-14 36.5
l-39 -7v-74l34 -27h-113zM200 470q81 12 81 58q0 17 -14 29.5t-36 12.5q-17 0 -31 -11v-89zM236 671q47 0 86 -15.5t67 -44t43.5 -67.5t15.5 -86q0 -42 -16 -80.5t-44 -64.5q-26 -23 -65 -36.5t-82 -13.5q-86 0 -147 48q-72 54 -72 157q0 48 16.5 87.5t48.5 65.5
q29 24 68 37t81 13zM235 647q-84 0 -126 -48q-20 -23 -31 -59t-11 -81q0 -85 43.5 -128.5t124.5 -43.5q88 0 130 54q19 24 27 53t8 71q0 46 -8 75.5t-27 52.5q-45 54 -130 54z" />
    <glyph glyph-name="macron" unicode="&#xaf;" 
d="M109 774h281v-51h-281v51z" />
    <glyph glyph-name="degree" unicode="&#xb0;" horiz-adv-x="266" 
d="M135 684q22 0 41 -8.5t33 -23t22.5 -34t8.5 -41.5t-8.5 -41t-23 -33.5t-34 -23t-41.5 -8.5t-41 8.5t-33.5 23t-23 33.5t-8.5 41t8.5 42t23 34t34 22.5t42.5 8.5zM135 640q-27 0 -45.5 -18.5t-18.5 -44.5t18.5 -44.5t44.5 -18.5t44 18.5t18 44.5t-18 44.5t-43 18.5z" />
    <glyph glyph-name="plusminus" unicode="&#xb1;" horiz-adv-x="467" 
d="M22 96h423v-65h-423v65zM201 304h-179v65h179v185h65v-185h179v-65h-179v-173h-65v173z" />
    <glyph glyph-name="uni00B2" unicode="&#xb2;" horiz-adv-x="373" 
d="M31 266q12 57 42 96.5t87 71.5q14 8 22.5 13t14.5 9t10 7.5t9 8.5q40 34 40 87q0 35 -20.5 55t-56.5 20q-30 0 -50 -16.5t-20 -42.5q0 -20 12 -33t30 -13q6 0 10.5 0.5t9 3.5t11 9t17.5 18q-3 -23 -4 -28t-4 -10q-18 -43 -65 -43q-36 0 -61 24t-25 58q0 24 10.5 44
t28.5 35t43.5 23t55.5 8q32 0 59.5 -9.5t48 -26t32 -39t11.5 -48.5q0 -57 -60 -99q-8 -6 -13.5 -9.5t-14 -8.5t-23 -12.5t-40.5 -21.5q-20 -10 -41 -29.5t-35 -39.5h115q25 0 41.5 0.5t27 2.5t16.5 5.5t11 8.5q3 3 5 5.5t4 9t5 18.5t9 35v-147h-305z" />
    <glyph glyph-name="uni00B3" unicode="&#xb3;" horiz-adv-x="373" 
d="M148 512l27 -1q30 0 49.5 17t19.5 43t-21 44.5t-51 18.5q-29 0 -46.5 -14t-17.5 -37q0 -12 6.5 -20t16.5 -8q5 0 9 1.5t21 12.5l-7 -18q-10 -31 -48 -31q-26 0 -44.5 18.5t-18.5 43.5q0 19 10.5 35.5t28.5 28.5t43 18.5t54 6.5q61 0 98.5 -26t37.5 -71q0 -57 -67 -84
q45 -18 66 -44.5t21 -68.5q0 -57 -41.5 -88.5t-113.5 -31.5q-69 0 -105 27.5t-48 90.5q16 5 26.5 9t19.5 8.5t18.5 11t22.5 16.5q-5 -20 -6.5 -30.5t-1.5 -22.5q0 -73 73 -73q36 0 56.5 22t20.5 60q0 42 -22.5 68.5t-55.5 26.5q-6 0 -14.5 -1t-18.5 -3q-3 -1 -6 -1.5
l-9 -1.5z" />
    <glyph glyph-name="acute" unicode="&#xb4;" 
d="M298 811h106l-127 -102h-55z" />
    <glyph glyph-name="uni00B5" unicode="&#xb5;" horiz-adv-x="530" 
d="M364 78q-46 -91 -138 -91q-20 0 -36 4t-36 14q-2 -18 6.5 -55.5t23.5 -82.5q-14 -1 -23.5 -2t-18.5 -2t-19 -2t-25 -3q-3 -1 -11 -2t-18 -3q2 41 3.5 71.5t2 55.5t1 46t0.5 44v417h88v-318q0 -24 1 -40.5t3 -28.5t5.5 -21t8.5 -18q21 -30 65 -30q48 0 75.5 33t35.5 102
q1 6 2 22t2 35t1.5 37t0.5 29v198h88v-435l65 -52h-153v78z" />
    <glyph glyph-name="paragraph" unicode="&#xb6;" horiz-adv-x="605" 
d="M267 375q-34 0 -59.5 2.5t-46 7.5t-36 12.5t-29.5 18.5q-31 25 -47.5 61.5t-16.5 81.5q0 61 28.5 103.5t82.5 58.5q17 4 53 8t71 4h290l-66 -60v-740h-102v753h-62v-753h-60v442z" />
    <glyph glyph-name="periodcentered" unicode="&#xb7;" horiz-adv-x="228" 
d="M116 354q27 0 46.5 -20t19.5 -48t-19.5 -47.5t-48.5 -19.5q-28 0 -47.5 19.5t-19.5 47.5q0 29 20 48.5t49 19.5z" />
    <glyph glyph-name="cedilla" unicode="&#xb8;" 
d="M229 -79q8 17 14.5 39.5t10.5 39.5h53l-11 -46h8q20 0 33 -17.5t13 -46.5q0 -23 -7.5 -42t-20.5 -33t-30.5 -22t-37.5 -8q-54 0 -84 51q5 3 13 8t16.5 10.5t15.5 11t10 9.5q2 -49 32 -49q15 0 26.5 20.5t11.5 46.5q0 35 -29 35q-17 0 -27 -15z" />
    <glyph glyph-name="uni00B9" unicode="&#xb9;" horiz-adv-x="373" 
d="M162 312v275q-27 -11 -44 -11t-29.5 9t-12.5 22q0 10 6.5 16.5t15.5 6.5q19 0 19 -19v-4q1 -1 5 -1q17 0 34.5 16t27.5 39h49v-349l57 -45h-184z" />
    <glyph glyph-name="ordmasculine" unicode="&#xba;" horiz-adv-x="380" 
d="M193 604q78 0 123 -47t45 -128q0 -75 -45 -120.5t-120 -45.5q-40 0 -72.5 12.5t-56 35.5t-36 55t-12.5 71q0 37 12.5 68t35.5 53t55 34t71 12zM191 571q-98 0 -98 -144q0 -132 97 -132q95 0 95 137q0 75 -21.5 107t-72.5 32z" />
    <glyph glyph-name="guillemotright" unicode="&#xbb;" horiz-adv-x="283" 
d="M79 339l-56 138h49l84 -147l-84 -141h-49zM185 339l-56 138h48l85 -147l-85 -141h-48z" />
    <glyph glyph-name="onequarter" unicode="&#xbc;" horiz-adv-x="847" 
d="M137 312v275q-27 -11 -44 -11t-29.5 9t-12.5 22q0 10 6.5 16.5t15.5 6.5q19 0 19 -19v-4q1 -1 5 -1q17 0 34.5 16t27.5 39h49v-349l57 -45h-184zM241 0h-50l405 661h50zM647 135v129l5 3q22 11 37.5 24.5t29.5 36.5v-193h15q25 0 37 -5t19.5 -15t7.5 -22q0 -11 -8 -19
t-20 -8q-11 0 -18.5 6.5t-7.5 15.5q0 8 4 12q-1 1 -2 1h-27v-56l57 -45h-186l57 45v56h-183v19q22 22 42.5 56.5t36.5 73.5t25 77t8 67h92q-4 -26 -18 -59.5t-33.5 -69t-43 -70t-47.5 -60.5h121z" />
    <glyph glyph-name="onehalf" unicode="&#xbd;" horiz-adv-x="847" 
d="M137 312v275q-27 -11 -44 -11t-29.5 9t-12.5 22q0 10 6.5 16.5t15.5 6.5q19 0 19 -19v-4q1 -1 5 -1q17 0 34.5 16t27.5 39h49v-349l57 -45h-184zM221 0h-50l405 661h50zM648 293q-2 -11 -3 -17.5t-2 -10t-1.5 -5.5t-1.5 -5q-18 -43 -65 -43q-36 0 -61 24t-25 58
q0 24 10.5 44t28.5 35t43.5 23t55.5 8q32 0 59.5 -9.5t48 -26t32 -39t11.5 -48.5q0 -56 -60 -99q-8 -5 -13.5 -8.5t-14 -8.5t-23 -12.5t-40.5 -21.5q-21 -11 -41.5 -30t-34.5 -39h115q25 0 41.5 0.5t27 2.5t16.5 5.5t11 8.5q3 3 5 5.5t4 9t5 18.5t9 35v-147h-305
q12 57 42 96t87 71q13 8 22 13.5t15 9.5t10 7.5t9 8.5q40 34 40 86q0 35 -20.5 55t-56.5 20q-30 0 -50 -16.5t-20 -42.5q0 -20 12 -33t30 -13q11 0 18 3.5t16 12.5q1 2 5 6z" />
    <glyph glyph-name="threequarters" unicode="&#xbe;" horiz-adv-x="847" 
d="M148 512l27 -1q30 0 49.5 17t19.5 43t-21 44.5t-51 18.5q-29 0 -46.5 -14t-17.5 -37q0 -12 6.5 -20t16.5 -8q5 0 9 1.5t21 12.5l-7 -18q-10 -31 -48 -31q-26 0 -44.5 18.5t-18.5 43.5q0 19 10.5 35.5t28.5 28.5t43 18.5t54 6.5q61 0 98.5 -26t37.5 -71q0 -57 -67 -84
q45 -18 66 -44.5t21 -68.5q0 -57 -41.5 -88.5t-113.5 -31.5q-69 0 -105 27.5t-48 90.5q16 5 26.5 9t19.5 8.5t18.5 11t22.5 16.5q-5 -20 -6.5 -30.5t-1.5 -22.5q0 -73 73 -73q36 0 56.5 22t20.5 60q0 42 -22.5 68.5t-55.5 26.5q-6 0 -14.5 -1t-18.5 -3q-3 -1 -6 -1.5
l-9 -1.5zM620 661h50l-404 -661h-50zM671 45v56h-183v19q22 22 42.5 56.5t36.5 73.5t25 77t8 67h92q-4 -26 -18 -59.5t-33.5 -69t-43 -70t-47.5 -60.5h121v129l5 3q22 11 37.5 24.5t29.5 36.5v-193h15q25 0 37 -5t19.5 -15t7.5 -22q0 -11 -8 -19t-20 -8q-11 0 -18.5 6.5
t-7.5 15.5q0 8 4 12q-1 1 -2 1h-27v-56l57 -45h-186z" />
    <glyph glyph-name="questiondown" unicode="&#xbf;" horiz-adv-x="419" 
d="M270 168l28 16q5 3 14 9t18.5 12.5t19 14t15.5 13.5q39 -47 39 -98q0 -32 -14 -59t-39 -47t-59.5 -31.5t-74.5 -11.5q-43 0 -79.5 12.5t-63.5 34.5t-42.5 52.5t-15.5 65.5q0 64 50 112q9 9 15 14.5t16.5 13t28.5 20t51 34.5q18 11 30 24t23 30q7 11 11.5 21t4.5 12l-3 36
q-1 5 5.5 11t12.5 6q11 0 21.5 -18.5t10.5 -38.5q0 -67 -80 -150q-26 -27 -43.5 -47.5t-27.5 -37.5t-14 -33.5t-4 -35.5q0 -20 7.5 -37.5t20 -30.5t29.5 -20.5t37 -7.5q18 0 34 6.5t28.5 17t20 24.5t7.5 29q0 33 -44 59zM230 647q28 0 47.5 -19.5t19.5 -47.5
q0 -29 -20 -48.5t-49 -19.5q-27 0 -46.5 20t-19.5 48t19.5 47.5t48.5 19.5z" />
    <glyph glyph-name="Agrave" unicode="&#xc0;" horiz-adv-x="690" 
d="M-27 0q34 15 63 40.5t54 63.5t47 89t42 118q-20 14 -36.5 20t-43.5 9q6 9 13.5 21.5t14 24.5t11 22t5.5 14q8 -11 13.5 -17t18.5 -17l26 -23l90 242l-55 60h239l-55 -60l88 -235q25 16 42.5 31t32.5 33q3 -11 8 -25t11 -28t12 -26.5t11 -19.5q-13 1 -19 1h-11
q-20 0 -35 -3.5t-32 -12.5l97 -262l78 -60h-262l71 60l-72 189l-35 -35q-9 -10 -19.5 -22t-19.5 -24t-16.5 -22.5t-11.5 -17.5q-34 55 -63 93.5t-55 64.5l-28 -84t-14.5 -46.5t-5 -25t-0.5 -20.5q0 -14 2 -25.5t8 -22.5t16 -23.5t26 -28.5q2 -3 9 -10h-260zM375 254
q19 24 46 48l-98 258l-85 -225q14 -15 25.5 -28.5t22 -27t22 -29t25.5 -34.5l5 -8q1 2 6 7zM224 811h106l76 -102h-55z" />
    <glyph glyph-name="Aacute" unicode="&#xc1;" horiz-adv-x="690" 
d="M-27 0q34 15 63 40.5t54 63.5t47 89t42 118q-20 14 -36.5 20t-43.5 9q6 9 13.5 21.5t14 24.5t11 22t5.5 14q8 -11 13.5 -17t18.5 -17l26 -23l90 242l-55 60h239l-55 -60l88 -235q25 16 42.5 31t32.5 33q3 -11 8 -25t11 -28t12 -26.5t11 -19.5q-13 1 -19 1h-11
q-20 0 -35 -3.5t-32 -12.5l97 -262l78 -60h-262l71 60l-72 189l-35 -35q-9 -10 -19.5 -22t-19.5 -24t-16.5 -22.5t-11.5 -17.5q-34 55 -63 93.5t-55 64.5l-28 -84t-14.5 -46.5t-5 -25t-0.5 -20.5q0 -14 2 -25.5t8 -22.5t16 -23.5t26 -28.5q2 -3 9 -10h-260zM375 254
q19 24 46 48l-98 258l-85 -225q14 -15 25.5 -28.5t22 -27t22 -29t25.5 -34.5l5 -8q1 2 6 7zM377 811h106l-127 -102h-55z" />
    <glyph glyph-name="Acircumflex" unicode="&#xc2;" horiz-adv-x="690" 
d="M-27 0q34 15 63 40.5t54 63.5t47 89t42 118q-20 14 -36.5 20t-43.5 9q6 9 13.5 21.5t14 24.5t11 22t5.5 14q8 -11 13.5 -17t18.5 -17l26 -23l90 242l-55 60h239l-55 -60l88 -235q25 16 42.5 31t32.5 33q3 -11 8 -25t11 -28t12 -26.5t11 -19.5q-13 1 -19 1h-11
q-20 0 -35 -3.5t-32 -12.5l97 -262l78 -60h-262l71 60l-72 189l-35 -35q-9 -10 -19.5 -22t-19.5 -24t-16.5 -22.5t-11.5 -17.5q-34 55 -63 93.5t-55 64.5l-28 -84t-14.5 -46.5t-5 -25t-0.5 -20.5q0 -14 2 -25.5t8 -22.5t16 -23.5t26 -28.5q2 -3 9 -10h-260zM375 254
q19 24 46 48l-98 258l-85 -225q14 -15 25.5 -28.5t22 -27t22 -29t25.5 -34.5l5 -8q1 2 6 7zM324 811h68l89 -102h-84l-53 60l-52 -60h-55z" />
    <glyph glyph-name="Atilde" unicode="&#xc3;" horiz-adv-x="690" 
d="M-27 0q34 15 63 40.5t54 63.5t47 89t42 118q-20 14 -36.5 20t-43.5 9q6 9 13.5 21.5t14 24.5t11 22t5.5 14q8 -11 13.5 -17t18.5 -17l26 -23l90 242l-55 60h239l-55 -60l88 -235q25 16 42.5 31t32.5 33q3 -11 8 -25t11 -28t12 -26.5t11 -19.5q-13 1 -19 1h-11
q-20 0 -35 -3.5t-32 -12.5l97 -262l78 -60h-262l71 60l-72 189l-35 -35q-9 -10 -19.5 -22t-19.5 -24t-16.5 -22.5t-11.5 -17.5q-34 55 -63 93.5t-55 64.5l-28 -84t-14.5 -46.5t-5 -25t-0.5 -20.5q0 -14 2 -25.5t8 -22.5t16 -23.5t26 -28.5q2 -3 9 -10h-260zM375 254
q19 24 46 48l-98 258l-85 -225q14 -15 25.5 -28.5t22 -27t22 -29t25.5 -34.5l5 -8q1 2 6 7zM208 711q0 22 7 41t19.5 33.5t29 23t36.5 8.5q12 0 21 -1.5t19.5 -5.5t24.5 -11.5t35 -19.5q25 -15 40 -15t23 10t10 34h38v-14q0 -37 -23.5 -63.5t-57.5 -26.5q-19 0 -41.5 7
t-54.5 23q-22 11 -31.5 14.5t-18.5 3.5q-34 0 -39 -41h-37z" />
    <glyph glyph-name="Adieresis" unicode="&#xc4;" horiz-adv-x="690" 
d="M-27 0q34 15 63 40.5t54 63.5t47 89t42 118q-20 14 -36.5 20t-43.5 9q6 9 13.5 21.5t14 24.5t11 22t5.5 14q8 -11 13.5 -17t18.5 -17l26 -23l90 242l-55 60h239l-55 -60l88 -235q25 16 42.5 31t32.5 33q3 -11 8 -25t11 -28t12 -26.5t11 -19.5q-13 1 -19 1h-11
q-20 0 -35 -3.5t-32 -12.5l97 -262l78 -60h-262l71 60l-72 189l-35 -35q-9 -10 -19.5 -22t-19.5 -24t-16.5 -22.5t-11.5 -17.5q-34 55 -63 93.5t-55 64.5l-28 -84t-14.5 -46.5t-5 -25t-0.5 -20.5q0 -14 2 -25.5t8 -22.5t16 -23.5t26 -28.5q2 -3 9 -10h-260zM375 254
q19 24 46 48l-98 258l-85 -225q14 -15 25.5 -28.5t22 -27t22 -29t25.5 -34.5l5 -8q1 2 6 7zM449 811q20 0 34.5 -15t14.5 -35q0 -21 -15 -35.5t-35 -14.5q-21 0 -35.5 14.5t-14.5 35.5t14.5 35.5t36.5 14.5zM268 811q20 0 34.5 -15t14.5 -35q0 -21 -14.5 -35.5t-35.5 -14.5
t-35.5 14.5t-14.5 35.5t15 35.5t36 14.5z" />
    <glyph glyph-name="Aring" unicode="&#xc5;" horiz-adv-x="690" 
d="M-27 0q34 15 63 40.5t54 63.5t47 89t42 118q-20 14 -36.5 20t-43.5 9q6 9 13.5 21.5t14 24.5t11 22t5.5 14q8 -11 13.5 -17t18.5 -17l26 -23l90 242l-55 60h239l-55 -60l88 -235q25 16 42.5 31t32.5 33q3 -11 8 -25t11 -28t12 -26.5t11 -19.5q-13 1 -19 1h-11
q-20 0 -35 -3.5t-32 -12.5l97 -262l78 -60h-262l71 60l-72 189l-35 -35q-9 -10 -19.5 -22t-19.5 -24t-16.5 -22.5t-11.5 -17.5q-34 55 -63 93.5t-55 64.5l-28 -84t-14.5 -46.5t-5 -25t-0.5 -20.5q0 -14 2 -25.5t8 -22.5t16 -23.5t26 -28.5q2 -3 9 -10h-260zM375 254
q19 24 46 48l-98 258l-85 -225q14 -15 25.5 -28.5t22 -27t22 -29t25.5 -34.5l5 -8q1 2 6 7zM361 835q30 0 51.5 -22t21.5 -53t-21.5 -52.5t-53.5 -21.5q-30 0 -52 21.5t-22 52.5q0 32 22 53.5t54 21.5zM360 794q-14 0 -24 -10t-10 -24t10 -24t24 -10t23.5 10t9.5 24t-9.5 24
t-23.5 10z" />
    <glyph glyph-name="AE" unicode="&#xc6;" horiz-adv-x="1025" 
d="M-14 0q30 13 56.5 31t53 45.5t55.5 67t65 95.5l52 81q-16 9 -30 14t-34 9l-5 2l52 70q13 -16 26.5 -30t22.5 -21l164 243l-74 60h607q-19 -23 -32 -40.5t-23.5 -35t-19 -37t-18.5 -46.5q-2 5 -4 9l-4 8q-14 31 -27.5 50.5t-32.5 30t-46 14.5t-67 4q-26 0 -48 -0.5
t-51 -2.5v-241h142l67 80v-203l-67 80h-142v-291q28 -2 42.5 -2.5t25.5 -0.5q54 0 95 8t64 24q19 13 35.5 34.5t38.5 61.5q6 -27 14 -49t19.5 -42.5t27.5 -39.5t39 -40h-578l73 60v201l-87 -111q-6 7 -16 19.5t-33 40.5q-12 15 -20.5 25t-17 19t-18.5 18t-24 22l-47 -70
q-25 -38 -38.5 -71.5t-13.5 -58.5q0 -33 18.5 -54t63.5 -40h-301zM521 327v290l-190 -282q18 -17 30.5 -29t23 -24t22 -26t27.5 -35z" />
    <glyph glyph-name="Ccedilla" unicode="&#xc7;" horiz-adv-x="595" 
d="M274 -78q6 15 10.5 28t10.5 35q-45 5 -77 17t-63 35q-57 42 -89.5 119.5t-32.5 171.5q0 78 21.5 143t60.5 112.5t92.5 74t116.5 26.5q17 0 30.5 -1t28 -4t31 -8.5t39.5 -14.5q22 -8 36 -11.5t28 -3.5q18 0 31 5t36 21q-20 -35 -34.5 -61t-26 -49.5t-22 -47.5t-22.5 -54
q-5 38 -14 64.5t-23 50.5q-20 32 -55 51.5t-71 19.5q-35 0 -68.5 -19.5t-53.5 -51.5q-48 -77 -48 -222q0 -156 51 -238.5t148 -82.5q72 0 114.5 47.5t51.5 138.5q3 22 18 22q20 0 20 -34q0 -25 -8.5 -59t-20.5 -58q-45 -90 -172 -100l-8 -30q2 1 4.5 1h3.5q20 0 33 -18
t13 -47q0 -45 -27 -75t-69 -30q-54 0 -84 52q6 2 14 7t16.5 11t15.5 11.5t10 8.5q0 -23 9 -36t23 -13t25.5 20.5t11.5 47.5q0 35 -28 35q-18 0 -28 -16z" />
    <glyph glyph-name="Egrave" unicode="&#xc8;" horiz-adv-x="603" 
d="M100 60v277q-34 1 -59.5 -8t-49.5 -29q11 42 37.5 61t71.5 19v227l-73 60h548q-19 -23 -32 -40.5t-23.5 -35t-19 -37t-18.5 -46.5q-2 3 -3.5 7.5t-4.5 9.5q-14 31 -27.5 50.5t-32.5 30t-45.5 14.5t-66.5 4q-26 0 -48 -0.5t-51 -2.5v-241h141l67 80v-203l-67 80h-141v-291
q28 -2 42 -2.5t26 -0.5q54 0 94.5 8t63.5 24q19 13 35.5 34.5t38.5 61.5q6 -27 14 -49t19.5 -42.5t27.5 -39.5t39 -40h-576zM176 811h106l76 -102h-55z" />
    <glyph glyph-name="Eacute" unicode="&#xc9;" horiz-adv-x="603" 
d="M100 60v277q-34 1 -59.5 -8t-49.5 -29q11 42 37.5 61t71.5 19v227l-73 60h548q-19 -23 -32 -40.5t-23.5 -35t-19 -37t-18.5 -46.5q-2 3 -3.5 7.5t-4.5 9.5q-14 31 -27.5 50.5t-32.5 30t-45.5 14.5t-66.5 4q-26 0 -48 -0.5t-51 -2.5v-241h141l67 80v-203l-67 80h-141v-291
q28 -2 42 -2.5t26 -0.5q54 0 94.5 8t63.5 24q19 13 35.5 34.5t38.5 61.5q6 -27 14 -49t19.5 -42.5t27.5 -39.5t39 -40h-576zM329 811h106l-127 -102h-55z" />
    <glyph glyph-name="Ecircumflex" unicode="&#xca;" horiz-adv-x="603" 
d="M100 60v277q-34 1 -59.5 -8t-49.5 -29q11 42 37.5 61t71.5 19v227l-73 60h548q-19 -23 -32 -40.5t-23.5 -35t-19 -37t-18.5 -46.5q-2 3 -3.5 7.5t-4.5 9.5q-14 31 -27.5 50.5t-32.5 30t-45.5 14.5t-66.5 4q-26 0 -48 -0.5t-51 -2.5v-241h141l67 80v-203l-67 80h-141v-291
q28 -2 42 -2.5t26 -0.5q54 0 94.5 8t63.5 24q19 13 35.5 34.5t38.5 61.5q6 -27 14 -49t19.5 -42.5t27.5 -39.5t39 -40h-576zM266 811h68l89 -102h-84l-53 60l-52 -60h-55z" />
    <glyph glyph-name="Edieresis" unicode="&#xcb;" horiz-adv-x="603" 
d="M100 60v277q-34 1 -59.5 -8t-49.5 -29q11 42 37.5 61t71.5 19v227l-73 60h548q-19 -23 -32 -40.5t-23.5 -35t-19 -37t-18.5 -46.5q-2 3 -3.5 7.5t-4.5 9.5q-14 31 -27.5 50.5t-32.5 30t-45.5 14.5t-66.5 4q-26 0 -48 -0.5t-51 -2.5v-241h141l67 80v-203l-67 80h-141v-291
q28 -2 42 -2.5t26 -0.5q54 0 94.5 8t63.5 24q19 13 35.5 34.5t38.5 61.5q6 -27 14 -49t19.5 -42.5t27.5 -39.5t39 -40h-576zM391 811q20 0 34.5 -15t14.5 -35q0 -21 -15 -35.5t-35 -14.5q-21 0 -35.5 14.5t-14.5 35.5t14.5 35.5t36.5 14.5zM210 811q20 0 34.5 -15t14.5 -35
q0 -21 -14.5 -35.5t-35.5 -14.5t-35.5 14.5t-14.5 35.5t15 35.5t36 14.5z" />
    <glyph glyph-name="Igrave" unicode="&#xcc;" horiz-adv-x="303" 
d="M100 60v547l-73 60h249l-73 -60v-547l73 -60h-249zM16 811h106l76 -102h-55z" />
    <glyph glyph-name="Iacute" unicode="&#xcd;" horiz-adv-x="303" 
d="M100 60v547l-73 60h249l-73 -60v-547l73 -60h-249zM179 811h106l-127 -102h-55z" />
    <glyph glyph-name="Icircumflex" unicode="&#xce;" horiz-adv-x="303" 
d="M100 60v547l-73 60h249l-73 -60v-547l73 -60h-249zM116 811h68l89 -102h-84l-53 60l-52 -60h-55z" />
    <glyph glyph-name="Idieresis" unicode="&#xcf;" horiz-adv-x="303" 
d="M235 811q20 0 34.5 -15t14.5 -35q0 -21 -14.5 -35.5t-35.5 -14.5t-35.5 14.5t-14.5 35.5t14.5 35.5t36.5 14.5zM69 811q20 0 34.5 -15t14.5 -35q0 -21 -14.5 -35.5t-35.5 -14.5t-35.5 14.5t-14.5 35.5t15 35.5t36 14.5zM100 60v547l-73 60h249l-73 -60v-547l73 -60h-249z
" />
    <glyph glyph-name="Eth" unicode="&#xd0;" horiz-adv-x="614" 
d="M100 60v273h-67l-17 48h84v226l-73 60h223q79 0 132 -13.5t91 -44.5q54 -42 80.5 -110t26.5 -159q0 -102 -29 -174.5t-86 -112.5q-20 -15 -41 -25t-46.5 -16.5t-56.5 -9t-70 -2.5h-224zM203 333v-286q27 -2 38.5 -3t22.5 -1q52 0 88 18t62 56q26 39 39.5 97t13.5 128
q0 139 -51.5 210.5t-148.5 71.5q-11 0 -25 -1t-39 -3v-239h122l17 -48h-139z" />
    <glyph glyph-name="Ntilde" unicode="&#xd1;" horiz-adv-x="610" 
d="M13 0q25 9 42 21.5t27 32t14 48.5t4 71v434l-73 60h269l-73 -60l248 -480v367q0 42 -4 71t-14 48.5t-27 32t-42 21.5h216q-26 -9 -42.5 -21.5t-26.5 -32t-14 -48.5t-4 -71v-494h-84l-287 556v-383q0 -42 4 -71t14 -48.5t26.5 -32t42.5 -21.5h-216zM154 711q0 22 7 41
t19.5 33.5t29 23t36.5 8.5q12 0 21 -1.5t19.5 -5.5t24.5 -11.5t35 -19.5q25 -15 40 -15t23 10t10 34h38v-14q0 -37 -23.5 -63.5t-57.5 -26.5q-19 0 -41.5 7t-54.5 23q-22 11 -31.5 14.5t-18.5 3.5q-34 0 -39 -41h-37z" />
    <glyph glyph-name="Ograve" unicode="&#xd2;" horiz-adv-x="632" 
d="M315 684q138 0 210.5 -91.5t72.5 -264.5q0 -81 -19.5 -145t-56 -108.5t-89 -68t-118.5 -23.5q-67 0 -119.5 23.5t-88.5 68.5t-55 110t-19 148q0 82 19 147.5t55 110.5t88.5 69t119.5 24zM310 641q-42 0 -76.5 -23t-52.5 -62t-26.5 -91t-8.5 -130q0 -79 9 -132t29 -92
q19 -38 56.5 -61.5t79.5 -23.5t77 23.5t53 61.5q18 39 26.5 91t8.5 127q0 82 -9 135.5t-29 91.5t-58 61.5t-79 23.5zM191 811h106l76 -102h-55z" />
    <glyph glyph-name="Oacute" unicode="&#xd3;" horiz-adv-x="632" 
d="M315 684q138 0 210.5 -91.5t72.5 -264.5q0 -81 -19.5 -145t-56 -108.5t-89 -68t-118.5 -23.5q-67 0 -119.5 23.5t-88.5 68.5t-55 110t-19 148q0 82 19 147.5t55 110.5t88.5 69t119.5 24zM310 641q-42 0 -76.5 -23t-52.5 -62t-26.5 -91t-8.5 -130q0 -79 9 -132t29 -92
q19 -38 56.5 -61.5t79.5 -23.5t77 23.5t53 61.5q18 39 26.5 91t8.5 127q0 82 -9 135.5t-29 91.5t-58 61.5t-79 23.5zM334 811h106l-127 -102h-55z" />
    <glyph glyph-name="Ocircumflex" unicode="&#xd4;" horiz-adv-x="632" 
d="M315 684q138 0 210.5 -91.5t72.5 -264.5q0 -81 -19.5 -145t-56 -108.5t-89 -68t-118.5 -23.5q-67 0 -119.5 23.5t-88.5 68.5t-55 110t-19 148q0 82 19 147.5t55 110.5t88.5 69t119.5 24zM310 641q-42 0 -76.5 -23t-52.5 -62t-26.5 -91t-8.5 -130q0 -79 9 -132t29 -92
q19 -38 56.5 -61.5t79.5 -23.5t77 23.5t53 61.5q18 39 26.5 91t8.5 127q0 82 -9 135.5t-29 91.5t-58 61.5t-79 23.5zM281 811h68l89 -102h-84l-53 60l-52 -60h-55z" />
    <glyph glyph-name="Otilde" unicode="&#xd5;" horiz-adv-x="632" 
d="M315 684q138 0 210.5 -91.5t72.5 -264.5q0 -81 -19.5 -145t-56 -108.5t-89 -68t-118.5 -23.5q-67 0 -119.5 23.5t-88.5 68.5t-55 110t-19 148q0 82 19 147.5t55 110.5t88.5 69t119.5 24zM310 641q-42 0 -76.5 -23t-52.5 -62t-26.5 -91t-8.5 -130q0 -79 9 -132t29 -92
q19 -38 56.5 -61.5t79.5 -23.5t77 23.5t53 61.5q18 39 26.5 91t8.5 127q0 82 -9 135.5t-29 91.5t-58 61.5t-79 23.5zM165 711q0 22 7 41t19.5 33.5t29 23t36.5 8.5q12 0 21 -1.5t19.5 -5.5t24.5 -11.5t35 -19.5q25 -15 40 -15t23 10t10 34h38v-14q0 -37 -23.5 -63.5
t-57.5 -26.5q-19 0 -41.5 7t-54.5 23q-22 11 -31.5 14.5t-18.5 3.5q-34 0 -39 -41h-37z" />
    <glyph glyph-name="Odieresis" unicode="&#xd6;" horiz-adv-x="632" 
d="M315 684q138 0 210.5 -91.5t72.5 -264.5q0 -81 -19.5 -145t-56 -108.5t-89 -68t-118.5 -23.5q-67 0 -119.5 23.5t-88.5 68.5t-55 110t-19 148q0 82 19 147.5t55 110.5t88.5 69t119.5 24zM310 641q-42 0 -76.5 -23t-52.5 -62t-26.5 -91t-8.5 -130q0 -79 9 -132t29 -92
q19 -38 56.5 -61.5t79.5 -23.5t77 23.5t53 61.5q18 39 26.5 91t8.5 127q0 82 -9 135.5t-29 91.5t-58 61.5t-79 23.5zM406 811q20 0 34.5 -15t14.5 -35q0 -21 -15 -35.5t-35 -14.5q-21 0 -35.5 14.5t-14.5 35.5t14.5 35.5t36.5 14.5zM225 811q20 0 34.5 -15t14.5 -35
q0 -21 -14.5 -35.5t-35.5 -14.5t-35.5 14.5t-14.5 35.5t15 35.5t36 14.5z" />
    <glyph glyph-name="multiply" unicode="&#xd7;" horiz-adv-x="467" 
d="M53 195l137 136l-141 141l46 46l141 -141l136 137l46 -46l-136 -137l132 -133l-46 -46l-132 133l-137 -136z" />
    <glyph glyph-name="Oslash" unicode="&#xd8;" horiz-adv-x="632" 
d="M109 73q-76 94 -76 260q0 83 19 148t55 110t88.5 68.5t119.5 23.5q54 0 95.5 -13.5t79.5 -43.5l40 57h53l-61 -89q76 -94 76 -260q0 -83 -19 -148t-55 -110t-88.5 -69t-119.5 -24q-54 0 -95.5 14t-79.5 44l-40 -58h-53zM186 107q22 -37 57 -58.5t77 -21.5t77 23.5
t53 61.5q18 39 26.5 91.5t8.5 130.5q0 57 -5 101t-15 77zM445 560q-22 37 -57.5 58.5t-77.5 21.5t-76.5 -23t-52.5 -62q-19 -39 -27 -91t-8 -130q0 -58 5 -102t15 -77z" />
    <glyph glyph-name="Ugrave" unicode="&#xd9;" horiz-adv-x="630" 
d="M491 474q0 47 -5 79.5t-17.5 54t-33 35.5t-51.5 24h256q-32 -10 -52.5 -23.5t-32.5 -35.5t-17 -54.5t-5 -79.5v-217q0 -50 -1.5 -84.5t-5.5 -59t-10.5 -40.5t-16.5 -29q-49 -61 -173 -61q-66 0 -114 18t-74 52q-23 28 -32.5 76t-9.5 130v348l-73 60h250l-74 -60v-416
q0 -52 7 -82t24 -47q36 -36 110 -36q43 0 74.5 13t48.5 39q15 22 21.5 64t6.5 114v218zM197 811h106l76 -102h-55z" />
    <glyph glyph-name="Uacute" unicode="&#xda;" horiz-adv-x="630" 
d="M491 474q0 47 -5 79.5t-17.5 54t-33 35.5t-51.5 24h256q-32 -10 -52.5 -23.5t-32.5 -35.5t-17 -54.5t-5 -79.5v-217q0 -50 -1.5 -84.5t-5.5 -59t-10.5 -40.5t-16.5 -29q-49 -61 -173 -61q-66 0 -114 18t-74 52q-23 28 -32.5 76t-9.5 130v348l-73 60h250l-74 -60v-416
q0 -52 7 -82t24 -47q36 -36 110 -36q43 0 74.5 13t48.5 39q15 22 21.5 64t6.5 114v218zM350 811h106l-127 -102h-55z" />
    <glyph glyph-name="Ucircumflex" unicode="&#xdb;" horiz-adv-x="630" 
d="M491 474q0 47 -5 79.5t-17.5 54t-33 35.5t-51.5 24h256q-32 -10 -52.5 -23.5t-32.5 -35.5t-17 -54.5t-5 -79.5v-217q0 -50 -1.5 -84.5t-5.5 -59t-10.5 -40.5t-16.5 -29q-49 -61 -173 -61q-66 0 -114 18t-74 52q-23 28 -32.5 76t-9.5 130v348l-73 60h250l-74 -60v-416
q0 -52 7 -82t24 -47q36 -36 110 -36q43 0 74.5 13t48.5 39q15 22 21.5 64t6.5 114v218zM297 811h68l89 -102h-84l-53 60l-52 -60h-55z" />
    <glyph glyph-name="Udieresis" unicode="&#xdc;" horiz-adv-x="630" 
d="M491 474q0 47 -5 79.5t-17.5 54t-33 35.5t-51.5 24h256q-32 -10 -52.5 -23.5t-32.5 -35.5t-17 -54.5t-5 -79.5v-217q0 -50 -1.5 -84.5t-5.5 -59t-10.5 -40.5t-16.5 -29q-49 -61 -173 -61q-66 0 -114 18t-74 52q-23 28 -32.5 76t-9.5 130v348l-73 60h250l-74 -60v-416
q0 -52 7 -82t24 -47q36 -36 110 -36q43 0 74.5 13t48.5 39q15 22 21.5 64t6.5 114v218zM422 811q20 0 34.5 -15t14.5 -35q0 -21 -15 -35.5t-35 -14.5q-21 0 -35.5 14.5t-14.5 35.5t14.5 35.5t36.5 14.5zM241 811q20 0 34.5 -15t14.5 -35q0 -21 -14.5 -35.5t-35.5 -14.5
t-35.5 14.5t-14.5 35.5t15 35.5t36 14.5z" />
    <glyph glyph-name="Yacute" unicode="&#xdd;" horiz-adv-x="653" 
d="M275 60v220l-124 192q-30 46 -49 75t-36 49t-34.5 35.5t-44.5 35.5h268l-73 -63l179 -272l141 230q25 42 36 68.5t11 47.5q0 15 -10.5 29.5t-33.5 32.5q30 5 66 14.5t71.5 21.5t67 25.5t52.5 25.5l-40.5 -40.5t-32 -33.5t-27 -31t-26 -34t-29.5 -42.5t-37 -55.5
l-192 -310v-220l73 -60h-249zM374 811h106l-127 -102h-55z" />
    <glyph glyph-name="Thorn" unicode="&#xde;" horiz-adv-x="572" 
d="M100 60v107q-5 2 -8 2h-8q-24 0 -46 -4.5t-48 -15.5q15 32 42.5 49.5t59.5 15.5q6 0 8 -1v394l-73 60h249l-73 -60v-87h64q78 0 128.5 -10t82.5 -31q80 -51 80 -143q0 -43 -20 -80t-55 -57q-35 -21 -86.5 -31.5t-115.5 -10.5q-17 0 -33 0.5t-45 2.5v-100l73 -60h-249z
M203 207q17 -2 29.5 -2.5t27.5 -0.5q72 0 119 21q35 16 50.5 42.5t15.5 69.5q0 69 -43 104.5t-124 35.5q-18 0 -33.5 -1t-41.5 -3v-266z" />
    <glyph glyph-name="germandbls" unicode="&#xdf;" horiz-adv-x="1119" 
d="M519 661q-7 -9 -18 -28t-23.5 -44t-25 -52t-21.5 -51q-6 26 -11 42t-13 30q-19 38 -57.5 60.5t-83.5 22.5q-57 0 -92 -31.5t-35 -80.5q0 -66 65 -96q12 -6 20 -9.5t22.5 -8t40 -10.5t71.5 -17q51 -12 83.5 -28.5t55.5 -41.5q49 -53 49 -127q0 -44 -18 -82t-49.5 -66
t-75 -44t-93.5 -16q-18 0 -34.5 1.5t-37 5.5t-47.5 11.5t-64 19.5q-33 10 -56 10q-16 0 -32.5 -6.5t-45.5 -24.5q13 19 28 47t28.5 57t24.5 55.5t16 43.5q8 -36 14 -53t15 -33q25 -42 75.5 -66.5t114.5 -24.5q69 0 109.5 33t40.5 88q0 33 -18.5 63t-50.5 49q-13 7 -26 12.5
t-30 10.5t-41 10.5t-60 12.5q-52 11 -84.5 25t-53.5 36q-48 49 -48 126q0 43 15.5 78t43 60.5t66.5 39.5t86 14q35 0 67 -6t77 -20q21 -7 33.5 -9.5t20.5 -2.5q13 0 26.5 3.5t36.5 11.5zM1079 661q-7 -9 -18 -28t-23.5 -44t-25 -52t-21.5 -51q-6 26 -11 42t-13 30
q-20 38 -58 60.5t-83 22.5q-57 0 -92 -31.5t-35 -80.5q0 -66 65 -96q12 -6 20 -9.5t22.5 -8t40 -10.5t71.5 -17q51 -12 83.5 -28.5t55.5 -41.5q49 -53 49 -127q0 -44 -18 -82t-49.5 -66t-75 -44t-93.5 -16q-18 0 -34.5 1.5t-37 5.5t-47.5 11.5t-64 19.5q-33 10 -56 10
q-16 0 -32.5 -6.5t-45.5 -24.5q13 19 28 47t28.5 57t24.5 55.5t16 43.5q8 -36 14 -53t15 -33q25 -42 75.5 -66.5t113.5 -24.5q69 0 110 33t41 88q0 33 -18.5 63t-50.5 49q-13 7 -26 12.5t-30 10.5t-41 10.5t-60 12.5q-52 11 -84.5 25t-53.5 36q-48 49 -48 126q0 43 15.5 78
t43 60.5t66.5 39.5t86 14q35 0 66.5 -6t76.5 -20q21 -7 33.5 -9.5t21.5 -2.5q13 0 26.5 3.5t36.5 11.5z" />
    <glyph glyph-name="agrave" unicode="&#xe0;" horiz-adv-x="690" 
d="M-27 0q34 15 63 40.5t54 63.5t47 89t42 118q-20 14 -36.5 20t-43.5 9q6 9 13.5 21.5t14 24.5t11 22t5.5 14q8 -11 13.5 -17t18.5 -17l26 -23l90 242l-55 60h239l-55 -60l88 -235q25 16 42.5 31t32.5 33q3 -11 8 -25t11 -28t12 -26.5t11 -19.5q-13 1 -19 1h-11
q-20 0 -35 -3.5t-32 -12.5l97 -262l78 -60h-262l71 60l-72 189l-35 -35q-9 -10 -19.5 -22t-19.5 -24t-16.5 -22.5t-11.5 -17.5q-34 55 -63 93.5t-55 64.5l-28 -84t-14.5 -46.5t-5 -25t-0.5 -20.5q0 -14 2 -25.5t8 -22.5t16 -23.5t26 -28.5q2 -3 9 -10h-260zM375 254
q19 24 46 48l-98 258l-85 -225q14 -15 25.5 -28.5t22 -27t22 -29t25.5 -34.5l5 -8q1 2 6 7zM224 811h106l76 -102h-55z" />
    <glyph glyph-name="aacute" unicode="&#xe1;" horiz-adv-x="690" 
d="M-27 0q34 15 63 40.5t54 63.5t47 89t42 118q-20 14 -36.5 20t-43.5 9q6 9 13.5 21.5t14 24.5t11 22t5.5 14q8 -11 13.5 -17t18.5 -17l26 -23l90 242l-55 60h239l-55 -60l88 -235q25 16 42.5 31t32.5 33q3 -11 8 -25t11 -28t12 -26.5t11 -19.5q-13 1 -19 1h-11
q-20 0 -35 -3.5t-32 -12.5l97 -262l78 -60h-262l71 60l-72 189l-35 -35q-9 -10 -19.5 -22t-19.5 -24t-16.5 -22.5t-11.5 -17.5q-34 55 -63 93.5t-55 64.5l-28 -84t-14.5 -46.5t-5 -25t-0.5 -20.5q0 -14 2 -25.5t8 -22.5t16 -23.5t26 -28.5q2 -3 9 -10h-260zM375 254
q19 24 46 48l-98 258l-85 -225q14 -15 25.5 -28.5t22 -27t22 -29t25.5 -34.5l5 -8q1 2 6 7zM377 811h106l-127 -102h-55z" />
    <glyph glyph-name="acircumflex" unicode="&#xe2;" horiz-adv-x="690" 
d="M-27 0q34 15 63 40.5t54 63.5t47 89t42 118q-20 14 -36.5 20t-43.5 9q6 9 13.5 21.5t14 24.5t11 22t5.5 14q8 -11 13.5 -17t18.5 -17l26 -23l90 242l-55 60h239l-55 -60l88 -235q25 16 42.5 31t32.5 33q3 -11 8 -25t11 -28t12 -26.5t11 -19.5q-13 1 -19 1h-11
q-20 0 -35 -3.5t-32 -12.5l97 -262l78 -60h-262l71 60l-72 189l-35 -35q-9 -10 -19.5 -22t-19.5 -24t-16.5 -22.5t-11.5 -17.5q-34 55 -63 93.5t-55 64.5l-28 -84t-14.5 -46.5t-5 -25t-0.5 -20.5q0 -14 2 -25.5t8 -22.5t16 -23.5t26 -28.5q2 -3 9 -10h-260zM375 254
q19 24 46 48l-98 258l-85 -225q14 -15 25.5 -28.5t22 -27t22 -29t25.5 -34.5l5 -8q1 2 6 7zM324 811h68l89 -102h-84l-53 60l-52 -60h-55z" />
    <glyph glyph-name="atilde" unicode="&#xe3;" horiz-adv-x="690" 
d="M-27 0q34 15 63 40.5t54 63.5t47 89t42 118q-20 14 -36.5 20t-43.5 9q6 9 13.5 21.5t14 24.5t11 22t5.5 14q8 -11 13.5 -17t18.5 -17l26 -23l90 242l-55 60h239l-55 -60l88 -235q25 16 42.5 31t32.5 33q3 -11 8 -25t11 -28t12 -26.5t11 -19.5q-13 1 -19 1h-11
q-20 0 -35 -3.5t-32 -12.5l97 -262l78 -60h-262l71 60l-72 189l-35 -35q-9 -10 -19.5 -22t-19.5 -24t-16.5 -22.5t-11.5 -17.5q-34 55 -63 93.5t-55 64.5l-28 -84t-14.5 -46.5t-5 -25t-0.5 -20.5q0 -14 2 -25.5t8 -22.5t16 -23.5t26 -28.5q2 -3 9 -10h-260zM375 254
q19 24 46 48l-98 258l-85 -225q14 -15 25.5 -28.5t22 -27t22 -29t25.5 -34.5l5 -8q1 2 6 7zM208 711q0 22 7 41t19.5 33.5t29 23t36.5 8.5q12 0 21 -1.5t19.5 -5.5t24.5 -11.5t35 -19.5q25 -15 40 -15t23 10t10 34h38v-14q0 -37 -23.5 -63.5t-57.5 -26.5q-19 0 -41.5 7
t-54.5 23q-22 11 -31.5 14.5t-18.5 3.5q-34 0 -39 -41h-37z" />
    <glyph glyph-name="adieresis" unicode="&#xe4;" horiz-adv-x="690" 
d="M-27 0q34 15 63 40.5t54 63.5t47 89t42 118q-20 14 -36.5 20t-43.5 9q6 9 13.5 21.5t14 24.5t11 22t5.5 14q8 -11 13.5 -17t18.5 -17l26 -23l90 242l-55 60h239l-55 -60l88 -235q25 16 42.5 31t32.5 33q3 -11 8 -25t11 -28t12 -26.5t11 -19.5q-13 1 -19 1h-11
q-20 0 -35 -3.5t-32 -12.5l97 -262l78 -60h-262l71 60l-72 189l-35 -35q-9 -10 -19.5 -22t-19.5 -24t-16.5 -22.5t-11.5 -17.5q-34 55 -63 93.5t-55 64.5l-28 -84t-14.5 -46.5t-5 -25t-0.5 -20.5q0 -14 2 -25.5t8 -22.5t16 -23.5t26 -28.5q2 -3 9 -10h-260zM375 254
q19 24 46 48l-98 258l-85 -225q14 -15 25.5 -28.5t22 -27t22 -29t25.5 -34.5l5 -8q1 2 6 7zM449 811q20 0 34.5 -15t14.5 -35q0 -21 -15 -35.5t-35 -14.5q-21 0 -35.5 14.5t-14.5 35.5t14.5 35.5t36.5 14.5zM268 811q20 0 34.5 -15t14.5 -35q0 -21 -14.5 -35.5t-35.5 -14.5
t-35.5 14.5t-14.5 35.5t15 35.5t36 14.5z" />
    <glyph glyph-name="aring" unicode="&#xe5;" horiz-adv-x="690" 
d="M-27 0q34 15 63 40.5t54 63.5t47 89t42 118q-20 14 -36.5 20t-43.5 9q6 9 13.5 21.5t14 24.5t11 22t5.5 14q8 -11 13.5 -17t18.5 -17l26 -23l90 242l-55 60h239l-55 -60l88 -235q25 16 42.5 31t32.5 33q3 -11 8 -25t11 -28t12 -26.5t11 -19.5q-13 1 -19 1h-11
q-20 0 -35 -3.5t-32 -12.5l97 -262l78 -60h-262l71 60l-72 189l-35 -35q-9 -10 -19.5 -22t-19.5 -24t-16.5 -22.5t-11.5 -17.5q-34 55 -63 93.5t-55 64.5l-28 -84t-14.5 -46.5t-5 -25t-0.5 -20.5q0 -14 2 -25.5t8 -22.5t16 -23.5t26 -28.5q2 -3 9 -10h-260zM375 254
q19 24 46 48l-98 258l-85 -225q14 -15 25.5 -28.5t22 -27t22 -29t25.5 -34.5l5 -8q1 2 6 7zM361 835q30 0 51.5 -22t21.5 -53t-21.5 -52.5t-53.5 -21.5q-30 0 -52 21.5t-22 52.5q0 32 22 53.5t54 21.5zM360 794q-14 0 -24 -10t-10 -24t10 -24t24 -10t23.5 10t9.5 24t-9.5 24
t-23.5 10z" />
    <glyph glyph-name="ae" unicode="&#xe6;" horiz-adv-x="1025" 
d="M-14 0q30 13 56.5 31t53 45.5t55.5 67t65 95.5l52 81q-16 9 -30 14t-34 9l-5 2l52 70q13 -16 26.5 -30t22.5 -21l164 243l-74 60h607q-19 -23 -32 -40.5t-23.5 -35t-19 -37t-18.5 -46.5q-2 5 -4 9l-4 8q-14 31 -27.5 50.5t-32.5 30t-46 14.5t-67 4q-26 0 -48 -0.5
t-51 -2.5v-241h142l67 80v-203l-67 80h-142v-291q28 -2 42.5 -2.5t25.5 -0.5q54 0 95 8t64 24q19 13 35.5 34.5t38.5 61.5q6 -27 14 -49t19.5 -42.5t27.5 -39.5t39 -40h-578l73 60v201l-87 -111q-6 7 -16 19.5t-33 40.5q-12 15 -20.5 25t-17 19t-18.5 18t-24 22l-47 -70
q-25 -38 -38.5 -71.5t-13.5 -58.5q0 -33 18.5 -54t63.5 -40h-301zM521 327v290l-190 -282q18 -17 30.5 -29t23 -24t22 -26t27.5 -35z" />
    <glyph glyph-name="ccedilla" unicode="&#xe7;" horiz-adv-x="595" 
d="M274 -78q6 15 10.5 28t10.5 35q-45 5 -77 17t-63 35q-57 42 -89.5 119.5t-32.5 171.5q0 78 21.5 143t60.5 112.5t92.5 74t116.5 26.5q17 0 30.5 -1t28 -4t31 -8.5t39.5 -14.5q22 -8 36 -11.5t28 -3.5q18 0 31 5t36 21q-20 -35 -34.5 -61t-26 -49.5t-22 -47.5t-22.5 -54
q-5 38 -14 64.5t-23 50.5q-20 32 -55 51.5t-71 19.5q-35 0 -68.5 -19.5t-53.5 -51.5q-48 -77 -48 -222q0 -156 51 -238.5t148 -82.5q72 0 114.5 47.5t51.5 138.5q3 22 18 22q20 0 20 -34q0 -25 -8.5 -59t-20.5 -58q-45 -90 -172 -100l-8 -30q2 1 4.5 1h3.5q20 0 33 -18
t13 -47q0 -45 -27 -75t-69 -30q-54 0 -84 52q6 2 14 7t16.5 11t15.5 11.5t10 8.5q0 -23 9 -36t23 -13t25.5 20.5t11.5 47.5q0 35 -28 35q-18 0 -28 -16z" />
    <glyph glyph-name="egrave" unicode="&#xe8;" horiz-adv-x="603" 
d="M100 60v277q-34 1 -59.5 -8t-49.5 -29q11 42 37.5 61t71.5 19v227l-73 60h548q-19 -23 -32 -40.5t-23.5 -35t-19 -37t-18.5 -46.5q-2 3 -3.5 7.5t-4.5 9.5q-14 31 -27.5 50.5t-32.5 30t-45.5 14.5t-66.5 4q-26 0 -48 -0.5t-51 -2.5v-241h141l67 80v-203l-67 80h-141v-291
q28 -2 42 -2.5t26 -0.5q54 0 94.5 8t63.5 24q19 13 35.5 34.5t38.5 61.5q6 -27 14 -49t19.5 -42.5t27.5 -39.5t39 -40h-576zM176 811h106l76 -102h-55z" />
    <glyph glyph-name="eacute" unicode="&#xe9;" horiz-adv-x="603" 
d="M100 60v277q-34 1 -59.5 -8t-49.5 -29q11 42 37.5 61t71.5 19v227l-73 60h548q-19 -23 -32 -40.5t-23.5 -35t-19 -37t-18.5 -46.5q-2 3 -3.5 7.5t-4.5 9.5q-14 31 -27.5 50.5t-32.5 30t-45.5 14.5t-66.5 4q-26 0 -48 -0.5t-51 -2.5v-241h141l67 80v-203l-67 80h-141v-291
q28 -2 42 -2.5t26 -0.5q54 0 94.5 8t63.5 24q19 13 35.5 34.5t38.5 61.5q6 -27 14 -49t19.5 -42.5t27.5 -39.5t39 -40h-576zM329 811h106l-127 -102h-55z" />
    <glyph glyph-name="ecircumflex" unicode="&#xea;" horiz-adv-x="603" 
d="M100 60v277q-34 1 -59.5 -8t-49.5 -29q11 42 37.5 61t71.5 19v227l-73 60h548q-19 -23 -32 -40.5t-23.5 -35t-19 -37t-18.5 -46.5q-2 3 -3.5 7.5t-4.5 9.5q-14 31 -27.5 50.5t-32.5 30t-45.5 14.5t-66.5 4q-26 0 -48 -0.5t-51 -2.5v-241h141l67 80v-203l-67 80h-141v-291
q28 -2 42 -2.5t26 -0.5q54 0 94.5 8t63.5 24q19 13 35.5 34.5t38.5 61.5q6 -27 14 -49t19.5 -42.5t27.5 -39.5t39 -40h-576zM266 811h68l89 -102h-84l-53 60l-52 -60h-55z" />
    <glyph glyph-name="edieresis" unicode="&#xeb;" horiz-adv-x="603" 
d="M100 60v277q-34 1 -59.5 -8t-49.5 -29q11 42 37.5 61t71.5 19v227l-73 60h548q-19 -23 -32 -40.5t-23.5 -35t-19 -37t-18.5 -46.5q-2 3 -3.5 7.5t-4.5 9.5q-14 31 -27.5 50.5t-32.5 30t-45.5 14.5t-66.5 4q-26 0 -48 -0.5t-51 -2.5v-241h141l67 80v-203l-67 80h-141v-291
q28 -2 42 -2.5t26 -0.5q54 0 94.5 8t63.5 24q19 13 35.5 34.5t38.5 61.5q6 -27 14 -49t19.5 -42.5t27.5 -39.5t39 -40h-576zM391 811q20 0 34.5 -15t14.5 -35q0 -21 -15 -35.5t-35 -14.5q-21 0 -35.5 14.5t-14.5 35.5t14.5 35.5t36.5 14.5zM210 811q20 0 34.5 -15t14.5 -35
q0 -21 -14.5 -35.5t-35.5 -14.5t-35.5 14.5t-14.5 35.5t15 35.5t36 14.5z" />
    <glyph glyph-name="igrave" unicode="&#xec;" horiz-adv-x="303" 
d="M100 60v547l-73 60h249l-73 -60v-547l73 -60h-249zM16 811h106l76 -102h-55z" />
    <glyph glyph-name="iacute" unicode="&#xed;" horiz-adv-x="303" 
d="M100 60v547l-73 60h249l-73 -60v-547l73 -60h-249zM179 811h106l-127 -102h-55z" />
    <glyph glyph-name="icircumflex" unicode="&#xee;" horiz-adv-x="303" 
d="M100 60v547l-73 60h249l-73 -60v-547l73 -60h-249zM116 811h68l89 -102h-84l-53 60l-52 -60h-55z" />
    <glyph glyph-name="idieresis" unicode="&#xef;" horiz-adv-x="303" 
d="M235 811q20 0 34.5 -15t14.5 -35q0 -21 -14.5 -35.5t-35.5 -14.5t-35.5 14.5t-14.5 35.5t14.5 35.5t36.5 14.5zM69 811q20 0 34.5 -15t14.5 -35q0 -21 -14.5 -35.5t-35.5 -14.5t-35.5 14.5t-14.5 35.5t15 35.5t36 14.5zM100 60v547l-73 60h249l-73 -60v-547l73 -60h-249z
" />
    <glyph glyph-name="eth" unicode="&#xf0;" horiz-adv-x="614" 
d="M100 60v273h-67l-17 48h84v226l-73 60h223q79 0 132 -13.5t91 -44.5q54 -42 80.5 -110t26.5 -159q0 -102 -29 -174.5t-86 -112.5q-20 -15 -41 -25t-46.5 -16.5t-56.5 -9t-70 -2.5h-224zM203 333v-286q27 -2 38.5 -3t22.5 -1q52 0 88 18t62 56q26 39 39.5 97t13.5 128
q0 139 -51.5 210.5t-148.5 71.5q-11 0 -25 -1t-39 -3v-239h122l17 -48h-139z" />
    <glyph glyph-name="ntilde" unicode="&#xf1;" horiz-adv-x="610" 
d="M13 0q25 9 42 21.5t27 32t14 48.5t4 71v434l-73 60h269l-73 -60l248 -480v367q0 42 -4 71t-14 48.5t-27 32t-42 21.5h216q-26 -9 -42.5 -21.5t-26.5 -32t-14 -48.5t-4 -71v-494h-84l-287 556v-383q0 -42 4 -71t14 -48.5t26.5 -32t42.5 -21.5h-216zM154 711q0 22 7 41
t19.5 33.5t29 23t36.5 8.5q12 0 21 -1.5t19.5 -5.5t24.5 -11.5t35 -19.5q25 -15 40 -15t23 10t10 34h38v-14q0 -37 -23.5 -63.5t-57.5 -26.5q-19 0 -41.5 7t-54.5 23q-22 11 -31.5 14.5t-18.5 3.5q-34 0 -39 -41h-37z" />
    <glyph glyph-name="ograve" unicode="&#xf2;" horiz-adv-x="632" 
d="M315 684q138 0 210.5 -91.5t72.5 -264.5q0 -81 -19.5 -145t-56 -108.5t-89 -68t-118.5 -23.5q-67 0 -119.5 23.5t-88.5 68.5t-55 110t-19 148q0 82 19 147.5t55 110.5t88.5 69t119.5 24zM310 641q-42 0 -76.5 -23t-52.5 -62t-26.5 -91t-8.5 -130q0 -79 9 -132t29 -92
q19 -38 56.5 -61.5t79.5 -23.5t77 23.5t53 61.5q18 39 26.5 91t8.5 127q0 82 -9 135.5t-29 91.5t-58 61.5t-79 23.5zM191 811h106l76 -102h-55z" />
    <glyph glyph-name="oacute" unicode="&#xf3;" horiz-adv-x="632" 
d="M315 684q138 0 210.5 -91.5t72.5 -264.5q0 -81 -19.5 -145t-56 -108.5t-89 -68t-118.5 -23.5q-67 0 -119.5 23.5t-88.5 68.5t-55 110t-19 148q0 82 19 147.5t55 110.5t88.5 69t119.5 24zM310 641q-42 0 -76.5 -23t-52.5 -62t-26.5 -91t-8.5 -130q0 -79 9 -132t29 -92
q19 -38 56.5 -61.5t79.5 -23.5t77 23.5t53 61.5q18 39 26.5 91t8.5 127q0 82 -9 135.5t-29 91.5t-58 61.5t-79 23.5zM334 811h106l-127 -102h-55z" />
    <glyph glyph-name="ocircumflex" unicode="&#xf4;" horiz-adv-x="632" 
d="M315 684q138 0 210.5 -91.5t72.5 -264.5q0 -81 -19.5 -145t-56 -108.5t-89 -68t-118.5 -23.5q-67 0 -119.5 23.5t-88.5 68.5t-55 110t-19 148q0 82 19 147.5t55 110.5t88.5 69t119.5 24zM310 641q-42 0 -76.5 -23t-52.5 -62t-26.5 -91t-8.5 -130q0 -79 9 -132t29 -92
q19 -38 56.5 -61.5t79.5 -23.5t77 23.5t53 61.5q18 39 26.5 91t8.5 127q0 82 -9 135.5t-29 91.5t-58 61.5t-79 23.5zM281 811h68l89 -102h-84l-53 60l-52 -60h-55z" />
    <glyph glyph-name="otilde" unicode="&#xf5;" horiz-adv-x="632" 
d="M315 684q138 0 210.5 -91.5t72.5 -264.5q0 -81 -19.5 -145t-56 -108.5t-89 -68t-118.5 -23.5q-67 0 -119.5 23.5t-88.5 68.5t-55 110t-19 148q0 82 19 147.5t55 110.5t88.5 69t119.5 24zM310 641q-42 0 -76.5 -23t-52.5 -62t-26.5 -91t-8.5 -130q0 -79 9 -132t29 -92
q19 -38 56.5 -61.5t79.5 -23.5t77 23.5t53 61.5q18 39 26.5 91t8.5 127q0 82 -9 135.5t-29 91.5t-58 61.5t-79 23.5zM165 711q0 22 7 41t19.5 33.5t29 23t36.5 8.5q12 0 21 -1.5t19.5 -5.5t24.5 -11.5t35 -19.5q25 -15 40 -15t23 10t10 34h38v-14q0 -37 -23.5 -63.5
t-57.5 -26.5q-19 0 -41.5 7t-54.5 23q-22 11 -31.5 14.5t-18.5 3.5q-34 0 -39 -41h-37z" />
    <glyph glyph-name="odieresis" unicode="&#xf6;" horiz-adv-x="632" 
d="M315 684q138 0 210.5 -91.5t72.5 -264.5q0 -81 -19.5 -145t-56 -108.5t-89 -68t-118.5 -23.5q-67 0 -119.5 23.5t-88.5 68.5t-55 110t-19 148q0 82 19 147.5t55 110.5t88.5 69t119.5 24zM310 641q-42 0 -76.5 -23t-52.5 -62t-26.5 -91t-8.5 -130q0 -79 9 -132t29 -92
q19 -38 56.5 -61.5t79.5 -23.5t77 23.5t53 61.5q18 39 26.5 91t8.5 127q0 82 -9 135.5t-29 91.5t-58 61.5t-79 23.5zM406 811q20 0 34.5 -15t14.5 -35q0 -21 -15 -35.5t-35 -14.5q-21 0 -35.5 14.5t-14.5 35.5t14.5 35.5t36.5 14.5zM225 811q20 0 34.5 -15t14.5 -35
q0 -21 -14.5 -35.5t-35.5 -14.5t-35.5 14.5t-14.5 35.5t15 35.5t36 14.5z" />
    <glyph glyph-name="divide" unicode="&#xf7;" horiz-adv-x="467" 
d="M22 366h423v-65h-423v65zM232 545q22 0 37.5 -16t15.5 -38q0 -23 -15.5 -38.5t-38.5 -15.5t-38.5 15.5t-15.5 38.5t16 38.5t39 15.5zM233 230q22 0 37.5 -16t15.5 -38q0 -23 -15.5 -38.5t-38.5 -15.5t-38.5 15.5t-15.5 38.5t16 38.5t39 15.5z" />
    <glyph glyph-name="oslash" unicode="&#xf8;" horiz-adv-x="632" 
d="M109 73q-76 94 -76 260q0 83 19 148t55 110t88.5 68.5t119.5 23.5q54 0 95.5 -13.5t79.5 -43.5l40 57h53l-61 -89q76 -94 76 -260q0 -83 -19 -148t-55 -110t-88.5 -69t-119.5 -24q-54 0 -95.5 14t-79.5 44l-40 -58h-53zM186 107q22 -37 57 -58.5t77 -21.5t77 23.5
t53 61.5q18 39 26.5 91.5t8.5 130.5q0 57 -5 101t-15 77zM445 560q-22 37 -57.5 58.5t-77.5 21.5t-76.5 -23t-52.5 -62q-19 -39 -27 -91t-8 -130q0 -58 5 -102t15 -77z" />
    <glyph glyph-name="ugrave" unicode="&#xf9;" horiz-adv-x="630" 
d="M491 474q0 47 -5 79.5t-17.5 54t-33 35.5t-51.5 24h256q-32 -10 -52.5 -23.5t-32.5 -35.5t-17 -54.5t-5 -79.5v-217q0 -50 -1.5 -84.5t-5.5 -59t-10.5 -40.5t-16.5 -29q-49 -61 -173 -61q-66 0 -114 18t-74 52q-23 28 -32.5 76t-9.5 130v348l-73 60h250l-74 -60v-416
q0 -52 7 -82t24 -47q36 -36 110 -36q43 0 74.5 13t48.5 39q15 22 21.5 64t6.5 114v218zM197 811h106l76 -102h-55z" />
    <glyph glyph-name="uacute" unicode="&#xfa;" horiz-adv-x="630" 
d="M491 474q0 47 -5 79.5t-17.5 54t-33 35.5t-51.5 24h256q-32 -10 -52.5 -23.5t-32.5 -35.5t-17 -54.5t-5 -79.5v-217q0 -50 -1.5 -84.5t-5.5 -59t-10.5 -40.5t-16.5 -29q-49 -61 -173 -61q-66 0 -114 18t-74 52q-23 28 -32.5 76t-9.5 130v348l-73 60h250l-74 -60v-416
q0 -52 7 -82t24 -47q36 -36 110 -36q43 0 74.5 13t48.5 39q15 22 21.5 64t6.5 114v218zM350 811h106l-127 -102h-55z" />
    <glyph glyph-name="ucircumflex" unicode="&#xfb;" horiz-adv-x="630" 
d="M491 474q0 47 -5 79.5t-17.5 54t-33 35.5t-51.5 24h256q-32 -10 -52.5 -23.5t-32.5 -35.5t-17 -54.5t-5 -79.5v-217q0 -50 -1.5 -84.5t-5.5 -59t-10.5 -40.5t-16.5 -29q-49 -61 -173 -61q-66 0 -114 18t-74 52q-23 28 -32.5 76t-9.5 130v348l-73 60h250l-74 -60v-416
q0 -52 7 -82t24 -47q36 -36 110 -36q43 0 74.5 13t48.5 39q15 22 21.5 64t6.5 114v218zM297 811h68l89 -102h-84l-53 60l-52 -60h-55z" />
    <glyph glyph-name="udieresis" unicode="&#xfc;" horiz-adv-x="630" 
d="M491 474q0 47 -5 79.5t-17.5 54t-33 35.5t-51.5 24h256q-32 -10 -52.5 -23.5t-32.5 -35.5t-17 -54.5t-5 -79.5v-217q0 -50 -1.5 -84.5t-5.5 -59t-10.5 -40.5t-16.5 -29q-49 -61 -173 -61q-66 0 -114 18t-74 52q-23 28 -32.5 76t-9.5 130v348l-73 60h250l-74 -60v-416
q0 -52 7 -82t24 -47q36 -36 110 -36q43 0 74.5 13t48.5 39q15 22 21.5 64t6.5 114v218zM422 811q20 0 34.5 -15t14.5 -35q0 -21 -15 -35.5t-35 -14.5q-21 0 -35.5 14.5t-14.5 35.5t14.5 35.5t36.5 14.5zM241 811q20 0 34.5 -15t14.5 -35q0 -21 -14.5 -35.5t-35.5 -14.5
t-35.5 14.5t-14.5 35.5t15 35.5t36 14.5z" />
    <glyph glyph-name="yacute" unicode="&#xfd;" horiz-adv-x="653" 
d="M275 60v220l-124 192q-30 46 -49 75t-36 49t-34.5 35.5t-44.5 35.5h268l-73 -63l179 -272l141 230q25 42 36 68.5t11 47.5q0 15 -10.5 29.5t-33.5 32.5q30 5 66 14.5t71.5 21.5t67 25.5t52.5 25.5l-40.5 -40.5t-32 -33.5t-27 -31t-26 -34t-29.5 -42.5t-37 -55.5
l-192 -310v-220l73 -60h-249zM374 811h106l-127 -102h-55z" />
    <glyph glyph-name="thorn" unicode="&#xfe;" horiz-adv-x="572" 
d="M100 60v107q-5 2 -8 2h-8q-24 0 -46 -4.5t-48 -15.5q15 32 42.5 49.5t59.5 15.5q6 0 8 -1v394l-73 60h249l-73 -60v-87h64q78 0 128.5 -10t82.5 -31q80 -51 80 -143q0 -43 -20 -80t-55 -57q-35 -21 -86.5 -31.5t-115.5 -10.5q-17 0 -33 0.5t-45 2.5v-100l73 -60h-249z
M203 207q17 -2 29.5 -2.5t27.5 -0.5q72 0 119 21q35 16 50.5 42.5t15.5 69.5q0 69 -43 104.5t-124 35.5q-18 0 -33.5 -1t-41.5 -3v-266z" />
    <glyph glyph-name="ydieresis" unicode="&#xff;" horiz-adv-x="653" 
d="M275 60v220l-124 192q-30 46 -49 75t-36 49t-34.5 35.5t-44.5 35.5h268l-73 -63l179 -272l141 230q25 42 36 68.5t11 47.5q0 15 -10.5 29.5t-33.5 32.5q30 5 66 14.5t71.5 21.5t67 25.5t52.5 25.5l-40.5 -40.5t-32 -33.5t-27 -31t-26 -34t-29.5 -42.5t-37 -55.5
l-192 -310v-220l73 -60h-249zM416 811q20 0 34.5 -15t14.5 -35q0 -21 -15 -35.5t-35 -14.5q-21 0 -35.5 14.5t-14.5 35.5t14.5 35.5t36.5 14.5zM235 811q20 0 34.5 -15t14.5 -35q0 -21 -14.5 -35.5t-35.5 -14.5t-35.5 14.5t-14.5 35.5t15 35.5t36 14.5z" />
    <glyph glyph-name="Amacron" unicode="&#x100;" horiz-adv-x="690" 
d="M-27 0q34 15 63 40.5t54 63.5t47 89t42 118q-20 14 -36.5 20t-43.5 9q6 9 13.5 21.5t14 24.5t11 22t5.5 14q8 -11 13.5 -17t18.5 -17l26 -23l90 242l-55 60h239l-55 -60l88 -235q25 16 42.5 31t32.5 33q3 -11 8 -25t11 -28t12 -26.5t11 -19.5q-13 1 -19 1h-11
q-20 0 -35 -3.5t-32 -12.5l97 -262l78 -60h-262l71 60l-72 189l-35 -35q-9 -10 -19.5 -22t-19.5 -24t-16.5 -22.5t-11.5 -17.5q-34 55 -63 93.5t-55 64.5l-28 -84t-14.5 -46.5t-5 -25t-0.5 -20.5q0 -14 2 -25.5t8 -22.5t16 -23.5t26 -28.5q2 -3 9 -10h-260zM375 254
q19 24 46 48l-98 258l-85 -225q14 -15 25.5 -28.5t22 -27t22 -29t25.5 -34.5l5 -8q1 2 6 7zM218 774h281v-51h-281v51z" />
    <glyph glyph-name="amacron" unicode="&#x101;" horiz-adv-x="690" 
d="M-27 0q34 15 63 40.5t54 63.5t47 89t42 118q-20 14 -36.5 20t-43.5 9q6 9 13.5 21.5t14 24.5t11 22t5.5 14q8 -11 13.5 -17t18.5 -17l26 -23l90 242l-55 60h239l-55 -60l88 -235q25 16 42.5 31t32.5 33q3 -11 8 -25t11 -28t12 -26.5t11 -19.5q-13 1 -19 1h-11
q-20 0 -35 -3.5t-32 -12.5l97 -262l78 -60h-262l71 60l-72 189l-35 -35q-9 -10 -19.5 -22t-19.5 -24t-16.5 -22.5t-11.5 -17.5q-34 55 -63 93.5t-55 64.5l-28 -84t-14.5 -46.5t-5 -25t-0.5 -20.5q0 -14 2 -25.5t8 -22.5t16 -23.5t26 -28.5q2 -3 9 -10h-260zM375 254
q19 24 46 48l-98 258l-85 -225q14 -15 25.5 -28.5t22 -27t22 -29t25.5 -34.5l5 -8q1 2 6 7zM218 774h281v-51h-281v51z" />
    <glyph glyph-name="Abreve" unicode="&#x102;" horiz-adv-x="690" 
d="M-27 0q34 15 63 40.5t54 63.5t47 89t42 118q-20 14 -36.5 20t-43.5 9q6 9 13.5 21.5t14 24.5t11 22t5.5 14q8 -11 13.5 -17t18.5 -17l26 -23l90 242l-55 60h239l-55 -60l88 -235q25 16 42.5 31t32.5 33q3 -11 8 -25t11 -28t12 -26.5t11 -19.5q-13 1 -19 1h-11
q-20 0 -35 -3.5t-32 -12.5l97 -262l78 -60h-262l71 60l-72 189l-35 -35q-9 -10 -19.5 -22t-19.5 -24t-16.5 -22.5t-11.5 -17.5q-34 55 -63 93.5t-55 64.5l-28 -84t-14.5 -46.5t-5 -25t-0.5 -20.5q0 -14 2 -25.5t8 -22.5t16 -23.5t26 -28.5q2 -3 9 -10h-260zM375 254
q19 24 46 48l-98 258l-85 -225q14 -15 25.5 -28.5t22 -27t22 -29t25.5 -34.5l5 -8q1 2 6 7zM211 821h37q2 -14 5 -21.5t8 -12.5q11 -14 39.5 -22.5t60.5 -8.5t59.5 8t38.5 22q10 12 12 35h35v-2q0 -55 -40.5 -87.5t-107.5 -32.5q-31 0 -58 9t-46.5 24t-31 36t-11.5 45v8z
" />
    <glyph glyph-name="abreve" unicode="&#x103;" horiz-adv-x="690" 
d="M-27 0q34 15 63 40.5t54 63.5t47 89t42 118q-20 14 -36.5 20t-43.5 9q6 9 13.5 21.5t14 24.5t11 22t5.5 14q8 -11 13.5 -17t18.5 -17l26 -23l90 242l-55 60h239l-55 -60l88 -235q25 16 42.5 31t32.5 33q3 -11 8 -25t11 -28t12 -26.5t11 -19.5q-13 1 -19 1h-11
q-20 0 -35 -3.5t-32 -12.5l97 -262l78 -60h-262l71 60l-72 189l-35 -35q-9 -10 -19.5 -22t-19.5 -24t-16.5 -22.5t-11.5 -17.5q-34 55 -63 93.5t-55 64.5l-28 -84t-14.5 -46.5t-5 -25t-0.5 -20.5q0 -14 2 -25.5t8 -22.5t16 -23.5t26 -28.5q2 -3 9 -10h-260zM375 254
q19 24 46 48l-98 258l-85 -225q14 -15 25.5 -28.5t22 -27t22 -29t25.5 -34.5l5 -8q1 2 6 7zM211 821h37q2 -14 5 -21.5t8 -12.5q11 -14 39.5 -22.5t60.5 -8.5t59.5 8t38.5 22q10 12 12 35h35v-2q0 -55 -40.5 -87.5t-107.5 -32.5q-31 0 -58 9t-46.5 24t-31 36t-11.5 45v8z
" />
    <glyph glyph-name="Aogonek" unicode="&#x104;" horiz-adv-x="690" 
d="M-27 0q34 15 63 40.5t54 63.5t47 89t42 118q-20 14 -36.5 20t-43.5 9q6 9 13.5 21.5t14 24.5t11 22t5.5 14q8 -11 13.5 -17t18.5 -17l26 -23l90 242l-55 60h239l-55 -60l88 -235q25 16 42.5 31t32.5 33q3 -11 8 -25t11 -28t12 -26.5t11 -19.5q-13 1 -19 1h-11
q-20 0 -35 -3.5t-32 -12.5l97 -262l78 -60h-194q-44 -28 -72 -62.5t-28 -64.5q0 -8 5 -14t15 -6q37 0 75 45q-10 -29 -11 -80q-19 -9 -37.5 -14t-38.5 -5q-34 0 -51.5 19t-17.5 50q0 41 26.5 72t66.5 60l71 60l-72 189l-35 -35q-9 -10 -19.5 -22t-19.5 -24t-16.5 -22.5
t-11.5 -17.5q-34 55 -63 93.5t-55 64.5l-28 -84t-14.5 -46.5t-5 -25t-0.5 -20.5q0 -14 2 -25.5t8 -22.5t16 -23.5t26 -28.5q2 -3 9 -10h-260zM375 254q19 24 46 48l-98 258l-85 -225q14 -15 25.5 -28.5t22 -27t22 -29t25.5 -34.5l5 -8q1 2 6 7z" />
    <glyph glyph-name="aogonek" unicode="&#x105;" horiz-adv-x="690" 
d="M-27 0q34 15 63 40.5t54 63.5t47 89t42 118q-20 14 -36.5 20t-43.5 9q6 9 13.5 21.5t14 24.5t11 22t5.5 14q8 -11 13.5 -17t18.5 -17l26 -23l90 242l-55 60h239l-55 -60l88 -235q25 16 42.5 31t32.5 33q3 -11 8 -25t11 -28t12 -26.5t11 -19.5q-13 1 -19 1h-11
q-20 0 -35 -3.5t-32 -12.5l97 -262l78 -60h-194q-44 -28 -72 -62.5t-28 -64.5q0 -8 5 -14t15 -6q37 0 75 45q-10 -29 -11 -80q-19 -9 -37.5 -14t-38.5 -5q-34 0 -51.5 19t-17.5 50q0 41 26.5 72t66.5 60l71 60l-72 189l-35 -35q-9 -10 -19.5 -22t-19.5 -24t-16.5 -22.5
t-11.5 -17.5q-34 55 -63 93.5t-55 64.5l-28 -84t-14.5 -46.5t-5 -25t-0.5 -20.5q0 -14 2 -25.5t8 -22.5t16 -23.5t26 -28.5q2 -3 9 -10h-260zM375 254q19 24 46 48l-98 258l-85 -225q14 -15 25.5 -28.5t22 -27t22 -29t25.5 -34.5l5 -8q1 2 6 7z" />
    <glyph glyph-name="Cacute" unicode="&#x106;" horiz-adv-x="595" 
d="M584 667q-20 -35 -34.5 -61t-26 -49.5t-22 -47.5t-22.5 -55q-5 38 -14 65t-23 51q-20 32 -55 51.5t-71 19.5q-35 0 -68.5 -19.5t-53.5 -51.5q-48 -77 -48 -222q0 -156 51 -238.5t148 -82.5q72 0 114.5 47t51.5 138q3 22 18 22q20 0 20 -34q0 -17 -5 -43t-13 -47
q-21 -63 -73.5 -95t-130.5 -32q-63 0 -117.5 22t-90.5 64q-42 48 -64 114t-22 144t21.5 143.5t60.5 113t92.5 74t116.5 26.5q17 0 30.5 -1t28 -4t31 -8.5t39.5 -14.5q22 -8 36 -11.5t28 -3.5q18 0 31 5t36 21zM365 811h106l-127 -102h-55z" />
    <glyph glyph-name="cacute" unicode="&#x107;" horiz-adv-x="595" 
d="M584 667q-20 -35 -34.5 -61t-26 -49.5t-22 -47.5t-22.5 -55q-5 38 -14 65t-23 51q-20 32 -55 51.5t-71 19.5q-35 0 -68.5 -19.5t-53.5 -51.5q-48 -77 -48 -222q0 -156 51 -238.5t148 -82.5q72 0 114.5 47t51.5 138q3 22 18 22q20 0 20 -34q0 -17 -5 -43t-13 -47
q-21 -63 -73.5 -95t-130.5 -32q-63 0 -117.5 22t-90.5 64q-42 48 -64 114t-22 144t21.5 143.5t60.5 113t92.5 74t116.5 26.5q17 0 30.5 -1t28 -4t31 -8.5t39.5 -14.5q22 -8 36 -11.5t28 -3.5q18 0 31 5t36 21zM365 811h106l-127 -102h-55z" />
    <glyph glyph-name="Ccircumflex" unicode="&#x108;" horiz-adv-x="595" 
d="M584 667q-20 -35 -34.5 -61t-26 -49.5t-22 -47.5t-22.5 -55q-5 38 -14 65t-23 51q-20 32 -55 51.5t-71 19.5q-35 0 -68.5 -19.5t-53.5 -51.5q-48 -77 -48 -222q0 -156 51 -238.5t148 -82.5q72 0 114.5 47t51.5 138q3 22 18 22q20 0 20 -34q0 -17 -5 -43t-13 -47
q-21 -63 -73.5 -95t-130.5 -32q-63 0 -117.5 22t-90.5 64q-42 48 -64 114t-22 144t21.5 143.5t60.5 113t92.5 74t116.5 26.5q17 0 30.5 -1t28 -4t31 -8.5t39.5 -14.5q22 -8 36 -11.5t28 -3.5q18 0 31 5t36 21zM282 811h68l89 -102h-84l-53 60l-52 -60h-55z" />
    <glyph glyph-name="ccircumflex" unicode="&#x109;" horiz-adv-x="595" 
d="M584 667q-20 -35 -34.5 -61t-26 -49.5t-22 -47.5t-22.5 -55q-5 38 -14 65t-23 51q-20 32 -55 51.5t-71 19.5q-35 0 -68.5 -19.5t-53.5 -51.5q-48 -77 -48 -222q0 -156 51 -238.5t148 -82.5q72 0 114.5 47t51.5 138q3 22 18 22q20 0 20 -34q0 -17 -5 -43t-13 -47
q-21 -63 -73.5 -95t-130.5 -32q-63 0 -117.5 22t-90.5 64q-42 48 -64 114t-22 144t21.5 143.5t60.5 113t92.5 74t116.5 26.5q17 0 30.5 -1t28 -4t31 -8.5t39.5 -14.5q22 -8 36 -11.5t28 -3.5q18 0 31 5t36 21zM282 811h68l89 -102h-84l-53 60l-52 -60h-55z" />
    <glyph glyph-name="Cdotaccent" unicode="&#x10a;" horiz-adv-x="595" 
d="M584 667q-20 -35 -34.5 -61t-26 -49.5t-22 -47.5t-22.5 -55q-5 38 -14 65t-23 51q-20 32 -55 51.5t-71 19.5q-35 0 -68.5 -19.5t-53.5 -51.5q-48 -77 -48 -222q0 -156 51 -238.5t148 -82.5q72 0 114.5 47t51.5 138q3 22 18 22q20 0 20 -34q0 -17 -5 -43t-13 -47
q-21 -63 -73.5 -95t-130.5 -32q-63 0 -117.5 22t-90.5 64q-42 48 -64 114t-22 144t21.5 143.5t60.5 113t92.5 74t116.5 26.5q17 0 30.5 -1t28 -4t31 -8.5t39.5 -14.5q22 -8 36 -11.5t28 -3.5q18 0 31 5t36 21zM317 811q20 0 34.5 -15t14.5 -35q0 -21 -14.5 -35.5
t-35.5 -14.5t-35.5 14.5t-14.5 35.5t15 35.5t36 14.5z" />
    <glyph glyph-name="cdotaccent" unicode="&#x10b;" horiz-adv-x="595" 
d="M584 667q-20 -35 -34.5 -61t-26 -49.5t-22 -47.5t-22.5 -55q-5 38 -14 65t-23 51q-20 32 -55 51.5t-71 19.5q-35 0 -68.5 -19.5t-53.5 -51.5q-48 -77 -48 -222q0 -156 51 -238.5t148 -82.5q72 0 114.5 47t51.5 138q3 22 18 22q20 0 20 -34q0 -17 -5 -43t-13 -47
q-21 -63 -73.5 -95t-130.5 -32q-63 0 -117.5 22t-90.5 64q-42 48 -64 114t-22 144t21.5 143.5t60.5 113t92.5 74t116.5 26.5q17 0 30.5 -1t28 -4t31 -8.5t39.5 -14.5q22 -8 36 -11.5t28 -3.5q18 0 31 5t36 21zM317 811q20 0 34.5 -15t14.5 -35q0 -21 -14.5 -35.5
t-35.5 -14.5t-35.5 14.5t-14.5 35.5t15 35.5t36 14.5z" />
    <glyph glyph-name="Ccaron" unicode="&#x10c;" horiz-adv-x="595" 
d="M584 667q-20 -35 -34.5 -61t-26 -49.5t-22 -47.5t-22.5 -55q-5 38 -14 65t-23 51q-20 32 -55 51.5t-71 19.5q-35 0 -68.5 -19.5t-53.5 -51.5q-48 -77 -48 -222q0 -156 51 -238.5t148 -82.5q72 0 114.5 47t51.5 138q3 22 18 22q20 0 20 -34q0 -17 -5 -43t-13 -47
q-21 -63 -73.5 -95t-130.5 -32q-63 0 -117.5 22t-90.5 64q-42 48 -64 114t-22 144t21.5 143.5t60.5 113t92.5 74t116.5 26.5q17 0 30.5 -1t28 -4t31 -8.5t39.5 -14.5q22 -8 36 -11.5t28 -3.5q18 0 31 5t36 21zM195 811h84l53 -60l52 60h55l-88 -102h-67z" />
    <glyph glyph-name="ccaron" unicode="&#x10d;" horiz-adv-x="595" 
d="M584 667q-20 -35 -34.5 -61t-26 -49.5t-22 -47.5t-22.5 -55q-5 38 -14 65t-23 51q-20 32 -55 51.5t-71 19.5q-35 0 -68.5 -19.5t-53.5 -51.5q-48 -77 -48 -222q0 -156 51 -238.5t148 -82.5q72 0 114.5 47t51.5 138q3 22 18 22q20 0 20 -34q0 -17 -5 -43t-13 -47
q-21 -63 -73.5 -95t-130.5 -32q-63 0 -117.5 22t-90.5 64q-42 48 -64 114t-22 144t21.5 143.5t60.5 113t92.5 74t116.5 26.5q17 0 30.5 -1t28 -4t31 -8.5t39.5 -14.5q22 -8 36 -11.5t28 -3.5q18 0 31 5t36 21zM195 811h84l53 -60l52 60h55l-88 -102h-67z" />
    <glyph glyph-name="Dcaron" unicode="&#x10e;" horiz-adv-x="614" 
d="M100 60v547l-73 60h223q80 0 132.5 -13.5t90.5 -44.5q54 -42 80.5 -110t26.5 -159q0 -102 -29 -174.5t-86 -112.5q-20 -15 -41 -25t-46.5 -16.5t-56.5 -9t-70 -2.5h-224zM203 47q28 -2 39.5 -3t21.5 -1q52 0 88 18t62 56q26 39 39.5 97t13.5 128q0 139 -51.5 210.5
t-148.5 71.5q-10 0 -24 -1t-40 -3v-573zM185 811h84l53 -60l52 60h55l-88 -102h-67z" />
    <glyph glyph-name="dcaron" unicode="&#x10f;" horiz-adv-x="614" 
d="M100 60v547l-73 60h223q80 0 132.5 -13.5t90.5 -44.5q54 -42 80.5 -110t26.5 -159q0 -102 -29 -174.5t-86 -112.5q-20 -15 -41 -25t-46.5 -16.5t-56.5 -9t-70 -2.5h-224zM203 47q28 -2 39.5 -3t21.5 -1q52 0 88 18t62 56q26 39 39.5 97t13.5 128q0 139 -51.5 210.5
t-148.5 71.5q-10 0 -24 -1t-40 -3v-573zM185 811h84l53 -60l52 60h55l-88 -102h-67z" />
    <glyph glyph-name="Dcroat" unicode="&#x110;" horiz-adv-x="614" 
d="M100 60v273h-67l-17 48h84v226l-73 60h223q79 0 132 -13.5t91 -44.5q54 -42 80.5 -110t26.5 -159q0 -102 -29 -174.5t-86 -112.5q-20 -15 -41 -25t-46.5 -16.5t-56.5 -9t-70 -2.5h-224zM203 333v-286q27 -2 38.5 -3t22.5 -1q52 0 88 18t62 56q26 39 39.5 97t13.5 128
q0 139 -51.5 210.5t-148.5 71.5q-11 0 -25 -1t-39 -3v-239h122l17 -48h-139z" />
    <glyph glyph-name="dcroat" unicode="&#x111;" horiz-adv-x="614" 
d="M100 60v273h-67l-17 48h84v226l-73 60h223q79 0 132 -13.5t91 -44.5q54 -42 80.5 -110t26.5 -159q0 -102 -29 -174.5t-86 -112.5q-20 -15 -41 -25t-46.5 -16.5t-56.5 -9t-70 -2.5h-224zM203 333v-286q27 -2 38.5 -3t22.5 -1q52 0 88 18t62 56q26 39 39.5 97t13.5 128
q0 139 -51.5 210.5t-148.5 71.5q-11 0 -25 -1t-39 -3v-239h122l17 -48h-139z" />
    <glyph glyph-name="Emacron" unicode="&#x112;" horiz-adv-x="603" 
d="M100 60v277q-34 1 -59.5 -8t-49.5 -29q11 42 37.5 61t71.5 19v227l-73 60h548q-19 -23 -32 -40.5t-23.5 -35t-19 -37t-18.5 -46.5q-2 3 -3.5 7.5t-4.5 9.5q-14 31 -27.5 50.5t-32.5 30t-45.5 14.5t-66.5 4q-26 0 -48 -0.5t-51 -2.5v-241h141l67 80v-203l-67 80h-141v-291
q28 -2 42 -2.5t26 -0.5q54 0 94.5 8t63.5 24q19 13 35.5 34.5t38.5 61.5q6 -27 14 -49t19.5 -42.5t27.5 -39.5t39 -40h-576zM160 774h281v-51h-281v51z" />
    <glyph glyph-name="emacron" unicode="&#x113;" horiz-adv-x="603" 
d="M100 60v277q-34 1 -59.5 -8t-49.5 -29q11 42 37.5 61t71.5 19v227l-73 60h548q-19 -23 -32 -40.5t-23.5 -35t-19 -37t-18.5 -46.5q-2 3 -3.5 7.5t-4.5 9.5q-14 31 -27.5 50.5t-32.5 30t-45.5 14.5t-66.5 4q-26 0 -48 -0.5t-51 -2.5v-241h141l67 80v-203l-67 80h-141v-291
q28 -2 42 -2.5t26 -0.5q54 0 94.5 8t63.5 24q19 13 35.5 34.5t38.5 61.5q6 -27 14 -49t19.5 -42.5t27.5 -39.5t39 -40h-576zM160 774h281v-51h-281v51z" />
    <glyph glyph-name="Ebreve" unicode="&#x114;" horiz-adv-x="603" 
d="M100 60v277q-34 1 -59.5 -8t-49.5 -29q11 42 37.5 61t71.5 19v227l-73 60h548q-19 -23 -32 -40.5t-23.5 -35t-19 -37t-18.5 -46.5q-2 3 -3.5 7.5t-4.5 9.5q-14 31 -27.5 50.5t-32.5 30t-45.5 14.5t-66.5 4q-26 0 -48 -0.5t-51 -2.5v-241h141l67 80v-203l-67 80h-141v-291
q28 -2 42 -2.5t26 -0.5q54 0 94.5 8t63.5 24q19 13 35.5 34.5t38.5 61.5q6 -27 14 -49t19.5 -42.5t27.5 -39.5t39 -40h-576zM153 821h37q2 -14 5 -21.5t8 -12.5q11 -14 39.5 -22.5t60.5 -8.5t59.5 8t38.5 22q10 12 12 35h35v-2q0 -55 -40.5 -87.5t-107.5 -32.5q-31 0 -58 9
t-46.5 24t-31 36t-11.5 45v8z" />
    <glyph glyph-name="ebreve" unicode="&#x115;" horiz-adv-x="603" 
d="M100 60v277q-34 1 -59.5 -8t-49.5 -29q11 42 37.5 61t71.5 19v227l-73 60h548q-19 -23 -32 -40.5t-23.5 -35t-19 -37t-18.5 -46.5q-2 3 -3.5 7.5t-4.5 9.5q-14 31 -27.5 50.5t-32.5 30t-45.5 14.5t-66.5 4q-26 0 -48 -0.5t-51 -2.5v-241h141l67 80v-203l-67 80h-141v-291
q28 -2 42 -2.5t26 -0.5q54 0 94.5 8t63.5 24q19 13 35.5 34.5t38.5 61.5q6 -27 14 -49t19.5 -42.5t27.5 -39.5t39 -40h-576zM153 821h37q2 -14 5 -21.5t8 -12.5q11 -14 39.5 -22.5t60.5 -8.5t59.5 8t38.5 22q10 12 12 35h35v-2q0 -55 -40.5 -87.5t-107.5 -32.5q-31 0 -58 9
t-46.5 24t-31 36t-11.5 45v8z" />
    <glyph glyph-name="Edotaccent" unicode="&#x116;" horiz-adv-x="603" 
d="M100 60v277q-34 1 -59.5 -8t-49.5 -29q11 42 37.5 61t71.5 19v227l-73 60h548q-19 -23 -32 -40.5t-23.5 -35t-19 -37t-18.5 -46.5q-2 3 -3.5 7.5t-4.5 9.5q-14 31 -27.5 50.5t-32.5 30t-45.5 14.5t-66.5 4q-26 0 -48 -0.5t-51 -2.5v-241h141l67 80v-203l-67 80h-141v-291
q28 -2 42 -2.5t26 -0.5q54 0 94.5 8t63.5 24q19 13 35.5 34.5t38.5 61.5q6 -27 14 -49t19.5 -42.5t27.5 -39.5t39 -40h-576zM301 811q20 0 34.5 -15t14.5 -35q0 -21 -14.5 -35.5t-35.5 -14.5t-35.5 14.5t-14.5 35.5t15 35.5t36 14.5z" />
    <glyph glyph-name="edotaccent" unicode="&#x117;" horiz-adv-x="603" 
d="M100 60v277q-34 1 -59.5 -8t-49.5 -29q11 42 37.5 61t71.5 19v227l-73 60h548q-19 -23 -32 -40.5t-23.5 -35t-19 -37t-18.5 -46.5q-2 3 -3.5 7.5t-4.5 9.5q-14 31 -27.5 50.5t-32.5 30t-45.5 14.5t-66.5 4q-26 0 -48 -0.5t-51 -2.5v-241h141l67 80v-203l-67 80h-141v-291
q28 -2 42 -2.5t26 -0.5q54 0 94.5 8t63.5 24q19 13 35.5 34.5t38.5 61.5q6 -27 14 -49t19.5 -42.5t27.5 -39.5t39 -40h-576zM301 811q20 0 34.5 -15t14.5 -35q0 -21 -14.5 -35.5t-35.5 -14.5t-35.5 14.5t-14.5 35.5t15 35.5t36 14.5z" />
    <glyph glyph-name="Eogonek" unicode="&#x118;" horiz-adv-x="603" 
d="M100 60v277q-34 1 -59.5 -8t-49.5 -29q11 42 37.5 61t71.5 19v227l-73 60h548q-19 -23 -32 -40.5t-23.5 -35t-19 -37t-18.5 -46.5q-2 3 -3.5 7.5t-4.5 9.5q-14 31 -27.5 50.5t-32.5 30t-45.5 14.5t-66.5 4q-26 0 -48 -0.5t-51 -2.5v-241h141l67 80v-203l-67 80h-141v-291
q28 -2 42 -2.5t26 -0.5q54 0 94.5 8t63.5 24q19 13 35.5 34.5t38.5 61.5q6 -27 14 -49t19.5 -42.5t27.5 -39.5t39 -40h-112q-44 -28 -72 -62.5t-28 -64.5q0 -8 5 -14t15 -6q37 0 75 45q-10 -29 -11 -80q-19 -9 -37.5 -14t-38.5 -5q-34 0 -51.5 19t-17.5 50q0 41 26.5 72
t66.5 60h-396z" />
    <glyph glyph-name="eogonek" unicode="&#x119;" horiz-adv-x="603" 
d="M100 60v277q-34 1 -59.5 -8t-49.5 -29q11 42 37.5 61t71.5 19v227l-73 60h548q-19 -23 -32 -40.5t-23.5 -35t-19 -37t-18.5 -46.5q-2 3 -3.5 7.5t-4.5 9.5q-14 31 -27.5 50.5t-32.5 30t-45.5 14.5t-66.5 4q-26 0 -48 -0.5t-51 -2.5v-241h141l67 80v-203l-67 80h-141v-291
q28 -2 42 -2.5t26 -0.5q54 0 94.5 8t63.5 24q19 13 35.5 34.5t38.5 61.5q6 -27 14 -49t19.5 -42.5t27.5 -39.5t39 -40h-112q-44 -28 -72 -62.5t-28 -64.5q0 -8 5 -14t15 -6q37 0 75 45q-10 -29 -11 -80q-19 -9 -37.5 -14t-38.5 -5q-34 0 -51.5 19t-17.5 50q0 41 26.5 72
t66.5 60h-396z" />
    <glyph glyph-name="Ecaron" unicode="&#x11a;" horiz-adv-x="603" 
d="M100 60v277q-34 1 -59.5 -8t-49.5 -29q11 42 37.5 61t71.5 19v227l-73 60h548q-19 -23 -32 -40.5t-23.5 -35t-19 -37t-18.5 -46.5q-2 3 -3.5 7.5t-4.5 9.5q-14 31 -27.5 50.5t-32.5 30t-45.5 14.5t-66.5 4q-26 0 -48 -0.5t-51 -2.5v-241h141l67 80v-203l-67 80h-141v-291
q28 -2 42 -2.5t26 -0.5q54 0 94.5 8t63.5 24q19 13 35.5 34.5t38.5 61.5q6 -27 14 -49t19.5 -42.5t27.5 -39.5t39 -40h-576zM179 811h84l53 -60l52 60h55l-88 -102h-67z" />
    <glyph glyph-name="ecaron" unicode="&#x11b;" horiz-adv-x="603" 
d="M100 60v277q-34 1 -59.5 -8t-49.5 -29q11 42 37.5 61t71.5 19v227l-73 60h548q-19 -23 -32 -40.5t-23.5 -35t-19 -37t-18.5 -46.5q-2 3 -3.5 7.5t-4.5 9.5q-14 31 -27.5 50.5t-32.5 30t-45.5 14.5t-66.5 4q-26 0 -48 -0.5t-51 -2.5v-241h141l67 80v-203l-67 80h-141v-291
q28 -2 42 -2.5t26 -0.5q54 0 94.5 8t63.5 24q19 13 35.5 34.5t38.5 61.5q6 -27 14 -49t19.5 -42.5t27.5 -39.5t39 -40h-576zM179 811h84l53 -60l52 60h55l-88 -102h-67z" />
    <glyph glyph-name="Gcircumflex" unicode="&#x11c;" horiz-adv-x="679" 
d="M413 0q-43 0 -72.5 1t-51.5 3.5t-38.5 7t-32.5 11.5q-44 19 -78 50t-58 72t-36.5 90t-12.5 105q0 70 21 133.5t59 108.5q42 48 101 75t122 27q17 0 31.5 -1t32.5 -5t43 -10.5t63 -17.5q20 -7 44 -7q31 0 67 17l-97 -192q-19 172 -166 172q-39 0 -75.5 -15.5t-62.5 -44.5
q-36 -39 -53 -96.5t-17 -139.5q0 -301 249 -301h14t16.5 0.5t23 1.5t33.5 2v257h-145q-107 0 -107 70q0 23 14.5 39t35.5 16q14 0 24.5 -9.5t10.5 -23.5q0 -16 -11 -24q-2 -2 -4.5 -2.5t-13.5 -3.5q-7 0 -7 -6q0 -8 7.5 -10.5t27.5 -2.5h344l-73 -60v-227l73 -60h-245z
M318 811h68l89 -102h-84l-53 60l-52 -60h-55z" />
    <glyph glyph-name="gcircumflex" unicode="&#x11d;" horiz-adv-x="679" 
d="M413 0q-43 0 -72.5 1t-51.5 3.5t-38.5 7t-32.5 11.5q-44 19 -78 50t-58 72t-36.5 90t-12.5 105q0 70 21 133.5t59 108.5q42 48 101 75t122 27q17 0 31.5 -1t32.5 -5t43 -10.5t63 -17.5q20 -7 44 -7q31 0 67 17l-97 -192q-19 172 -166 172q-39 0 -75.5 -15.5t-62.5 -44.5
q-36 -39 -53 -96.5t-17 -139.5q0 -301 249 -301h14t16.5 0.5t23 1.5t33.5 2v257h-145q-107 0 -107 70q0 23 14.5 39t35.5 16q14 0 24.5 -9.5t10.5 -23.5q0 -16 -11 -24q-2 -2 -4.5 -2.5t-13.5 -3.5q-7 0 -7 -6q0 -8 7.5 -10.5t27.5 -2.5h344l-73 -60v-227l73 -60h-245z
M318 811h68l89 -102h-84l-53 60l-52 -60h-55z" />
    <glyph glyph-name="Gbreve" unicode="&#x11e;" horiz-adv-x="679" 
d="M413 0q-43 0 -72.5 1t-51.5 3.5t-38.5 7t-32.5 11.5q-44 19 -78 50t-58 72t-36.5 90t-12.5 105q0 70 21 133.5t59 108.5q42 48 101 75t122 27q17 0 31.5 -1t32.5 -5t43 -10.5t63 -17.5q20 -7 44 -7q31 0 67 17l-97 -192q-19 172 -166 172q-39 0 -75.5 -15.5t-62.5 -44.5
q-36 -39 -53 -96.5t-17 -139.5q0 -301 249 -301h14t16.5 0.5t23 1.5t33.5 2v257h-145q-107 0 -107 70q0 23 14.5 39t35.5 16q14 0 24.5 -9.5t10.5 -23.5q0 -16 -11 -24q-2 -2 -4.5 -2.5t-13.5 -3.5q-7 0 -7 -6q0 -8 7.5 -10.5t27.5 -2.5h344l-73 -60v-227l73 -60h-245z
M205 821h37q2 -14 5 -21.5t8 -12.5q11 -14 39.5 -22.5t60.5 -8.5t59.5 8t38.5 22q10 12 12 35h35v-2q0 -55 -40.5 -87.5t-107.5 -32.5q-31 0 -58 9t-46.5 24t-31 36t-11.5 45v8z" />
    <glyph glyph-name="gbreve" unicode="&#x11f;" horiz-adv-x="679" 
d="M413 0q-43 0 -72.5 1t-51.5 3.5t-38.5 7t-32.5 11.5q-44 19 -78 50t-58 72t-36.5 90t-12.5 105q0 70 21 133.5t59 108.5q42 48 101 75t122 27q17 0 31.5 -1t32.5 -5t43 -10.5t63 -17.5q20 -7 44 -7q31 0 67 17l-97 -192q-19 172 -166 172q-39 0 -75.5 -15.5t-62.5 -44.5
q-36 -39 -53 -96.5t-17 -139.5q0 -301 249 -301h14t16.5 0.5t23 1.5t33.5 2v257h-145q-107 0 -107 70q0 23 14.5 39t35.5 16q14 0 24.5 -9.5t10.5 -23.5q0 -16 -11 -24q-2 -2 -4.5 -2.5t-13.5 -3.5q-7 0 -7 -6q0 -8 7.5 -10.5t27.5 -2.5h344l-73 -60v-227l73 -60h-245z
M205 821h37q2 -14 5 -21.5t8 -12.5q11 -14 39.5 -22.5t60.5 -8.5t59.5 8t38.5 22q10 12 12 35h35v-2q0 -55 -40.5 -87.5t-107.5 -32.5q-31 0 -58 9t-46.5 24t-31 36t-11.5 45v8z" />
    <glyph glyph-name="Gdotaccent" unicode="&#x120;" horiz-adv-x="679" 
d="M413 0q-43 0 -72.5 1t-51.5 3.5t-38.5 7t-32.5 11.5q-44 19 -78 50t-58 72t-36.5 90t-12.5 105q0 70 21 133.5t59 108.5q42 48 101 75t122 27q17 0 31.5 -1t32.5 -5t43 -10.5t63 -17.5q20 -7 44 -7q31 0 67 17l-97 -192q-19 172 -166 172q-39 0 -75.5 -15.5t-62.5 -44.5
q-36 -39 -53 -96.5t-17 -139.5q0 -301 249 -301h14t16.5 0.5t23 1.5t33.5 2v257h-145q-107 0 -107 70q0 23 14.5 39t35.5 16q14 0 24.5 -9.5t10.5 -23.5q0 -16 -11 -24q-2 -2 -4.5 -2.5t-13.5 -3.5q-7 0 -7 -6q0 -8 7.5 -10.5t27.5 -2.5h344l-73 -60v-227l73 -60h-245z
M353 811q20 0 34.5 -15t14.5 -35q0 -21 -14.5 -35.5t-35.5 -14.5t-35.5 14.5t-14.5 35.5t15 35.5t36 14.5z" />
    <glyph glyph-name="gdotaccent" unicode="&#x121;" horiz-adv-x="679" 
d="M413 0q-43 0 -72.5 1t-51.5 3.5t-38.5 7t-32.5 11.5q-44 19 -78 50t-58 72t-36.5 90t-12.5 105q0 70 21 133.5t59 108.5q42 48 101 75t122 27q17 0 31.5 -1t32.5 -5t43 -10.5t63 -17.5q20 -7 44 -7q31 0 67 17l-97 -192q-19 172 -166 172q-39 0 -75.5 -15.5t-62.5 -44.5
q-36 -39 -53 -96.5t-17 -139.5q0 -301 249 -301h14t16.5 0.5t23 1.5t33.5 2v257h-145q-107 0 -107 70q0 23 14.5 39t35.5 16q14 0 24.5 -9.5t10.5 -23.5q0 -16 -11 -24q-2 -2 -4.5 -2.5t-13.5 -3.5q-7 0 -7 -6q0 -8 7.5 -10.5t27.5 -2.5h344l-73 -60v-227l73 -60h-245z
M353 811q20 0 34.5 -15t14.5 -35q0 -21 -14.5 -35.5t-35.5 -14.5t-35.5 14.5t-14.5 35.5t15 35.5t36 14.5z" />
    <glyph glyph-name="Gcommaaccent" unicode="&#x122;" horiz-adv-x="679" 
d="M413 0q-43 0 -72.5 1t-51.5 3.5t-38.5 7t-32.5 11.5q-44 19 -78 50t-58 72t-36.5 90t-12.5 105q0 70 21 133.5t59 108.5q42 48 101 75t122 27q17 0 31.5 -1t32.5 -5t43 -10.5t63 -17.5q20 -7 44 -7q31 0 67 17l-97 -192q-19 172 -166 172q-39 0 -75.5 -15.5t-62.5 -44.5
q-36 -39 -53 -96.5t-17 -139.5q0 -301 249 -301h14t16.5 0.5t23 1.5t33.5 2v257h-145q-107 0 -107 70q0 23 14.5 39t35.5 16q14 0 24.5 -9.5t10.5 -23.5q0 -16 -11 -24q-2 -2 -4.5 -2.5t-13.5 -3.5q-7 0 -7 -6q0 -8 7.5 -10.5t27.5 -2.5h344l-73 -60v-227l73 -60h-245z
M289 -205q15 12 24 27.5t9 35.5q0 34 -33 60l69 41q14 -14 22.5 -30.5t8.5 -36.5q0 -32 -17.5 -59t-59.5 -47z" />
    <glyph glyph-name="gcommaaccent" unicode="&#x123;" horiz-adv-x="679" 
d="M413 0q-43 0 -72.5 1t-51.5 3.5t-38.5 7t-32.5 11.5q-44 19 -78 50t-58 72t-36.5 90t-12.5 105q0 70 21 133.5t59 108.5q42 48 101 75t122 27q17 0 31.5 -1t32.5 -5t43 -10.5t63 -17.5q20 -7 44 -7q31 0 67 17l-97 -192q-19 172 -166 172q-39 0 -75.5 -15.5t-62.5 -44.5
q-36 -39 -53 -96.5t-17 -139.5q0 -301 249 -301h14t16.5 0.5t23 1.5t33.5 2v257h-145q-107 0 -107 70q0 23 14.5 39t35.5 16q14 0 24.5 -9.5t10.5 -23.5q0 -16 -11 -24q-2 -2 -4.5 -2.5t-13.5 -3.5q-7 0 -7 -6q0 -8 7.5 -10.5t27.5 -2.5h344l-73 -60v-227l73 -60h-245z
M289 -205q15 12 24 27.5t9 35.5q0 34 -33 60l69 41q14 -14 22.5 -30.5t8.5 -36.5q0 -32 -17.5 -59t-59.5 -47z" />
    <glyph glyph-name="Hcircumflex" unicode="&#x124;" horiz-adv-x="636" 
d="M100 60v260q-37 -3 -58.5 -13t-37.5 -31q15 42 37.5 64t58.5 30v237l-73 60h250l-74 -60v-237q58 -16 142 -16q26 0 46 1.5t42 4.5v247l-74 60h250l-73 -60v-547l73 -60h-250l74 60v253q-27 -3 -50 -4.5t-50 -1.5q-79 0 -130 13v-260l74 -60h-250zM283 811h68l89 -102
h-84l-53 60l-52 -60h-55z" />
    <glyph glyph-name="hcircumflex" unicode="&#x125;" horiz-adv-x="636" 
d="M100 60v260q-37 -3 -58.5 -13t-37.5 -31q15 42 37.5 64t58.5 30v237l-73 60h250l-74 -60v-237q58 -16 142 -16q26 0 46 1.5t42 4.5v247l-74 60h250l-73 -60v-547l73 -60h-250l74 60v253q-27 -3 -50 -4.5t-50 -1.5q-79 0 -130 13v-260l74 -60h-250zM283 811h68l89 -102
h-84l-53 60l-52 -60h-55z" />
    <glyph glyph-name="Hbar" unicode="&#x126;" horiz-adv-x="636" 
d="M100 60v260q-37 -3 -58.5 -13t-37.5 -31q15 42 37.5 64t58.5 30v93h-56l-17 48h73v96l-73 60h250l-74 -60v-96h230v96l-74 60h250l-73 -60v-96h57l17 -48h-74v-403l73 -60h-250l74 60v253q-27 -3 -50 -4.5t-50 -1.5q-79 0 -130 13v-260l74 -60h-250zM433 463h-230v-93
q58 -16 142 -16q26 0 46 1.5t42 4.5v103z" />
    <glyph glyph-name="hbar" unicode="&#x127;" horiz-adv-x="636" 
d="M100 60v260q-37 -3 -58.5 -13t-37.5 -31q15 42 37.5 64t58.5 30v93h-56l-17 48h73v96l-73 60h250l-74 -60v-96h230v96l-74 60h250l-73 -60v-96h57l17 -48h-74v-403l73 -60h-250l74 60v253q-27 -3 -50 -4.5t-50 -1.5q-79 0 -130 13v-260l74 -60h-250zM433 463h-230v-93
q58 -16 142 -16q26 0 46 1.5t42 4.5v103z" />
    <glyph glyph-name="Itilde" unicode="&#x128;" horiz-adv-x="303" 
d="M100 60v547l-73 60h249l-73 -60v-547l73 -60h-249zM0 711q0 22 7 41t19.5 33.5t29 23t36.5 8.5q12 0 21 -1.5t19.5 -5.5t24.5 -11.5t35 -19.5q25 -15 40 -15t23 10t10 34h38v-14q0 -37 -23.5 -63.5t-57.5 -26.5q-19 0 -41.5 7t-54.5 23q-22 11 -31.5 14.5t-18.5 3.5
q-34 0 -39 -41h-37z" />
    <glyph glyph-name="itilde" unicode="&#x129;" horiz-adv-x="303" 
d="M100 60v547l-73 60h249l-73 -60v-547l73 -60h-249zM0 711q0 22 7 41t19.5 33.5t29 23t36.5 8.5q12 0 21 -1.5t19.5 -5.5t24.5 -11.5t35 -19.5q25 -15 40 -15t23 10t10 34h38v-14q0 -37 -23.5 -63.5t-57.5 -26.5q-19 0 -41.5 7t-54.5 23q-22 11 -31.5 14.5t-18.5 3.5
q-34 0 -39 -41h-37z" />
    <glyph glyph-name="Imacron" unicode="&#x12a;" horiz-adv-x="303" 
d="M100 60v547l-73 60h249l-73 -60v-547l73 -60h-249zM10 774h281v-51h-281v51z" />
    <glyph glyph-name="imacron" unicode="&#x12b;" horiz-adv-x="303" 
d="M100 60v547l-73 60h249l-73 -60v-547l73 -60h-249zM10 774h281v-51h-281v51z" />
    <glyph glyph-name="Ibreve" unicode="&#x12c;" horiz-adv-x="303" 
d="M100 60v547l-73 60h249l-73 -60v-547l73 -60h-249zM4 821h37q2 -14 5 -21.5t8 -12.5q11 -14 39.5 -22.5t60.5 -8.5t59.5 8t38.5 22q10 12 12 35h35v-2q0 -55 -40.5 -87.5t-107.5 -32.5q-31 0 -58 9t-46.5 24t-31 36t-11.5 45v8z" />
    <glyph glyph-name="ibreve" unicode="&#x12d;" horiz-adv-x="303" 
d="M100 60v547l-73 60h249l-73 -60v-547l73 -60h-249zM4 821h37q2 -14 5 -21.5t8 -12.5q11 -14 39.5 -22.5t60.5 -8.5t59.5 8t38.5 22q10 12 12 35h35v-2q0 -55 -40.5 -87.5t-107.5 -32.5q-31 0 -58 9t-46.5 24t-31 36t-11.5 45v8z" />
    <glyph glyph-name="Iogonek" unicode="&#x12e;" horiz-adv-x="303" 
d="M100 60v547l-73 60h249l-73 -60v-547l73 -60h-44q-44 -28 -72 -62.5t-28 -64.5q0 -8 5 -14t15 -6q37 0 75 45q-10 -29 -11 -80q-19 -9 -37.5 -14t-38.5 -5q-34 0 -51.5 19t-17.5 50q0 41 26.5 72t66.5 60h-137z" />
    <glyph glyph-name="iogonek" unicode="&#x12f;" horiz-adv-x="303" 
d="M100 60v547l-73 60h249l-73 -60v-547l73 -60h-44q-44 -28 -72 -62.5t-28 -64.5q0 -8 5 -14t15 -6q37 0 75 45q-10 -29 -11 -80q-19 -9 -37.5 -14t-38.5 -5q-34 0 -51.5 19t-17.5 50q0 41 26.5 72t66.5 60h-137z" />
    <glyph glyph-name="Idotaccent" unicode="&#x130;" horiz-adv-x="303" 
d="M100 60v547l-73 60h249l-73 -60v-547l73 -60h-249zM151 811q20 0 34.5 -15t14.5 -35q0 -21 -14.5 -35.5t-35.5 -14.5t-35.5 14.5t-14.5 35.5t15 35.5t36 14.5z" />
    <glyph glyph-name="dotlessi" unicode="&#x131;" horiz-adv-x="303" 
d="M100 60v547l-73 60h249l-73 -60v-547l73 -60h-249z" />
    <glyph glyph-name="Jcircumflex" unicode="&#x134;" horiz-adv-x="518" 
d="M129 277q-5 -26 -7 -53t-2 -50q0 -69 28 -108.5t77 -39.5q45 0 69 37t24 106v438l-73 60h249l-73 -60v-400q0 -35 5 -48.5t21 -21.5q-3 -35 -20.5 -63.5t-46 -48.5t-67.5 -31t-85 -11q-58 0 -100 17t-72 53q-7 9 -12 16t-9.5 15.5t-9 19t-10.5 27.5q-5 16 -13 21t-29 9z
M327 811h68l89 -102h-84l-53 60l-52 -60h-55z" />
    <glyph glyph-name="jcircumflex" unicode="&#x135;" horiz-adv-x="518" 
d="M129 277q-5 -26 -7 -53t-2 -50q0 -69 28 -108.5t77 -39.5q45 0 69 37t24 106v438l-73 60h249l-73 -60v-400q0 -35 5 -48.5t21 -21.5q-3 -35 -20.5 -63.5t-46 -48.5t-67.5 -31t-85 -11q-58 0 -100 17t-72 53q-7 9 -12 16t-9.5 15.5t-9 19t-10.5 27.5q-5 16 -13 21t-29 9z
M327 811h68l89 -102h-84l-53 60l-52 -60h-55z" />
    <glyph glyph-name="Kcommaaccent" unicode="&#x136;" horiz-adv-x="643" 
d="M100 60v547l-73 60h249l-73 -60v-322l201 240q17 20 26.5 40t9.5 34q0 23 -19.5 42.5t-48.5 25.5h274q-98 -26 -194 -152l-72 -86l190 -369l86 -60h-272l73 60l-147 287l-107 -129v-158l73 -60h-249zM271 -205q15 12 24 27.5t9 35.5q0 34 -33 60l69 41q14 -14 22.5 -30.5
t8.5 -36.5q0 -32 -17.5 -59t-59.5 -47z" />
    <glyph glyph-name="kcommaaccent" unicode="&#x137;" horiz-adv-x="643" 
d="M100 60v547l-73 60h249l-73 -60v-322l201 240q17 20 26.5 40t9.5 34q0 23 -19.5 42.5t-48.5 25.5h274q-98 -26 -194 -152l-72 -86l190 -369l86 -60h-272l73 60l-147 287l-107 -129v-158l73 -60h-249zM271 -205q15 12 24 27.5t9 35.5q0 34 -33 60l69 41q14 -14 22.5 -30.5
t8.5 -36.5q0 -32 -17.5 -59t-59.5 -47z" />
    <glyph glyph-name="kgreenlandic" unicode="&#x138;" horiz-adv-x="643" 
d="M100 60v547l-73 60h249l-73 -60v-322l201 240q17 20 26.5 40t9.5 34q0 23 -19.5 42.5t-48.5 25.5h274q-98 -26 -194 -152l-72 -86l190 -369l86 -60h-272l73 60l-147 287l-107 -129v-158l73 -60h-249z" />
    <glyph glyph-name="Lacute" unicode="&#x139;" horiz-adv-x="558" 
d="M100 60v547l-73 60h249l-73 -60v-560q29 -2 48.5 -3t37.5 -1q83 0 125 35t56 116q11 -32 24.5 -63.5t27.5 -58t27 -46t22 -26.5h-544zM177 811h106l-127 -102h-55z" />
    <glyph glyph-name="lacute" unicode="&#x13a;" horiz-adv-x="558" 
d="M100 60v547l-73 60h249l-73 -60v-560q29 -2 48.5 -3t37.5 -1q83 0 125 35t56 116q11 -32 24.5 -63.5t27.5 -58t27 -46t22 -26.5h-544zM177 811h106l-127 -102h-55z" />
    <glyph glyph-name="Lcommaaccent" unicode="&#x13b;" horiz-adv-x="558" 
d="M100 60v547l-73 60h249l-73 -60v-560q29 -2 48.5 -3t37.5 -1q83 0 125 35t56 116q11 -32 24.5 -63.5t27.5 -58t27 -46t22 -26.5h-544zM249 -205q15 12 24 27.5t9 35.5q0 34 -33 60l69 41q14 -14 22.5 -30.5t8.5 -36.5q0 -32 -17.5 -59t-59.5 -47z" />
    <glyph glyph-name="lcommaaccent" unicode="&#x13c;" horiz-adv-x="558" 
d="M100 60v547l-73 60h249l-73 -60v-560q29 -2 48.5 -3t37.5 -1q83 0 125 35t56 116q11 -32 24.5 -63.5t27.5 -58t27 -46t22 -26.5h-544zM249 -205q15 12 24 27.5t9 35.5q0 34 -33 60l69 41q14 -14 22.5 -30.5t8.5 -36.5q0 -32 -17.5 -59t-59.5 -47z" />
    <glyph glyph-name="Lcaron" unicode="&#x13d;" horiz-adv-x="558" 
d="M100 60v547l-73 60h249l-73 -60v-560q29 -2 48.5 -3t37.5 -1q83 0 125 35t56 116q11 -32 24.5 -63.5t27.5 -58t27 -46t22 -26.5h-544zM303 520q29 26 29 63q0 34 -33 60l69 41q14 -14 22.5 -30.5t8.5 -36.5q0 -32 -15.5 -59t-57.5 -47z" />
    <glyph glyph-name="lcaron" unicode="&#x13e;" horiz-adv-x="558" 
d="M100 60v547l-73 60h249l-73 -60v-560q29 -2 48.5 -3t37.5 -1q83 0 125 35t56 116q11 -32 24.5 -63.5t27.5 -58t27 -46t22 -26.5h-544zM303 520q29 26 29 63q0 34 -33 60l69 41q14 -14 22.5 -30.5t8.5 -36.5q0 -32 -15.5 -59t-57.5 -47z" />
    <glyph glyph-name="Ldot" unicode="&#x13f;" horiz-adv-x="558" 
d="M100 60v547l-73 60h249l-73 -60v-560q29 -2 48.5 -3t37.5 -1q83 0 125 35t56 116q11 -32 24.5 -63.5t27.5 -58t27 -46t22 -26.5h-544zM432 407q20 0 34.5 -15t14.5 -35q0 -21 -14.5 -35.5t-35.5 -14.5t-35.5 14.5t-14.5 35.5t15 35.5t36 14.5z" />
    <glyph glyph-name="ldot" unicode="&#x140;" horiz-adv-x="558" 
d="M100 60v547l-73 60h249l-73 -60v-560q29 -2 48.5 -3t37.5 -1q83 0 125 35t56 116q11 -32 24.5 -63.5t27.5 -58t27 -46t22 -26.5h-544zM432 407q20 0 34.5 -15t14.5 -35q0 -21 -14.5 -35.5t-35.5 -14.5t-35.5 14.5t-14.5 35.5t15 35.5t36 14.5z" />
    <glyph glyph-name="Lslash" unicode="&#x141;" horiz-adv-x="558" 
d="M100 60v181l-73 -59v54l73 59v312l-73 60h250l-74 -60v-243l152 114v-55l-152 -114v-262q29 -2 48.5 -3t38.5 -1q83 0 125 35t56 116q11 -32 24.5 -63.5t27.5 -58t27 -46t22 -26.5h-545z" />
    <glyph glyph-name="lslash" unicode="&#x142;" horiz-adv-x="558" 
d="M100 60v181l-73 -59v54l73 59v312l-73 60h250l-74 -60v-243l152 114v-55l-152 -114v-262q29 -2 48.5 -3t38.5 -1q83 0 125 35t56 116q11 -32 24.5 -63.5t27.5 -58t27 -46t22 -26.5h-545z" />
    <glyph glyph-name="Nacute" unicode="&#x143;" horiz-adv-x="610" 
d="M13 0q25 9 42 21.5t27 32t14 48.5t4 71v434l-73 60h269l-73 -60l248 -480v367q0 42 -4 71t-14 48.5t-27 32t-42 21.5h216q-26 -9 -42.5 -21.5t-26.5 -32t-14 -48.5t-4 -71v-494h-84l-287 556v-383q0 -42 4 -71t14 -48.5t26.5 -32t42.5 -21.5h-216zM353 811h106l-127 -102
h-55z" />
    <glyph glyph-name="nacute" unicode="&#x144;" horiz-adv-x="610" 
d="M13 0q25 9 42 21.5t27 32t14 48.5t4 71v434l-73 60h269l-73 -60l248 -480v367q0 42 -4 71t-14 48.5t-27 32t-42 21.5h216q-26 -9 -42.5 -21.5t-26.5 -32t-14 -48.5t-4 -71v-494h-84l-287 556v-383q0 -42 4 -71t14 -48.5t26.5 -32t42.5 -21.5h-216zM353 811h106l-127 -102
h-55z" />
    <glyph glyph-name="Ncommaaccent" unicode="&#x145;" horiz-adv-x="610" 
d="M13 0q25 9 42 21.5t27 32t14 48.5t4 71v434l-73 60h269l-73 -60l248 -480v367q0 42 -4 71t-14 48.5t-27 32t-42 21.5h216q-26 -9 -42.5 -21.5t-26.5 -32t-14 -48.5t-4 -71v-494h-84l-287 556v-383q0 -42 4 -71t14 -48.5t26.5 -32t42.5 -21.5h-216zM255 -205
q15 12 24 27.5t9 35.5q0 34 -33 60l69 41q14 -14 22.5 -30.5t8.5 -36.5q0 -32 -17.5 -59t-59.5 -47z" />
    <glyph glyph-name="ncommaaccent" unicode="&#x146;" horiz-adv-x="610" 
d="M13 0q25 9 42 21.5t27 32t14 48.5t4 71v434l-73 60h269l-73 -60l248 -480v367q0 42 -4 71t-14 48.5t-27 32t-42 21.5h216q-26 -9 -42.5 -21.5t-26.5 -32t-14 -48.5t-4 -71v-494h-84l-287 556v-383q0 -42 4 -71t14 -48.5t26.5 -32t42.5 -21.5h-216zM255 -205
q15 12 24 27.5t9 35.5q0 34 -33 60l69 41q14 -14 22.5 -30.5t8.5 -36.5q0 -32 -17.5 -59t-59.5 -47z" />
    <glyph glyph-name="Ncaron" unicode="&#x147;" horiz-adv-x="610" 
d="M13 0q25 9 42 21.5t27 32t14 48.5t4 71v434l-73 60h269l-73 -60l248 -480v367q0 42 -4 71t-14 48.5t-27 32t-42 21.5h216q-26 -9 -42.5 -21.5t-26.5 -32t-14 -48.5t-4 -71v-494h-84l-287 556v-383q0 -42 4 -71t14 -48.5t26.5 -32t42.5 -21.5h-216zM183 811h84l53 -60
l52 60h55l-88 -102h-67z" />
    <glyph glyph-name="ncaron" unicode="&#x148;" horiz-adv-x="610" 
d="M13 0q25 9 42 21.5t27 32t14 48.5t4 71v434l-73 60h269l-73 -60l248 -480v367q0 42 -4 71t-14 48.5t-27 32t-42 21.5h216q-26 -9 -42.5 -21.5t-26.5 -32t-14 -48.5t-4 -71v-494h-84l-287 556v-383q0 -42 4 -71t14 -48.5t26.5 -32t42.5 -21.5h-216zM183 811h84l53 -60
l52 60h55l-88 -102h-67z" />
    <glyph glyph-name="Eng" unicode="&#x14a;" horiz-adv-x="610" 
d="M13 0q25 9 42 21.5t27 32t14 48.5t4 71v434l-73 60h269l-73 -60l248 -480v367q0 42 -4 71t-14 48.5t-27 32t-42 21.5h216q-26 -9 -42.5 -21.5t-26.5 -32t-14 -48.5t-4 -71v-555q0 -27 -5.5 -52.5t-18.5 -45t-33 -31t-48 -11.5q-79 0 -113 54q-5 6 -8.5 11t-6.5 11
t-6.5 14.5t-8.5 21.5q-3 8 -11 11.5t-31 8.5l128 104q-7 -29 -9 -51.5t-2 -39.5q0 -48 19.5 -73.5t51.5 -25.5q29 0 44.5 24.5t15.5 70.5l-1 60h-41l-287 556v-383q0 -42 4 -71t14 -48.5t26.5 -32t42.5 -21.5h-216z" />
    <glyph glyph-name="eng" unicode="&#x14b;" horiz-adv-x="610" 
d="M13 0q25 9 42 21.5t27 32t14 48.5t4 71v434l-73 60h269l-73 -60l248 -480v367q0 42 -4 71t-14 48.5t-27 32t-42 21.5h216q-26 -9 -42.5 -21.5t-26.5 -32t-14 -48.5t-4 -71v-555q0 -27 -5.5 -52.5t-18.5 -45t-33 -31t-48 -11.5q-79 0 -113 54q-5 6 -8.5 11t-6.5 11
t-6.5 14.5t-8.5 21.5q-3 8 -11 11.5t-31 8.5l128 104q-7 -29 -9 -51.5t-2 -39.5q0 -48 19.5 -73.5t51.5 -25.5q29 0 44.5 24.5t15.5 70.5l-1 60h-41l-287 556v-383q0 -42 4 -71t14 -48.5t26.5 -32t42.5 -21.5h-216z" />
    <glyph glyph-name="Omacron" unicode="&#x14c;" horiz-adv-x="632" 
d="M315 684q138 0 210.5 -91.5t72.5 -264.5q0 -81 -19.5 -145t-56 -108.5t-89 -68t-118.5 -23.5q-67 0 -119.5 23.5t-88.5 68.5t-55 110t-19 148q0 82 19 147.5t55 110.5t88.5 69t119.5 24zM310 641q-42 0 -76.5 -23t-52.5 -62t-26.5 -91t-8.5 -130q0 -79 9 -132t29 -92
q19 -38 56.5 -61.5t79.5 -23.5t77 23.5t53 61.5q18 39 26.5 91t8.5 127q0 82 -9 135.5t-29 91.5t-58 61.5t-79 23.5zM175 774h281v-51h-281v51z" />
    <glyph glyph-name="omacron" unicode="&#x14d;" horiz-adv-x="632" 
d="M315 684q138 0 210.5 -91.5t72.5 -264.5q0 -81 -19.5 -145t-56 -108.5t-89 -68t-118.5 -23.5q-67 0 -119.5 23.5t-88.5 68.5t-55 110t-19 148q0 82 19 147.5t55 110.5t88.5 69t119.5 24zM310 641q-42 0 -76.5 -23t-52.5 -62t-26.5 -91t-8.5 -130q0 -79 9 -132t29 -92
q19 -38 56.5 -61.5t79.5 -23.5t77 23.5t53 61.5q18 39 26.5 91t8.5 127q0 82 -9 135.5t-29 91.5t-58 61.5t-79 23.5zM175 774h281v-51h-281v51z" />
    <glyph glyph-name="Obreve" unicode="&#x14e;" horiz-adv-x="632" 
d="M315 684q138 0 210.5 -91.5t72.5 -264.5q0 -81 -19.5 -145t-56 -108.5t-89 -68t-118.5 -23.5q-67 0 -119.5 23.5t-88.5 68.5t-55 110t-19 148q0 82 19 147.5t55 110.5t88.5 69t119.5 24zM310 641q-42 0 -76.5 -23t-52.5 -62t-26.5 -91t-8.5 -130q0 -79 9 -132t29 -92
q19 -38 56.5 -61.5t79.5 -23.5t77 23.5t53 61.5q18 39 26.5 91t8.5 127q0 82 -9 135.5t-29 91.5t-58 61.5t-79 23.5zM168 821h37q2 -14 5 -21.5t8 -12.5q11 -14 39.5 -22.5t60.5 -8.5t59.5 8t38.5 22q10 12 12 35h35v-2q0 -55 -40.5 -87.5t-107.5 -32.5q-31 0 -58 9
t-46.5 24t-31 36t-11.5 45v8z" />
    <glyph glyph-name="obreve" unicode="&#x14f;" horiz-adv-x="632" 
d="M315 684q138 0 210.5 -91.5t72.5 -264.5q0 -81 -19.5 -145t-56 -108.5t-89 -68t-118.5 -23.5q-67 0 -119.5 23.5t-88.5 68.5t-55 110t-19 148q0 82 19 147.5t55 110.5t88.5 69t119.5 24zM310 641q-42 0 -76.5 -23t-52.5 -62t-26.5 -91t-8.5 -130q0 -79 9 -132t29 -92
q19 -38 56.5 -61.5t79.5 -23.5t77 23.5t53 61.5q18 39 26.5 91t8.5 127q0 82 -9 135.5t-29 91.5t-58 61.5t-79 23.5zM168 821h37q2 -14 5 -21.5t8 -12.5q11 -14 39.5 -22.5t60.5 -8.5t59.5 8t38.5 22q10 12 12 35h35v-2q0 -55 -40.5 -87.5t-107.5 -32.5q-31 0 -58 9
t-46.5 24t-31 36t-11.5 45v8z" />
    <glyph glyph-name="Ohungarumlaut" unicode="&#x150;" horiz-adv-x="632" 
d="M315 684q138 0 210.5 -91.5t72.5 -264.5q0 -81 -19.5 -145t-56 -108.5t-89 -68t-118.5 -23.5q-67 0 -119.5 23.5t-88.5 68.5t-55 110t-19 148q0 82 19 147.5t55 110.5t88.5 69t119.5 24zM310 641q-42 0 -76.5 -23t-52.5 -62t-26.5 -91t-8.5 -130q0 -79 9 -132t29 -92
q19 -38 56.5 -61.5t79.5 -23.5t77 23.5t53 61.5q18 39 26.5 91t8.5 127q0 82 -9 135.5t-29 91.5t-58 61.5t-79 23.5zM302 811h103l-127 -102h-52zM447 811h103l-127 -102h-52z" />
    <glyph glyph-name="ohungarumlaut" unicode="&#x151;" horiz-adv-x="632" 
d="M315 684q138 0 210.5 -91.5t72.5 -264.5q0 -81 -19.5 -145t-56 -108.5t-89 -68t-118.5 -23.5q-67 0 -119.5 23.5t-88.5 68.5t-55 110t-19 148q0 82 19 147.5t55 110.5t88.5 69t119.5 24zM310 641q-42 0 -76.5 -23t-52.5 -62t-26.5 -91t-8.5 -130q0 -79 9 -132t29 -92
q19 -38 56.5 -61.5t79.5 -23.5t77 23.5t53 61.5q18 39 26.5 91t8.5 127q0 82 -9 135.5t-29 91.5t-58 61.5t-79 23.5zM302 811h103l-127 -102h-52zM447 811h103l-127 -102h-52z" />
    <glyph glyph-name="OE" unicode="&#x152;" horiz-adv-x="964" 
d="M417 0q-26 -9 -49.5 -13t-52.5 -4q-135 0 -208.5 91.5t-73.5 259.5q0 83 19 148t55 110t88.5 68.5t119.5 23.5q29 0 52.5 -4t49.5 -13h519q-19 -23 -32 -40.5t-23.5 -35t-19 -37t-18.5 -46.5l-4 8t-5 9q-17 31 -33 50.5t-38.5 30t-54.5 14.5t-80 4h-32.5t-28.5 -0.5
t-31 -1t-39 -1.5q87 -79 99 -241h109l67 80v-203l-67 80h-107q0 -199 -101 -291q43 -2 63.5 -2.5t35.5 -0.5q128 0 184 32q22 13 40.5 34t43.5 62q6 -27 14 -49t19.5 -42.5t27.5 -39.5t39 -40h-547zM310 641q-42 0 -76.5 -23t-52.5 -62t-26.5 -91t-8.5 -130q0 -79 9 -132
t29 -92q19 -38 56.5 -61.5t79.5 -23.5t77 23t53 62t26.5 91t8.5 127q0 81 -9 135t-29 92t-58 61.5t-79 23.5z" />
    <glyph glyph-name="oe" unicode="&#x153;" horiz-adv-x="964" 
d="M417 0q-26 -9 -49.5 -13t-52.5 -4q-135 0 -208.5 91.5t-73.5 259.5q0 83 19 148t55 110t88.5 68.5t119.5 23.5q29 0 52.5 -4t49.5 -13h519q-19 -23 -32 -40.5t-23.5 -35t-19 -37t-18.5 -46.5l-4 8t-5 9q-17 31 -33 50.5t-38.5 30t-54.5 14.5t-80 4h-32.5t-28.5 -0.5
t-31 -1t-39 -1.5q87 -79 99 -241h109l67 80v-203l-67 80h-107q0 -199 -101 -291q43 -2 63.5 -2.5t35.5 -0.5q128 0 184 32q22 13 40.5 34t43.5 62q6 -27 14 -49t19.5 -42.5t27.5 -39.5t39 -40h-547zM310 641q-42 0 -76.5 -23t-52.5 -62t-26.5 -91t-8.5 -130q0 -79 9 -132
t29 -92q19 -38 56.5 -61.5t79.5 -23.5t77 23t53 62t26.5 91t8.5 127q0 81 -9 135t-29 92t-58 61.5t-79 23.5z" />
    <glyph glyph-name="Racute" unicode="&#x154;" horiz-adv-x="596" 
d="M100 60v217q-34 -3 -51.5 -6t-33.5 -10q11 24 15.5 37.5t6.5 24.5q14 -1 17 -1h9q8 0 16.5 0.5t20.5 1.5v236l-73 40q60 40 136 62t152 22q53 0 98.5 -13.5t79 -36.5t52.5 -55.5t19 -69.5q0 -63 -45 -108.5t-130 -68.5q16 -46 42 -95.5t56 -95t61.5 -83t60.5 -58.5
q-43 -14 -89 -37.5t-78 -49.5q-9 58 -19 106t-23 94.5t-30 95t-40 106.5q-9 -3 -27.5 -7t-38 -7.5t-37 -6t-24.5 -2.5v-232l73 -60h-249zM203 331q121 14 184.5 59t63.5 117q0 28 -11.5 52.5t-31.5 42.5t-47.5 28.5t-58.5 10.5q-29 0 -52.5 -8.5t-46.5 -28.5v-273zM346 811
h106l-127 -102h-55z" />
    <glyph glyph-name="racute" unicode="&#x155;" horiz-adv-x="596" 
d="M100 60v217q-34 -3 -51.5 -6t-33.5 -10q11 24 15.5 37.5t6.5 24.5q14 -1 17 -1h9q8 0 16.5 0.5t20.5 1.5v236l-73 40q60 40 136 62t152 22q53 0 98.5 -13.5t79 -36.5t52.5 -55.5t19 -69.5q0 -63 -45 -108.5t-130 -68.5q16 -46 42 -95.5t56 -95t61.5 -83t60.5 -58.5
q-43 -14 -89 -37.5t-78 -49.5q-9 58 -19 106t-23 94.5t-30 95t-40 106.5q-9 -3 -27.5 -7t-38 -7.5t-37 -6t-24.5 -2.5v-232l73 -60h-249zM203 331q121 14 184.5 59t63.5 117q0 28 -11.5 52.5t-31.5 42.5t-47.5 28.5t-58.5 10.5q-29 0 -52.5 -8.5t-46.5 -28.5v-273zM346 811
h106l-127 -102h-55z" />
    <glyph glyph-name="Rcommaaccent" unicode="&#x156;" horiz-adv-x="596" 
d="M100 60v217q-34 -3 -51.5 -6t-33.5 -10q11 24 15.5 37.5t6.5 24.5q14 -1 17 -1h9q8 0 16.5 0.5t20.5 1.5v236l-73 40q60 40 136 62t152 22q53 0 98.5 -13.5t79 -36.5t52.5 -55.5t19 -69.5q0 -63 -45 -108.5t-130 -68.5q16 -46 42 -95.5t56 -95t61.5 -83t60.5 -58.5
q-43 -14 -89 -37.5t-78 -49.5q-9 58 -19 106t-23 94.5t-30 95t-40 106.5q-9 -3 -27.5 -7t-38 -7.5t-37 -6t-24.5 -2.5v-232l73 -60h-249zM203 331q121 14 184.5 59t63.5 117q0 28 -11.5 52.5t-31.5 42.5t-47.5 28.5t-58.5 10.5q-29 0 -52.5 -8.5t-46.5 -28.5v-273zM248 -205
q15 12 24 27.5t9 35.5q0 34 -33 60l69 41q14 -14 22.5 -30.5t8.5 -36.5q0 -32 -17.5 -59t-59.5 -47z" />
    <glyph glyph-name="rcommaaccent" unicode="&#x157;" horiz-adv-x="596" 
d="M100 60v217q-34 -3 -51.5 -6t-33.5 -10q11 24 15.5 37.5t6.5 24.5q14 -1 17 -1h9q8 0 16.5 0.5t20.5 1.5v236l-73 40q60 40 136 62t152 22q53 0 98.5 -13.5t79 -36.5t52.5 -55.5t19 -69.5q0 -63 -45 -108.5t-130 -68.5q16 -46 42 -95.5t56 -95t61.5 -83t60.5 -58.5
q-43 -14 -89 -37.5t-78 -49.5q-9 58 -19 106t-23 94.5t-30 95t-40 106.5q-9 -3 -27.5 -7t-38 -7.5t-37 -6t-24.5 -2.5v-232l73 -60h-249zM203 331q121 14 184.5 59t63.5 117q0 28 -11.5 52.5t-31.5 42.5t-47.5 28.5t-58.5 10.5q-29 0 -52.5 -8.5t-46.5 -28.5v-273zM248 -205
q15 12 24 27.5t9 35.5q0 34 -33 60l69 41q14 -14 22.5 -30.5t8.5 -36.5q0 -32 -17.5 -59t-59.5 -47z" />
    <glyph glyph-name="Rcaron" unicode="&#x158;" horiz-adv-x="596" 
d="M100 60v217q-34 -3 -51.5 -6t-33.5 -10q11 24 15.5 37.5t6.5 24.5q14 -1 17 -1h9q8 0 16.5 0.5t20.5 1.5v236l-73 40q60 40 136 62t152 22q53 0 98.5 -13.5t79 -36.5t52.5 -55.5t19 -69.5q0 -63 -45 -108.5t-130 -68.5q16 -46 42 -95.5t56 -95t61.5 -83t60.5 -58.5
q-43 -14 -89 -37.5t-78 -49.5q-9 58 -19 106t-23 94.5t-30 95t-40 106.5q-9 -3 -27.5 -7t-38 -7.5t-37 -6t-24.5 -2.5v-232l73 -60h-249zM203 331q121 14 184.5 59t63.5 117q0 28 -11.5 52.5t-31.5 42.5t-47.5 28.5t-58.5 10.5q-29 0 -52.5 -8.5t-46.5 -28.5v-273zM176 811
h84l53 -60l52 60h55l-88 -102h-67z" />
    <glyph glyph-name="rcaron" unicode="&#x159;" horiz-adv-x="596" 
d="M100 60v217q-34 -3 -51.5 -6t-33.5 -10q11 24 15.5 37.5t6.5 24.5q14 -1 17 -1h9q8 0 16.5 0.5t20.5 1.5v236l-73 40q60 40 136 62t152 22q53 0 98.5 -13.5t79 -36.5t52.5 -55.5t19 -69.5q0 -63 -45 -108.5t-130 -68.5q16 -46 42 -95.5t56 -95t61.5 -83t60.5 -58.5
q-43 -14 -89 -37.5t-78 -49.5q-9 58 -19 106t-23 94.5t-30 95t-40 106.5q-9 -3 -27.5 -7t-38 -7.5t-37 -6t-24.5 -2.5v-232l73 -60h-249zM203 331q121 14 184.5 59t63.5 117q0 28 -11.5 52.5t-31.5 42.5t-47.5 28.5t-58.5 10.5q-29 0 -52.5 -8.5t-46.5 -28.5v-273zM176 811
h84l53 -60l52 60h55l-88 -102h-67z" />
    <glyph glyph-name="Sacute" unicode="&#x15a;" horiz-adv-x="560" 
d="M516 661q-7 -9 -18 -28t-23.5 -44t-25 -52t-21.5 -51q-6 26 -11 42t-13 30q-19 38 -57.5 60.5t-83.5 22.5q-57 0 -92 -31.5t-35 -80.5q0 -66 65 -96q12 -6 20 -9.5t22.5 -8t40 -10.5t71.5 -17q51 -12 83.5 -28.5t55.5 -41.5q49 -53 49 -127q0 -44 -18 -82t-49.5 -66
t-75 -44t-93.5 -16q-18 0 -34.5 1.5t-37 5.5t-47.5 11.5t-64 19.5q-33 10 -56 10q-16 0 -32.5 -6.5t-45.5 -24.5q13 19 28 47t28.5 57t24.5 55.5t16 43.5q8 -36 14 -53t15 -33q25 -42 75.5 -66.5t114.5 -24.5q69 0 109.5 33t40.5 88q0 33 -18.5 63t-50.5 49q-13 7 -26 12.5
t-30 10.5t-41 10.5t-60 12.5q-52 11 -84.5 25t-53.5 36q-48 49 -48 126q0 43 15.5 78t43 60.5t66.5 39.5t86 14q35 0 67 -6t77 -20q21 -7 33.5 -9.5t20.5 -2.5q13 0 26.5 3.5t36.5 11.5zM298 811h106l-127 -102h-55z" />
    <glyph glyph-name="sacute" unicode="&#x15b;" horiz-adv-x="560" 
d="M516 661q-7 -9 -18 -28t-23.5 -44t-25 -52t-21.5 -51q-6 26 -11 42t-13 30q-19 38 -57.5 60.5t-83.5 22.5q-57 0 -92 -31.5t-35 -80.5q0 -66 65 -96q12 -6 20 -9.5t22.5 -8t40 -10.5t71.5 -17q51 -12 83.5 -28.5t55.5 -41.5q49 -53 49 -127q0 -44 -18 -82t-49.5 -66
t-75 -44t-93.5 -16q-18 0 -34.5 1.5t-37 5.5t-47.5 11.5t-64 19.5q-33 10 -56 10q-16 0 -32.5 -6.5t-45.5 -24.5q13 19 28 47t28.5 57t24.5 55.5t16 43.5q8 -36 14 -53t15 -33q25 -42 75.5 -66.5t114.5 -24.5q69 0 109.5 33t40.5 88q0 33 -18.5 63t-50.5 49q-13 7 -26 12.5
t-30 10.5t-41 10.5t-60 12.5q-52 11 -84.5 25t-53.5 36q-48 49 -48 126q0 43 15.5 78t43 60.5t66.5 39.5t86 14q35 0 67 -6t77 -20q21 -7 33.5 -9.5t20.5 -2.5q13 0 26.5 3.5t36.5 11.5zM298 811h106l-127 -102h-55z" />
    <glyph glyph-name="Scircumflex" unicode="&#x15c;" horiz-adv-x="560" 
d="M516 661q-7 -9 -18 -28t-23.5 -44t-25 -52t-21.5 -51q-6 26 -11 42t-13 30q-19 38 -57.5 60.5t-83.5 22.5q-57 0 -92 -31.5t-35 -80.5q0 -66 65 -96q12 -6 20 -9.5t22.5 -8t40 -10.5t71.5 -17q51 -12 83.5 -28.5t55.5 -41.5q49 -53 49 -127q0 -44 -18 -82t-49.5 -66
t-75 -44t-93.5 -16q-18 0 -34.5 1.5t-37 5.5t-47.5 11.5t-64 19.5q-33 10 -56 10q-16 0 -32.5 -6.5t-45.5 -24.5q13 19 28 47t28.5 57t24.5 55.5t16 43.5q8 -36 14 -53t15 -33q25 -42 75.5 -66.5t114.5 -24.5q69 0 109.5 33t40.5 88q0 33 -18.5 63t-50.5 49q-13 7 -26 12.5
t-30 10.5t-41 10.5t-60 12.5q-52 11 -84.5 25t-53.5 36q-48 49 -48 126q0 43 15.5 78t43 60.5t66.5 39.5t86 14q35 0 67 -6t77 -20q21 -7 33.5 -9.5t20.5 -2.5q13 0 26.5 3.5t36.5 11.5zM245 811h68l89 -102h-84l-53 60l-52 -60h-55z" />
    <glyph glyph-name="scircumflex" unicode="&#x15d;" horiz-adv-x="560" 
d="M516 661q-7 -9 -18 -28t-23.5 -44t-25 -52t-21.5 -51q-6 26 -11 42t-13 30q-19 38 -57.5 60.5t-83.5 22.5q-57 0 -92 -31.5t-35 -80.5q0 -66 65 -96q12 -6 20 -9.5t22.5 -8t40 -10.5t71.5 -17q51 -12 83.5 -28.5t55.5 -41.5q49 -53 49 -127q0 -44 -18 -82t-49.5 -66
t-75 -44t-93.5 -16q-18 0 -34.5 1.5t-37 5.5t-47.5 11.5t-64 19.5q-33 10 -56 10q-16 0 -32.5 -6.5t-45.5 -24.5q13 19 28 47t28.5 57t24.5 55.5t16 43.5q8 -36 14 -53t15 -33q25 -42 75.5 -66.5t114.5 -24.5q69 0 109.5 33t40.5 88q0 33 -18.5 63t-50.5 49q-13 7 -26 12.5
t-30 10.5t-41 10.5t-60 12.5q-52 11 -84.5 25t-53.5 36q-48 49 -48 126q0 43 15.5 78t43 60.5t66.5 39.5t86 14q35 0 67 -6t77 -20q21 -7 33.5 -9.5t20.5 -2.5q13 0 26.5 3.5t36.5 11.5zM245 811h68l89 -102h-84l-53 60l-52 -60h-55z" />
    <glyph glyph-name="Scedilla" unicode="&#x15e;" horiz-adv-x="560" 
d="M253 -78q5 12 11 31t10 32q-28 2 -61 10.5t-89 26.5q-33 10 -56 10q-15 0 -33 -7.5t-45 -24.5q13 19 28 46.5t28.5 56.5t24.5 56t16 44q8 -36 14 -53t15 -32q26 -42 76 -66.5t114 -24.5q69 0 109.5 33t40.5 88q0 33 -18.5 62.5t-50.5 49.5q-13 7 -26 12.5t-30.5 10.5
t-41.5 10.5t-59 12.5q-52 11 -84.5 25t-53.5 36q-48 49 -48 125q0 43 15.5 78t43 60.5t66.5 39.5t86 14q35 0 67 -6t77 -20q21 -7 33.5 -9.5t20.5 -2.5q13 0 26.5 3.5t36.5 11.5q-7 -9 -18 -28t-23.5 -43.5t-25 -52t-21.5 -51.5q-6 26 -11 42t-13 30q-19 38 -57.5 60.5
t-83.5 22.5q-57 0 -92 -31.5t-35 -80.5q0 -66 65 -96q12 -6 20.5 -9.5t22.5 -7.5t39.5 -10t71.5 -17q51 -13 83.5 -29.5t55.5 -40.5q49 -55 49 -128q0 -42 -16 -78t-44.5 -63.5t-68 -44.5t-87.5 -21l-8 -30q2 1 4.5 1h3.5q20 0 33 -18t13 -47q0 -45 -27 -75t-69 -30
q-54 0 -84 52q6 2 14 7t16.5 11t15.5 11.5t10 8.5q0 -23 9 -36t23 -13t25.5 20.5t11.5 47.5q0 35 -28 35q-18 0 -28 -16z" />
    <glyph glyph-name="scedilla" unicode="&#x15f;" horiz-adv-x="560" 
d="M253 -78q5 12 11 31t10 32q-28 2 -61 10.5t-89 26.5q-33 10 -56 10q-15 0 -33 -7.5t-45 -24.5q13 19 28 46.5t28.5 56.5t24.5 56t16 44q8 -36 14 -53t15 -32q26 -42 76 -66.5t114 -24.5q69 0 109.5 33t40.5 88q0 33 -18.5 62.5t-50.5 49.5q-13 7 -26 12.5t-30.5 10.5
t-41.5 10.5t-59 12.5q-52 11 -84.5 25t-53.5 36q-48 49 -48 125q0 43 15.5 78t43 60.5t66.5 39.5t86 14q35 0 67 -6t77 -20q21 -7 33.5 -9.5t20.5 -2.5q13 0 26.5 3.5t36.5 11.5q-7 -9 -18 -28t-23.5 -43.5t-25 -52t-21.5 -51.5q-6 26 -11 42t-13 30q-19 38 -57.5 60.5
t-83.5 22.5q-57 0 -92 -31.5t-35 -80.5q0 -66 65 -96q12 -6 20.5 -9.5t22.5 -7.5t39.5 -10t71.5 -17q51 -13 83.5 -29.5t55.5 -40.5q49 -55 49 -128q0 -42 -16 -78t-44.5 -63.5t-68 -44.5t-87.5 -21l-8 -30q2 1 4.5 1h3.5q20 0 33 -18t13 -47q0 -45 -27 -75t-69 -30
q-54 0 -84 52q6 2 14 7t16.5 11t15.5 11.5t10 8.5q0 -23 9 -36t23 -13t25.5 20.5t11.5 47.5q0 35 -28 35q-18 0 -28 -16z" />
    <glyph glyph-name="Scaron" unicode="&#x160;" horiz-adv-x="560" 
d="M516 661q-7 -9 -18 -28t-23.5 -44t-25 -52t-21.5 -51q-6 26 -11 42t-13 30q-19 38 -57.5 60.5t-83.5 22.5q-57 0 -92 -31.5t-35 -80.5q0 -66 65 -96q12 -6 20 -9.5t22.5 -8t40 -10.5t71.5 -17q51 -12 83.5 -28.5t55.5 -41.5q49 -53 49 -127q0 -44 -18 -82t-49.5 -66
t-75 -44t-93.5 -16q-18 0 -34.5 1.5t-37 5.5t-47.5 11.5t-64 19.5q-33 10 -56 10q-16 0 -32.5 -6.5t-45.5 -24.5q13 19 28 47t28.5 57t24.5 55.5t16 43.5q8 -36 14 -53t15 -33q25 -42 75.5 -66.5t114.5 -24.5q69 0 109.5 33t40.5 88q0 33 -18.5 63t-50.5 49q-13 7 -26 12.5
t-30 10.5t-41 10.5t-60 12.5q-52 11 -84.5 25t-53.5 36q-48 49 -48 126q0 43 15.5 78t43 60.5t66.5 39.5t86 14q35 0 67 -6t77 -20q21 -7 33.5 -9.5t20.5 -2.5q13 0 26.5 3.5t36.5 11.5zM158 811h84l53 -60l52 60h55l-88 -102h-67z" />
    <glyph glyph-name="scaron" unicode="&#x161;" horiz-adv-x="560" 
d="M516 661q-7 -9 -18 -28t-23.5 -44t-25 -52t-21.5 -51q-6 26 -11 42t-13 30q-19 38 -57.5 60.5t-83.5 22.5q-57 0 -92 -31.5t-35 -80.5q0 -66 65 -96q12 -6 20 -9.5t22.5 -8t40 -10.5t71.5 -17q51 -12 83.5 -28.5t55.5 -41.5q49 -53 49 -127q0 -44 -18 -82t-49.5 -66
t-75 -44t-93.5 -16q-18 0 -34.5 1.5t-37 5.5t-47.5 11.5t-64 19.5q-33 10 -56 10q-16 0 -32.5 -6.5t-45.5 -24.5q13 19 28 47t28.5 57t24.5 55.5t16 43.5q8 -36 14 -53t15 -33q25 -42 75.5 -66.5t114.5 -24.5q69 0 109.5 33t40.5 88q0 33 -18.5 63t-50.5 49q-13 7 -26 12.5
t-30 10.5t-41 10.5t-60 12.5q-52 11 -84.5 25t-53.5 36q-48 49 -48 126q0 43 15.5 78t43 60.5t66.5 39.5t86 14q35 0 67 -6t77 -20q21 -7 33.5 -9.5t20.5 -2.5q13 0 26.5 3.5t36.5 11.5zM158 811h84l53 -60l52 60h55l-88 -102h-67z" />
    <glyph glyph-name="Tcommaaccent" unicode="&#x162;" horiz-adv-x="605" 
d="M251 60v561q-41 3 -57 3q-35 0 -62.5 -13.5t-41.5 -37.5q-7 -12 -12 -25.5t-14 -40.5q-13 38 -32 78t-45 82h631q-26 -43 -45.5 -82.5t-31.5 -77.5q-9 27 -14 40.5t-12 25.5q-14 24 -41.5 37.5t-62.5 13.5q-17 0 -57 -3v-561l73 -60h-249zM252 -205q15 12 24 27.5t9 35.5
q0 34 -33 60l69 41q14 -14 22.5 -30.5t8.5 -36.5q0 -32 -17.5 -59t-59.5 -47z" />
    <glyph glyph-name="tcommaaccent" unicode="&#x163;" horiz-adv-x="605" 
d="M251 60v561q-41 3 -57 3q-35 0 -62.5 -13.5t-41.5 -37.5q-7 -12 -12 -25.5t-14 -40.5q-13 38 -32 78t-45 82h631q-26 -43 -45.5 -82.5t-31.5 -77.5q-9 27 -14 40.5t-12 25.5q-14 24 -41.5 37.5t-62.5 13.5q-17 0 -57 -3v-561l73 -60h-249zM252 -205q15 12 24 27.5t9 35.5
q0 34 -33 60l69 41q14 -14 22.5 -30.5t8.5 -36.5q0 -32 -17.5 -59t-59.5 -47z" />
    <glyph glyph-name="Tcaron" unicode="&#x164;" horiz-adv-x="605" 
d="M251 60v561q-41 3 -57 3q-35 0 -62.5 -13.5t-41.5 -37.5q-7 -12 -12 -25.5t-14 -40.5q-13 38 -32 78t-45 82h631q-26 -43 -45.5 -82.5t-31.5 -77.5q-9 27 -14 40.5t-12 25.5q-14 24 -41.5 37.5t-62.5 13.5q-17 0 -57 -3v-561l73 -60h-249zM180 811h84l53 -60l52 60h55
l-88 -102h-67z" />
    <glyph glyph-name="tcaron" unicode="&#x165;" horiz-adv-x="605" 
d="M251 60v561q-41 3 -57 3q-35 0 -62.5 -13.5t-41.5 -37.5q-7 -12 -12 -25.5t-14 -40.5q-13 38 -32 78t-45 82h631q-26 -43 -45.5 -82.5t-31.5 -77.5q-9 27 -14 40.5t-12 25.5q-14 24 -41.5 37.5t-62.5 13.5q-17 0 -57 -3v-561l73 -60h-249zM180 811h84l53 -60l52 60h55
l-88 -102h-67z" />
    <glyph glyph-name="Tbar" unicode="&#x166;" horiz-adv-x="605" 
d="M251 60v273h-134l-17 48h151v240q-41 3 -57 3q-35 0 -62.5 -13.5t-41.5 -37.5q-7 -12 -12 -25.5t-14 -40.5q-13 38 -32 78t-45 82h631q-26 -43 -45.5 -82.5t-31.5 -77.5q-9 27 -14 40.5t-12 25.5q-14 24 -41.5 37.5t-62.5 13.5q-17 0 -57 -3v-240h134l17 -48h-151v-273
l73 -60h-249z" />
    <glyph glyph-name="tbar" unicode="&#x167;" horiz-adv-x="605" 
d="M251 60v273h-134l-17 48h151v240q-41 3 -57 3q-35 0 -62.5 -13.5t-41.5 -37.5q-7 -12 -12 -25.5t-14 -40.5q-13 38 -32 78t-45 82h631q-26 -43 -45.5 -82.5t-31.5 -77.5q-9 27 -14 40.5t-12 25.5q-14 24 -41.5 37.5t-62.5 13.5q-17 0 -57 -3v-240h134l17 -48h-151v-273
l73 -60h-249z" />
    <glyph glyph-name="Utilde" unicode="&#x168;" horiz-adv-x="630" 
d="M491 474q0 47 -5 79.5t-17.5 54t-33 35.5t-51.5 24h256q-32 -10 -52.5 -23.5t-32.5 -35.5t-17 -54.5t-5 -79.5v-217q0 -50 -1.5 -84.5t-5.5 -59t-10.5 -40.5t-16.5 -29q-49 -61 -173 -61q-66 0 -114 18t-74 52q-23 28 -32.5 76t-9.5 130v348l-73 60h250l-74 -60v-416
q0 -52 7 -82t24 -47q36 -36 110 -36q43 0 74.5 13t48.5 39q15 22 21.5 64t6.5 114v218zM181 711q0 22 7 41t19.5 33.5t29 23t36.5 8.5q12 0 21 -1.5t19.5 -5.5t24.5 -11.5t35 -19.5q25 -15 40 -15t23 10t10 34h38v-14q0 -37 -23.5 -63.5t-57.5 -26.5q-19 0 -41.5 7t-54.5 23
q-22 11 -31.5 14.5t-18.5 3.5q-34 0 -39 -41h-37z" />
    <glyph glyph-name="utilde" unicode="&#x169;" horiz-adv-x="630" 
d="M491 474q0 47 -5 79.5t-17.5 54t-33 35.5t-51.5 24h256q-32 -10 -52.5 -23.5t-32.5 -35.5t-17 -54.5t-5 -79.5v-217q0 -50 -1.5 -84.5t-5.5 -59t-10.5 -40.5t-16.5 -29q-49 -61 -173 -61q-66 0 -114 18t-74 52q-23 28 -32.5 76t-9.5 130v348l-73 60h250l-74 -60v-416
q0 -52 7 -82t24 -47q36 -36 110 -36q43 0 74.5 13t48.5 39q15 22 21.5 64t6.5 114v218zM181 711q0 22 7 41t19.5 33.5t29 23t36.5 8.5q12 0 21 -1.5t19.5 -5.5t24.5 -11.5t35 -19.5q25 -15 40 -15t23 10t10 34h38v-14q0 -37 -23.5 -63.5t-57.5 -26.5q-19 0 -41.5 7t-54.5 23
q-22 11 -31.5 14.5t-18.5 3.5q-34 0 -39 -41h-37z" />
    <glyph glyph-name="Umacron" unicode="&#x16a;" horiz-adv-x="630" 
d="M491 474q0 47 -5 79.5t-17.5 54t-33 35.5t-51.5 24h256q-32 -10 -52.5 -23.5t-32.5 -35.5t-17 -54.5t-5 -79.5v-217q0 -50 -1.5 -84.5t-5.5 -59t-10.5 -40.5t-16.5 -29q-49 -61 -173 -61q-66 0 -114 18t-74 52q-23 28 -32.5 76t-9.5 130v348l-73 60h250l-74 -60v-416
q0 -52 7 -82t24 -47q36 -36 110 -36q43 0 74.5 13t48.5 39q15 22 21.5 64t6.5 114v218zM191 774h281v-51h-281v51z" />
    <glyph glyph-name="umacron" unicode="&#x16b;" horiz-adv-x="630" 
d="M491 474q0 47 -5 79.5t-17.5 54t-33 35.5t-51.5 24h256q-32 -10 -52.5 -23.5t-32.5 -35.5t-17 -54.5t-5 -79.5v-217q0 -50 -1.5 -84.5t-5.5 -59t-10.5 -40.5t-16.5 -29q-49 -61 -173 -61q-66 0 -114 18t-74 52q-23 28 -32.5 76t-9.5 130v348l-73 60h250l-74 -60v-416
q0 -52 7 -82t24 -47q36 -36 110 -36q43 0 74.5 13t48.5 39q15 22 21.5 64t6.5 114v218zM191 774h281v-51h-281v51z" />
    <glyph glyph-name="Ubreve" unicode="&#x16c;" horiz-adv-x="630" 
d="M491 474q0 47 -5 79.5t-17.5 54t-33 35.5t-51.5 24h256q-32 -10 -52.5 -23.5t-32.5 -35.5t-17 -54.5t-5 -79.5v-217q0 -50 -1.5 -84.5t-5.5 -59t-10.5 -40.5t-16.5 -29q-49 -61 -173 -61q-66 0 -114 18t-74 52q-23 28 -32.5 76t-9.5 130v348l-73 60h250l-74 -60v-416
q0 -52 7 -82t24 -47q36 -36 110 -36q43 0 74.5 13t48.5 39q15 22 21.5 64t6.5 114v218zM184 821h37q2 -14 5 -21.5t8 -12.5q11 -14 39.5 -22.5t60.5 -8.5t59.5 8t38.5 22q10 12 12 35h35v-2q0 -55 -40.5 -87.5t-107.5 -32.5q-31 0 -58 9t-46.5 24t-31 36t-11.5 45v8z" />
    <glyph glyph-name="ubreve" unicode="&#x16d;" horiz-adv-x="630" 
d="M491 474q0 47 -5 79.5t-17.5 54t-33 35.5t-51.5 24h256q-32 -10 -52.5 -23.5t-32.5 -35.5t-17 -54.5t-5 -79.5v-217q0 -50 -1.5 -84.5t-5.5 -59t-10.5 -40.5t-16.5 -29q-49 -61 -173 -61q-66 0 -114 18t-74 52q-23 28 -32.5 76t-9.5 130v348l-73 60h250l-74 -60v-416
q0 -52 7 -82t24 -47q36 -36 110 -36q43 0 74.5 13t48.5 39q15 22 21.5 64t6.5 114v218zM184 821h37q2 -14 5 -21.5t8 -12.5q11 -14 39.5 -22.5t60.5 -8.5t59.5 8t38.5 22q10 12 12 35h35v-2q0 -55 -40.5 -87.5t-107.5 -32.5q-31 0 -58 9t-46.5 24t-31 36t-11.5 45v8z" />
    <glyph glyph-name="Uring" unicode="&#x16e;" horiz-adv-x="630" 
d="M491 474q0 47 -5 79.5t-17.5 54t-33 35.5t-51.5 24h256q-32 -10 -52.5 -23.5t-32.5 -35.5t-17 -54.5t-5 -79.5v-217q0 -50 -1.5 -84.5t-5.5 -59t-10.5 -40.5t-16.5 -29q-49 -61 -173 -61q-66 0 -114 18t-74 52q-23 28 -32.5 76t-9.5 130v348l-73 60h250l-74 -60v-416
q0 -52 7 -82t24 -47q36 -36 110 -36q43 0 74.5 13t48.5 39q15 22 21.5 64t6.5 114v218zM334 835q30 0 51.5 -22t21.5 -53t-21.5 -52.5t-53.5 -21.5q-30 0 -52 21.5t-22 52.5q0 32 22 53.5t54 21.5zM333 794q-14 0 -24 -10t-10 -24t10 -24t24 -10t23.5 10t9.5 24t-9.5 24
t-23.5 10z" />
    <glyph glyph-name="uring" unicode="&#x16f;" horiz-adv-x="630" 
d="M491 474q0 47 -5 79.5t-17.5 54t-33 35.5t-51.5 24h256q-32 -10 -52.5 -23.5t-32.5 -35.5t-17 -54.5t-5 -79.5v-217q0 -50 -1.5 -84.5t-5.5 -59t-10.5 -40.5t-16.5 -29q-49 -61 -173 -61q-66 0 -114 18t-74 52q-23 28 -32.5 76t-9.5 130v348l-73 60h250l-74 -60v-416
q0 -52 7 -82t24 -47q36 -36 110 -36q43 0 74.5 13t48.5 39q15 22 21.5 64t6.5 114v218zM334 835q30 0 51.5 -22t21.5 -53t-21.5 -52.5t-53.5 -21.5q-30 0 -52 21.5t-22 52.5q0 32 22 53.5t54 21.5zM333 794q-14 0 -24 -10t-10 -24t10 -24t24 -10t23.5 10t9.5 24t-9.5 24
t-23.5 10z" />
    <glyph glyph-name="Uhungarumlaut" unicode="&#x170;" horiz-adv-x="630" 
d="M491 474q0 47 -5 79.5t-17.5 54t-33 35.5t-51.5 24h256q-32 -10 -52.5 -23.5t-32.5 -35.5t-17 -54.5t-5 -79.5v-217q0 -50 -1.5 -84.5t-5.5 -59t-10.5 -40.5t-16.5 -29q-49 -61 -173 -61q-66 0 -114 18t-74 52q-23 28 -32.5 76t-9.5 130v348l-73 60h250l-74 -60v-416
q0 -52 7 -82t24 -47q36 -36 110 -36q43 0 74.5 13t48.5 39q15 22 21.5 64t6.5 114v218zM298 811h103l-127 -102h-52zM443 811h103l-127 -102h-52z" />
    <glyph glyph-name="uhungarumlaut" unicode="&#x171;" horiz-adv-x="630" 
d="M491 474q0 47 -5 79.5t-17.5 54t-33 35.5t-51.5 24h256q-32 -10 -52.5 -23.5t-32.5 -35.5t-17 -54.5t-5 -79.5v-217q0 -50 -1.5 -84.5t-5.5 -59t-10.5 -40.5t-16.5 -29q-49 -61 -173 -61q-66 0 -114 18t-74 52q-23 28 -32.5 76t-9.5 130v348l-73 60h250l-74 -60v-416
q0 -52 7 -82t24 -47q36 -36 110 -36q43 0 74.5 13t48.5 39q15 22 21.5 64t6.5 114v218zM298 811h103l-127 -102h-52zM443 811h103l-127 -102h-52z" />
    <glyph glyph-name="Uogonek" unicode="&#x172;" horiz-adv-x="630" 
d="M491 474q0 47 -5 79.5t-17.5 54t-33 35.5t-51.5 24h256q-32 -10 -52.5 -23.5t-32.5 -35.5t-17 -54.5t-5 -79.5v-217q0 -50 -1.5 -84.5t-5.5 -59t-10.5 -40.5t-16.5 -29q-21 -27 -63 -44q-44 -28 -72 -62.5t-28 -64.5q0 -8 5 -14t15 -6q37 0 75 45q-10 -29 -11 -80
q-19 -9 -37.5 -14t-38.5 -5q-34 0 -51.5 19t-17.5 50q0 35 19.5 62.5t51.5 53.5q-5 -1 -10 -1h-10q-66 0 -114 18t-74 52q-23 28 -32.5 76t-9.5 130v348l-73 60h250l-74 -60v-416q0 -52 7 -82t24 -47q36 -36 110 -36q43 0 74.5 13t48.5 39q15 22 21.5 64t6.5 114v218z" />
    <glyph glyph-name="uogonek" unicode="&#x173;" horiz-adv-x="630" 
d="M491 474q0 47 -5 79.5t-17.5 54t-33 35.5t-51.5 24h256q-32 -10 -52.5 -23.5t-32.5 -35.5t-17 -54.5t-5 -79.5v-217q0 -50 -1.5 -84.5t-5.5 -59t-10.5 -40.5t-16.5 -29q-21 -27 -63 -44q-44 -28 -72 -62.5t-28 -64.5q0 -8 5 -14t15 -6q37 0 75 45q-10 -29 -11 -80
q-19 -9 -37.5 -14t-38.5 -5q-34 0 -51.5 19t-17.5 50q0 35 19.5 62.5t51.5 53.5q-5 -1 -10 -1h-10q-66 0 -114 18t-74 52q-23 28 -32.5 76t-9.5 130v348l-73 60h250l-74 -60v-416q0 -52 7 -82t24 -47q36 -36 110 -36q43 0 74.5 13t48.5 39q15 22 21.5 64t6.5 114v218z" />
    <glyph glyph-name="Wcircumflex" unicode="&#x174;" horiz-adv-x="846" 
d="M214 60l-154 547l-73 60h251l-73 -60l121 -434l136 494h49l135 -490l72 260q24 87 35 138.5t11 77.5q0 30 -12 50t-40 37q30 7 66 18.5t70 24.5t63 25.5t44 21.5q-37 -40 -64 -76.5t-48.5 -81t-41 -103.5t-42.5 -144l-89 -327l10 -38l73 -60h-252l74 60l-117 419
l-110 -389l10 -30l73 -60h-251zM411 811h68l89 -102h-84l-53 60l-52 -60h-55z" />
    <glyph glyph-name="wcircumflex" unicode="&#x175;" horiz-adv-x="846" 
d="M214 60l-154 547l-73 60h251l-73 -60l121 -434l136 494h49l135 -490l72 260q24 87 35 138.5t11 77.5q0 30 -12 50t-40 37q30 7 66 18.5t70 24.5t63 25.5t44 21.5q-37 -40 -64 -76.5t-48.5 -81t-41 -103.5t-42.5 -144l-89 -327l10 -38l73 -60h-252l74 60l-117 419
l-110 -389l10 -30l73 -60h-251zM411 811h68l89 -102h-84l-53 60l-52 -60h-55z" />
    <glyph glyph-name="Ycircumflex" unicode="&#x176;" horiz-adv-x="653" 
d="M275 60v220l-124 192q-30 46 -49 75t-36 49t-34.5 35.5t-44.5 35.5h268l-73 -63l179 -272l141 230q25 42 36 68.5t11 47.5q0 15 -10.5 29.5t-33.5 32.5q30 5 66 14.5t71.5 21.5t67 25.5t52.5 25.5l-40.5 -40.5t-32 -33.5t-27 -31t-26 -34t-29.5 -42.5t-37 -55.5
l-192 -310v-220l73 -60h-249zM291 811h68l89 -102h-84l-53 60l-52 -60h-55z" />
    <glyph glyph-name="ycircumflex" unicode="&#x177;" horiz-adv-x="653" 
d="M275 60v220l-124 192q-30 46 -49 75t-36 49t-34.5 35.5t-44.5 35.5h268l-73 -63l179 -272l141 230q25 42 36 68.5t11 47.5q0 15 -10.5 29.5t-33.5 32.5q30 5 66 14.5t71.5 21.5t67 25.5t52.5 25.5l-40.5 -40.5t-32 -33.5t-27 -31t-26 -34t-29.5 -42.5t-37 -55.5
l-192 -310v-220l73 -60h-249zM291 811h68l89 -102h-84l-53 60l-52 -60h-55z" />
    <glyph glyph-name="Ydieresis" unicode="&#x178;" horiz-adv-x="653" 
d="M275 60v220l-124 192q-30 46 -49 75t-36 49t-34.5 35.5t-44.5 35.5h268l-73 -63l179 -272l141 230q25 42 36 68.5t11 47.5q0 15 -10.5 29.5t-33.5 32.5q30 5 66 14.5t71.5 21.5t67 25.5t52.5 25.5l-40.5 -40.5t-32 -33.5t-27 -31t-26 -34t-29.5 -42.5t-37 -55.5
l-192 -310v-220l73 -60h-249zM416 811q20 0 34.5 -15t14.5 -35q0 -21 -15 -35.5t-35 -14.5q-21 0 -35.5 14.5t-14.5 35.5t14.5 35.5t36.5 14.5zM235 811q20 0 34.5 -15t14.5 -35q0 -21 -14.5 -35.5t-35.5 -14.5t-35.5 14.5t-14.5 35.5t15 35.5t36 14.5z" />
    <glyph glyph-name="Zacute" unicode="&#x179;" horiz-adv-x="591" 
d="M414 621q-12 1 -22 1.5l-20 1t-21 0.5h-26q-44 0 -74.5 -2t-52 -6.5t-37 -13t-29.5 -21.5q-16 -14 -26 -31t-19 -42q-11 24 -19.5 42t-17 35.5t-19 36.5t-25.5 45h564l-416 -621q27 -2 46.5 -2.5t47.5 -0.5q49 0 83.5 3t58.5 11t41 21t32 34q11 15 19.5 29.5t16.5 32.5
q22 -57 45.5 -102t46.5 -72h-591zM323 811h106l-127 -102h-55z" />
    <glyph glyph-name="zacute" unicode="&#x17a;" horiz-adv-x="591" 
d="M414 621q-12 1 -22 1.5l-20 1t-21 0.5h-26q-44 0 -74.5 -2t-52 -6.5t-37 -13t-29.5 -21.5q-16 -14 -26 -31t-19 -42q-11 24 -19.5 42t-17 35.5t-19 36.5t-25.5 45h564l-416 -621q27 -2 46.5 -2.5t47.5 -0.5q49 0 83.5 3t58.5 11t41 21t32 34q11 15 19.5 29.5t16.5 32.5
q22 -57 45.5 -102t46.5 -72h-591zM323 811h106l-127 -102h-55z" />
    <glyph glyph-name="Zdotaccent" unicode="&#x17b;" horiz-adv-x="591" 
d="M414 621q-12 1 -22 1.5l-20 1t-21 0.5h-26q-44 0 -74.5 -2t-52 -6.5t-37 -13t-29.5 -21.5q-16 -14 -26 -31t-19 -42q-11 24 -19.5 42t-17 35.5t-19 36.5t-25.5 45h564l-416 -621q27 -2 46.5 -2.5t47.5 -0.5q49 0 83.5 3t58.5 11t41 21t32 34q11 15 19.5 29.5t16.5 32.5
q22 -57 45.5 -102t46.5 -72h-591zM295 811q20 0 34.5 -15t14.5 -35q0 -21 -14.5 -35.5t-35.5 -14.5t-35.5 14.5t-14.5 35.5t15 35.5t36 14.5z" />
    <glyph glyph-name="zdotaccent" unicode="&#x17c;" horiz-adv-x="591" 
d="M414 621q-12 1 -22 1.5l-20 1t-21 0.5h-26q-44 0 -74.5 -2t-52 -6.5t-37 -13t-29.5 -21.5q-16 -14 -26 -31t-19 -42q-11 24 -19.5 42t-17 35.5t-19 36.5t-25.5 45h564l-416 -621q27 -2 46.5 -2.5t47.5 -0.5q49 0 83.5 3t58.5 11t41 21t32 34q11 15 19.5 29.5t16.5 32.5
q22 -57 45.5 -102t46.5 -72h-591zM295 811q20 0 34.5 -15t14.5 -35q0 -21 -14.5 -35.5t-35.5 -14.5t-35.5 14.5t-14.5 35.5t15 35.5t36 14.5z" />
    <glyph glyph-name="Zcaron" unicode="&#x17d;" horiz-adv-x="591" 
d="M414 621q-12 1 -22 1.5l-20 1t-21 0.5h-26q-44 0 -74.5 -2t-52 -6.5t-37 -13t-29.5 -21.5q-16 -14 -26 -31t-19 -42q-11 24 -19.5 42t-17 35.5t-19 36.5t-25.5 45h564l-416 -621q27 -2 46.5 -2.5t47.5 -0.5q49 0 83.5 3t58.5 11t41 21t32 34q11 15 19.5 29.5t16.5 32.5
q22 -57 45.5 -102t46.5 -72h-591zM173 811h84l53 -60l52 60h55l-88 -102h-67z" />
    <glyph glyph-name="zcaron" unicode="&#x17e;" horiz-adv-x="591" 
d="M414 621q-12 1 -22 1.5l-20 1t-21 0.5h-26q-44 0 -74.5 -2t-52 -6.5t-37 -13t-29.5 -21.5q-16 -14 -26 -31t-19 -42q-11 24 -19.5 42t-17 35.5t-19 36.5t-25.5 45h564l-416 -621q27 -2 46.5 -2.5t47.5 -0.5q49 0 83.5 3t58.5 11t41 21t32 34q11 15 19.5 29.5t16.5 32.5
q22 -57 45.5 -102t46.5 -72h-591zM173 811h84l53 -60l52 60h55l-88 -102h-67z" />
    <glyph glyph-name="florin" unicode="&#x192;" horiz-adv-x="596" 
d="M161 410h-96l-20 60h128q13 61 37.5 110t57.5 83.5t73.5 53t85.5 18.5q29 0 57 -9t51.5 -24.5t41 -36.5t25.5 -46q-20 -8 -45.5 -23t-46.5 -32q-15 128 -99 128q-54 0 -91 -58t-51 -164h106l22 -60h-139l-67 -351q-6 -30 -9.5 -48.5t-6.5 -30t-6 -19.5t-7 -18
q-26 -63 -74.5 -96t-114.5 -33q-52 0 -99 22t-82 64q-39 45 -45 86q10 3 26.5 11t34.5 17.5t34.5 19.5t25.5 17q-2 -16 -3 -26.5t-1 -21.5q0 -29 8 -54t21.5 -43t32.5 -28.5t42 -10.5q35 0 59.5 23.5t41.5 75.5q4 10 7 20.5t6 23.5t6.5 31t8.5 43z" />
    <glyph glyph-name="AEacute" unicode="&#x1fc;" horiz-adv-x="1025" 
d="M-14 0q30 13 56.5 31t53 45.5t55.5 67t65 95.5l52 81q-16 9 -30 14t-34 9l-5 2l52 70q13 -16 26.5 -30t22.5 -21l164 243l-74 60h607q-19 -23 -32 -40.5t-23.5 -35t-19 -37t-18.5 -46.5q-2 5 -4 9l-4 8q-14 31 -27.5 50.5t-32.5 30t-46 14.5t-67 4q-26 0 -48 -0.5
t-51 -2.5v-241h142l67 80v-203l-67 80h-142v-291q28 -2 42.5 -2.5t25.5 -0.5q54 0 95 8t64 24q19 13 35.5 34.5t38.5 61.5q6 -27 14 -49t19.5 -42.5t27.5 -39.5t39 -40h-578l73 60v201l-87 -111q-6 7 -16 19.5t-33 40.5q-12 15 -20.5 25t-17 19t-18.5 18t-24 22l-47 -70
q-25 -38 -38.5 -71.5t-13.5 -58.5q0 -33 18.5 -54t63.5 -40h-301zM521 327v290l-190 -282q18 -17 30.5 -29t23 -24t22 -26t27.5 -35zM707 811h106l-127 -102h-55z" />
    <glyph glyph-name="aeacute" unicode="&#x1fd;" horiz-adv-x="1025" 
d="M-14 0q30 13 56.5 31t53 45.5t55.5 67t65 95.5l52 81q-16 9 -30 14t-34 9l-5 2l52 70q13 -16 26.5 -30t22.5 -21l164 243l-74 60h607q-19 -23 -32 -40.5t-23.5 -35t-19 -37t-18.5 -46.5q-2 5 -4 9l-4 8q-14 31 -27.5 50.5t-32.5 30t-46 14.5t-67 4q-26 0 -48 -0.5
t-51 -2.5v-241h142l67 80v-203l-67 80h-142v-291q28 -2 42.5 -2.5t25.5 -0.5q54 0 95 8t64 24q19 13 35.5 34.5t38.5 61.5q6 -27 14 -49t19.5 -42.5t27.5 -39.5t39 -40h-578l73 60v201l-87 -111q-6 7 -16 19.5t-33 40.5q-12 15 -20.5 25t-17 19t-18.5 18t-24 22l-47 -70
q-25 -38 -38.5 -71.5t-13.5 -58.5q0 -33 18.5 -54t63.5 -40h-301zM521 327v290l-190 -282q18 -17 30.5 -29t23 -24t22 -26t27.5 -35zM707 811h106l-127 -102h-55z" />
    <glyph glyph-name="Oslashacute" unicode="&#x1fe;" horiz-adv-x="632" 
d="M109 73q-76 94 -76 260q0 83 19 148t55 110t88.5 68.5t119.5 23.5q54 0 95.5 -13.5t79.5 -43.5l40 57h53l-61 -89q76 -94 76 -260q0 -83 -19 -148t-55 -110t-88.5 -69t-119.5 -24q-54 0 -95.5 14t-79.5 44l-40 -58h-53zM186 107q22 -37 57 -58.5t77 -21.5t77 23.5
t53 61.5q18 39 26.5 91.5t8.5 130.5q0 57 -5 101t-15 77zM445 560q-22 37 -57.5 58.5t-77.5 21.5t-76.5 -23t-52.5 -62q-19 -39 -27 -91t-8 -130q0 -58 5 -102t15 -77zM331 811h106l-127 -102h-55z" />
    <glyph glyph-name="oslashacute" unicode="&#x1ff;" horiz-adv-x="632" 
d="M109 73q-76 94 -76 260q0 83 19 148t55 110t88.5 68.5t119.5 23.5q54 0 95.5 -13.5t79.5 -43.5l40 57h53l-61 -89q76 -94 76 -260q0 -83 -19 -148t-55 -110t-88.5 -69t-119.5 -24q-54 0 -95.5 14t-79.5 44l-40 -58h-53zM186 107q22 -37 57 -58.5t77 -21.5t77 23.5
t53 61.5q18 39 26.5 91.5t8.5 130.5q0 57 -5 101t-15 77zM445 560q-22 37 -57.5 58.5t-77.5 21.5t-76.5 -23t-52.5 -62q-19 -39 -27 -91t-8 -130q0 -58 5 -102t15 -77zM331 811h106l-127 -102h-55z" />
    <glyph glyph-name="Scommaaccent" unicode="&#x218;" horiz-adv-x="560" 
d="M516 661q-7 -9 -18 -28t-23.5 -44t-25 -52t-21.5 -51q-6 26 -11 42t-13 30q-19 38 -57.5 60.5t-83.5 22.5q-57 0 -92 -31.5t-35 -80.5q0 -66 65 -96q12 -6 20 -9.5t22.5 -8t40 -10.5t71.5 -17q51 -12 83.5 -28.5t55.5 -41.5q49 -53 49 -127q0 -44 -18 -82t-49.5 -66
t-75 -44t-93.5 -16q-18 0 -34.5 1.5t-37 5.5t-47.5 11.5t-64 19.5q-33 10 -56 10q-16 0 -32.5 -6.5t-45.5 -24.5q13 19 28 47t28.5 57t24.5 55.5t16 43.5q8 -36 14 -53t15 -33q25 -42 75.5 -66.5t114.5 -24.5q69 0 109.5 33t40.5 88q0 33 -18.5 63t-50.5 49q-13 7 -26 12.5
t-30 10.5t-41 10.5t-60 12.5q-52 11 -84.5 25t-53.5 36q-48 49 -48 126q0 43 15.5 78t43 60.5t66.5 39.5t86 14q35 0 67 -6t77 -20q21 -7 33.5 -9.5t20.5 -2.5q13 0 26.5 3.5t36.5 11.5zM230 -205q15 12 24 27.5t9 35.5q0 34 -33 60l69 41q14 -14 22.5 -30.5t8.5 -36.5
q0 -32 -17.5 -59t-59.5 -47z" />
    <glyph glyph-name="scommaaccent" unicode="&#x219;" horiz-adv-x="560" 
d="M516 661q-7 -9 -18 -28t-23.5 -44t-25 -52t-21.5 -51q-6 26 -11 42t-13 30q-19 38 -57.5 60.5t-83.5 22.5q-57 0 -92 -31.5t-35 -80.5q0 -66 65 -96q12 -6 20 -9.5t22.5 -8t40 -10.5t71.5 -17q51 -12 83.5 -28.5t55.5 -41.5q49 -53 49 -127q0 -44 -18 -82t-49.5 -66
t-75 -44t-93.5 -16q-18 0 -34.5 1.5t-37 5.5t-47.5 11.5t-64 19.5q-33 10 -56 10q-16 0 -32.5 -6.5t-45.5 -24.5q13 19 28 47t28.5 57t24.5 55.5t16 43.5q8 -36 14 -53t15 -33q25 -42 75.5 -66.5t114.5 -24.5q69 0 109.5 33t40.5 88q0 33 -18.5 63t-50.5 49q-13 7 -26 12.5
t-30 10.5t-41 10.5t-60 12.5q-52 11 -84.5 25t-53.5 36q-48 49 -48 126q0 43 15.5 78t43 60.5t66.5 39.5t86 14q35 0 67 -6t77 -20q21 -7 33.5 -9.5t20.5 -2.5q13 0 26.5 3.5t36.5 11.5zM230 -205q15 12 24 27.5t9 35.5q0 34 -33 60l69 41q14 -14 22.5 -30.5t8.5 -36.5
q0 -32 -17.5 -59t-59.5 -47z" />
    <glyph glyph-name="uni021A" unicode="&#x21a;" horiz-adv-x="605" 
d="M251 60v561q-41 3 -57 3q-35 0 -62.5 -13.5t-41.5 -37.5q-7 -12 -12 -25.5t-14 -40.5q-13 38 -32 78t-45 82h631q-26 -43 -45.5 -82.5t-31.5 -77.5q-9 27 -14 40.5t-12 25.5q-14 24 -41.5 37.5t-62.5 13.5q-17 0 -57 -3v-561l73 -60h-249zM252 -205q15 12 24 27.5t9 35.5
q0 34 -33 60l69 41q14 -14 22.5 -30.5t8.5 -36.5q0 -32 -17.5 -59t-59.5 -47z" />
    <glyph glyph-name="uni021B" unicode="&#x21b;" horiz-adv-x="605" 
d="M251 60v561q-41 3 -57 3q-35 0 -62.5 -13.5t-41.5 -37.5q-7 -12 -12 -25.5t-14 -40.5q-13 38 -32 78t-45 82h631q-26 -43 -45.5 -82.5t-31.5 -77.5q-9 27 -14 40.5t-12 25.5q-14 24 -41.5 37.5t-62.5 13.5q-17 0 -57 -3v-561l73 -60h-249zM252 -205q15 12 24 27.5t9 35.5
q0 34 -33 60l69 41q14 -14 22.5 -30.5t8.5 -36.5q0 -32 -17.5 -59t-59.5 -47z" />
    <glyph glyph-name="uni0237" unicode="&#x237;" horiz-adv-x="518" 
d="M129 277q-5 -26 -7 -53t-2 -50q0 -69 28 -108.5t77 -39.5q45 0 69 37t24 106v438l-73 60h249l-73 -60v-400q0 -35 5 -48.5t21 -21.5q-3 -35 -20.5 -63.5t-46 -48.5t-67.5 -31t-85 -11q-58 0 -100 17t-72 53q-7 9 -12 16t-9.5 15.5t-9 19t-10.5 27.5q-5 16 -13 21t-29 9z
" />
    <glyph glyph-name="circumflex" unicode="&#x2c6;" 
d="M215 811h68l89 -102h-84l-53 60l-52 -60h-55z" />
    <glyph glyph-name="caron" unicode="&#x2c7;" 
d="M128 811h84l53 -60l52 60h55l-88 -102h-67z" />
    <glyph glyph-name="uni02C9" unicode="&#x2c9;" 
d="M109 774h281v-51h-281v51z" />
    <glyph glyph-name="breve" unicode="&#x2d8;" 
d="M102 821h37q2 -14 5 -21.5t8 -12.5q11 -14 39.5 -22.5t60.5 -8.5t59.5 8t38.5 22q10 12 12 35h35v-2q0 -55 -40.5 -87.5t-107.5 -32.5q-31 0 -58 9t-46.5 24t-31 36t-11.5 45v8z" />
    <glyph glyph-name="dotaccent" unicode="&#x2d9;" 
d="M250 811q20 0 34.5 -15t14.5 -35q0 -21 -14.5 -35.5t-35.5 -14.5t-35.5 14.5t-14.5 35.5t15 35.5t36 14.5z" />
    <glyph glyph-name="ring" unicode="&#x2da;" 
d="M252 835q30 0 51.5 -22t21.5 -53t-21.5 -52.5t-53.5 -21.5q-30 0 -52 21.5t-22 52.5q0 32 22 53.5t54 21.5zM251 794q-14 0 -24 -10t-10 -24t10 -24t24 -10t23.5 10t9.5 24t-9.5 24t-23.5 10z" />
    <glyph glyph-name="ogonek" unicode="&#x2db;" 
d="M331 0q-44 -28 -72 -62.5t-28 -64.5q0 -8 5 -14t15 -6q37 0 75 45q-10 -29 -11 -80q-19 -9 -37.5 -14t-38.5 -5q-34 0 -51.5 19t-17.5 50q0 41 26.5 72t66.5 60h68z" />
    <glyph glyph-name="tilde" unicode="&#x2dc;" 
d="M99 711q0 22 7 41t19.5 33.5t29 23t36.5 8.5q12 0 21 -1.5t19.5 -5.5t24.5 -11.5t35 -19.5q25 -15 40 -15t23 10t10 34h38v-14q0 -37 -23.5 -63.5t-57.5 -26.5q-19 0 -41.5 7t-54.5 23q-22 11 -31.5 14.5t-18.5 3.5q-34 0 -39 -41h-37z" />
    <glyph glyph-name="hungarumlaut" unicode="&#x2dd;" 
d="M236 811h103l-127 -102h-52zM381 811h103l-127 -102h-52z" />
    <glyph glyph-name="Delta" unicode="&#x394;" horiz-adv-x="667" 
d="M303 681h59l307 -681h-672zM516 67l-217 500l-191 -426q-6 -15 -9.5 -26t-3.5 -19q0 -16 10.5 -22.5t37.5 -6.5h373z" />
    <glyph glyph-name="Omega" unicode="&#x3a9;" horiz-adv-x="759" 
d="M15 137h21q7 -22 16.5 -36t24 -22.5t36 -11.5t52.5 -3l110 -5v6q-50 17 -80 33.5t-55 39.5q-51 45 -78.5 104.5t-27.5 123.5q0 67 33 132.5t90 110.5q43 34 100 51.5t124 17.5q170 0 265 -107q39 -45 59.5 -96.5t20.5 -105.5q0 -75 -35.5 -141t-99.5 -111
q-20 -14 -43 -25.5t-63 -26.5v-6l119 5q28 0 47.5 3.5t33 12t22.5 22.5t17 35h20l-38 -137h-286v61q22 12 38 22t28.5 20.5t23 21.5t20.5 25q31 42 48 97.5t17 115.5q0 72 -23 135t-65 101q-23 21 -56 33.5t-68 12.5q-117 0 -174 -102q-21 -38 -32.5 -84t-11.5 -94
q0 -67 21.5 -128t59.5 -106q18 -21 37.5 -35.5t56.5 -34.5v-61h-287z" />
    <glyph glyph-name="mu" unicode="&#x3bc;" horiz-adv-x="530" 
d="M364 78q-46 -91 -138 -91q-20 0 -36 4t-36 14q-2 -18 6.5 -55.5t23.5 -82.5q-14 -1 -23.5 -2t-18.5 -2t-19 -2t-25 -3q-3 -1 -11 -2t-18 -3q2 41 3.5 71.5t2 55.5t1 46t0.5 44v417h88v-318q0 -24 1 -40.5t3 -28.5t5.5 -21t8.5 -18q21 -30 65 -30q48 0 75.5 33t35.5 102
q1 6 2 22t2 35t1.5 37t0.5 29v198h88v-435l65 -52h-153v78z" />
    <glyph glyph-name="pi" unicode="&#x3c0;" horiz-adv-x="600" 
d="M400 -10q-9 -3 -13 -3q-5 0 -14 7.5t-17 18.5q-12 16 -16 31.5t-4 43.5v153q0 38 13 70q1 5 9 18t18 27.5t19.5 28t14.5 19.5h-166l-3 -110q0 -23 -2 -52t-6 -60.5t-8.5 -63.5t-9.5 -60q-8 -42 -21.5 -60t-36.5 -18q-19 0 -32.5 14t-13.5 34q0 8 0.5 14t2.5 12.5t7 16.5
t13 25q13 30 22.5 60.5t16 66.5t11 80t7.5 101q-27 0 -47.5 -4t-38 -13.5t-34 -25t-34.5 -39.5l-14 15l64 93q16 23 38 32t59 9h423v-67h-138q-18 -42 -23 -64.5t-5 -46.5v-158q0 -54 8.5 -72t34.5 -18q5 0 8.5 0.5t20.5 4.5l16 3v-19z" />
    <glyph glyph-name="Wgrave" unicode="&#x1e80;" horiz-adv-x="846" 
d="M214 60l-154 547l-73 60h251l-73 -60l121 -434l136 494h49l135 -490l72 260q24 87 35 138.5t11 77.5q0 30 -12 50t-40 37q30 7 66 18.5t70 24.5t63 25.5t44 21.5q-37 -40 -64 -76.5t-48.5 -81t-41 -103.5t-42.5 -144l-89 -327l10 -38l73 -60h-252l74 60l-117 419
l-110 -389l10 -30l73 -60h-251zM322 811h106l76 -102h-55z" />
    <glyph glyph-name="wgrave" unicode="&#x1e81;" horiz-adv-x="846" 
d="M214 60l-154 547l-73 60h251l-73 -60l121 -434l136 494h49l135 -490l72 260q24 87 35 138.5t11 77.5q0 30 -12 50t-40 37q30 7 66 18.5t70 24.5t63 25.5t44 21.5q-37 -40 -64 -76.5t-48.5 -81t-41 -103.5t-42.5 -144l-89 -327l10 -38l73 -60h-252l74 60l-117 419
l-110 -389l10 -30l73 -60h-251zM322 811h106l76 -102h-55z" />
    <glyph glyph-name="Wacute" unicode="&#x1e82;" horiz-adv-x="846" 
d="M214 60l-154 547l-73 60h251l-73 -60l121 -434l136 494h49l135 -490l72 260q24 87 35 138.5t11 77.5q0 30 -12 50t-40 37q30 7 66 18.5t70 24.5t63 25.5t44 21.5q-37 -40 -64 -76.5t-48.5 -81t-41 -103.5t-42.5 -144l-89 -327l10 -38l73 -60h-252l74 60l-117 419
l-110 -389l10 -30l73 -60h-251zM458 811h106l-127 -102h-55z" />
    <glyph glyph-name="wacute" unicode="&#x1e83;" horiz-adv-x="846" 
d="M214 60l-154 547l-73 60h251l-73 -60l121 -434l136 494h49l135 -490l72 260q24 87 35 138.5t11 77.5q0 30 -12 50t-40 37q30 7 66 18.5t70 24.5t63 25.5t44 21.5q-37 -40 -64 -76.5t-48.5 -81t-41 -103.5t-42.5 -144l-89 -327l10 -38l73 -60h-252l74 60l-117 419
l-110 -389l10 -30l73 -60h-251zM458 811h106l-127 -102h-55z" />
    <glyph glyph-name="Wdieresis" unicode="&#x1e84;" horiz-adv-x="846" 
d="M214 60l-154 547l-73 60h251l-73 -60l121 -434l136 494h49l135 -490l72 260q24 87 35 138.5t11 77.5q0 30 -12 50t-40 37q30 7 66 18.5t70 24.5t63 25.5t44 21.5q-37 -40 -64 -76.5t-48.5 -81t-41 -103.5t-42.5 -144l-89 -327l10 -38l73 -60h-252l74 60l-117 419
l-110 -389l10 -30l73 -60h-251zM537 811q20 0 34.5 -15t14.5 -35q0 -21 -15 -35.5t-35 -14.5q-21 0 -35.5 14.5t-14.5 35.5t14.5 35.5t36.5 14.5zM356 811q20 0 34.5 -15t14.5 -35q0 -21 -14.5 -35.5t-35.5 -14.5t-35.5 14.5t-14.5 35.5t15 35.5t36 14.5z" />
    <glyph glyph-name="wdieresis" unicode="&#x1e85;" horiz-adv-x="846" 
d="M214 60l-154 547l-73 60h251l-73 -60l121 -434l136 494h49l135 -490l72 260q24 87 35 138.5t11 77.5q0 30 -12 50t-40 37q30 7 66 18.5t70 24.5t63 25.5t44 21.5q-37 -40 -64 -76.5t-48.5 -81t-41 -103.5t-42.5 -144l-89 -327l10 -38l73 -60h-252l74 60l-117 419
l-110 -389l10 -30l73 -60h-251zM537 811q20 0 34.5 -15t14.5 -35q0 -21 -15 -35.5t-35 -14.5q-21 0 -35.5 14.5t-14.5 35.5t14.5 35.5t36.5 14.5zM356 811q20 0 34.5 -15t14.5 -35q0 -21 -14.5 -35.5t-35.5 -14.5t-35.5 14.5t-14.5 35.5t15 35.5t36 14.5z" />
    <glyph glyph-name="Ygrave" unicode="&#x1ef2;" horiz-adv-x="653" 
d="M275 60v220l-124 192q-30 46 -49 75t-36 49t-34.5 35.5t-44.5 35.5h268l-73 -63l179 -272l141 230q25 42 36 68.5t11 47.5q0 15 -10.5 29.5t-33.5 32.5q30 5 66 14.5t71.5 21.5t67 25.5t52.5 25.5l-40.5 -40.5t-32 -33.5t-27 -31t-26 -34t-29.5 -42.5t-37 -55.5
l-192 -310v-220l73 -60h-249zM235 811h106l76 -102h-55z" />
    <glyph glyph-name="ygrave" unicode="&#x1ef3;" horiz-adv-x="653" 
d="M275 60v220l-124 192q-30 46 -49 75t-36 49t-34.5 35.5t-44.5 35.5h268l-73 -63l179 -272l141 230q25 42 36 68.5t11 47.5q0 15 -10.5 29.5t-33.5 32.5q30 5 66 14.5t71.5 21.5t67 25.5t52.5 25.5l-40.5 -40.5t-32 -33.5t-27 -31t-26 -34t-29.5 -42.5t-37 -55.5
l-192 -310v-220l73 -60h-249zM235 811h106l76 -102h-55z" />
    <glyph glyph-name="endash" unicode="&#x2013;" horiz-adv-x="522" 
d="M20 364h459l23 -61h-459z" />
    <glyph glyph-name="emdash" unicode="&#x2014;" horiz-adv-x="1000" 
d="M20 364h937l23 -61h-937z" />
    <glyph glyph-name="quoteleft" unicode="&#x2018;" horiz-adv-x="228" 
d="M170 484q-28 -10 -50.5 -21t-51.5 -30q-8 20 -11.5 36t-3.5 35q0 64 39.5 109.5t114.5 70.5l4 -8q-15 -12 -21.5 -18.5t-11.5 -12.5q-11 -14 -18.5 -36.5t-7.5 -44.5q0 -43 28 -77z" />
    <glyph glyph-name="quoteright" unicode="&#x2019;" horiz-adv-x="228" 
d="M17 440q14 13 21 19t12 12q11 14 18.5 37t7.5 44q0 46 -28 77q19 7 33 12.5t26.5 11.5t24.5 13.5t27 17.5q9 -20 12.5 -36.5t3.5 -35.5q0 -63 -39.5 -109.5t-114.5 -69.5z" />
    <glyph glyph-name="quotesinglbase" unicode="&#x201a;" horiz-adv-x="228" 
d="M17 -128q14 12 21 18.5t12 12.5q11 14 18.5 37t7.5 44q0 46 -28 77l10 4q28 10 50.5 21t50.5 29q9 -20 12.5 -36t3.5 -35q0 -63 -39.5 -109.5t-114.5 -69.5z" />
    <glyph glyph-name="quotedblleft" unicode="&#x201c;" horiz-adv-x="401" 
d="M170 484q-28 -10 -50.5 -21t-51.5 -30q-8 20 -11.5 36t-3.5 35q0 64 39.5 109.5t114.5 70.5l4 -8q-15 -12 -21.5 -18.5t-11.5 -12.5q-11 -14 -18.5 -36.5t-7.5 -44.5q0 -43 28 -77zM343 484q-29 -11 -50.5 -22t-51.5 -29q-9 20 -12.5 36t-3.5 35q0 64 39.5 109.5
t114.5 70.5l4 -8q-14 -12 -21 -18.5t-12 -12.5q-11 -14 -18.5 -36.5t-7.5 -44.5q0 -46 28 -77z" />
    <glyph glyph-name="quotedblright" unicode="&#x201d;" horiz-adv-x="401" 
d="M188 440q14 12 21 18.5t12 12.5q11 14 18.5 37t7.5 44q0 46 -28 77q18 7 32.5 13t27 12t25 13.5t26.5 16.5q9 -20 12.5 -35.5t3.5 -35.5q0 -64 -39.5 -110.5t-114.5 -69.5zM19 440q14 13 21 19t12 12q11 14 18.5 37t7.5 44q0 46 -28 77q19 7 33 12.5t26.5 11.5t24.5 13.5
t27 17.5q9 -20 12.5 -36.5t3.5 -35.5q0 -63 -39.5 -109.5t-114.5 -69.5z" />
    <glyph glyph-name="quotedblbase" unicode="&#x201e;" horiz-adv-x="401" 
d="M188 -128q14 12 21 18.5t12 12.5q11 14 18.5 37t7.5 44q0 46 -28 77l10 4q26 8 51 20.5t50 29.5q9 -20 12.5 -35.5t3.5 -35.5q0 -63 -39.5 -109t-114.5 -70zM19 -128q15 13 21.5 19.5l11.5 11.5q11 14 18.5 37t7.5 44q0 46 -28 77l10 4q27 9 51 21t50 29q9 -20 12.5 -36
t3.5 -35q0 -63 -39.5 -109t-114.5 -70z" />
    <glyph glyph-name="dagger" unicode="&#x2020;" horiz-adv-x="583" 
d="M243 -7v464h-150l-60 -73v190l60 -73h150v172l-73 60h243l-73 -60v-172h150l60 73v-190l-60 73h-150v-464l73 -60h-243z" />
    <glyph glyph-name="daggerdbl" unicode="&#x2021;" horiz-adv-x="583" 
d="M243 -7v297h-150l-60 -73v177l60 -60h150v156h-150l-60 -60v177l60 -73h150v139l-77 60h250l-76 -60v-139h150l60 73v-177l-60 60h-150v-156h150l60 60v-177l-60 73h-150v-297l73 -60h-243z" />
    <glyph glyph-name="bullet" unicode="&#x2022;" horiz-adv-x="667" 
d="M336 477q28 0 53 -11t43.5 -30t29.5 -44.5t11 -53.5q0 -29 -11 -54t-29.5 -43.5t-44 -29.5t-53.5 -11q-29 0 -54.5 11t-44 29.5t-29.5 43.5t-11 54t11 54.5t30 44t44.5 29.5t54.5 11z" />
    <glyph glyph-name="ellipsis" unicode="&#x2026;" horiz-adv-x="684" 
d="M116 128q27 0 46.5 -20t19.5 -48t-19.5 -47.5t-48.5 -19.5q-28 0 -47.5 19.5t-19.5 47.5q0 29 20 48.5t49 19.5zM344 128q27 0 46.5 -20t19.5 -48t-19.5 -47.5t-48.5 -19.5q-28 0 -47.5 19.5t-19.5 47.5q0 29 20 48.5t49 19.5zM572 128q27 0 46.5 -20t19.5 -48
t-19.5 -47.5t-48.5 -19.5q-28 0 -47.5 19.5t-19.5 47.5q0 29 20 48.5t49 19.5z" />
    <glyph glyph-name="perthousand" unicode="&#x2030;" horiz-adv-x="1153" 
d="M183 671q38 0 69 -13t53 -37t34 -57.5t12 -74.5q0 -75 -43.5 -120t-116.5 -45q-38 0 -69 12.5t-53 35.5t-34 55.5t-12 72.5q0 38 11.5 69.5t32.5 54t50.5 35t65.5 12.5zM184 634q-45 0 -65.5 -31.5t-20.5 -103.5q0 -31 5.5 -58.5t15.5 -42.5q10 -17 30 -27t43 -10
q84 0 84 136q0 75 -20.5 106t-71.5 31zM568 661h50l-405 -661h-50zM590 337q38 0 69 -13t53 -37t34 -57.5t12 -74.5q0 -75 -43.5 -120t-116.5 -45q-38 0 -69 12.5t-53 35.5t-34 55.5t-12 72.5q0 38 11.5 69.5t32.5 54t50.5 35t65.5 12.5zM591 300q-45 0 -65.5 -31.5
t-20.5 -103.5q0 -31 5.5 -58.5t15.5 -42.5q10 -17 30 -27t43 -10q84 0 84 136q0 75 -20.5 106t-71.5 31zM963 337q38 0 69 -13t53 -37t34 -57.5t12 -74.5q0 -75 -43.5 -120t-116.5 -45q-38 0 -69 12.5t-53 35.5t-34 55.5t-12 72.5q0 38 11.5 69.5t32.5 54t50.5 35t65.5 12.5
zM964 300q-45 0 -65.5 -31.5t-20.5 -103.5q0 -31 5.5 -58.5t15.5 -42.5q10 -17 30 -27t43 -10q84 0 84 136q0 75 -20.5 106t-71.5 31z" />
    <glyph glyph-name="guilsinglleft" unicode="&#x2039;" horiz-adv-x="177" 
d="M21 333l87 144h44l-56 -144l56 -143h-49z" />
    <glyph glyph-name="guilsinglright" unicode="&#x203a;" horiz-adv-x="177" 
d="M79 339l-56 138h49l84 -147l-84 -141h-49z" />
    <glyph glyph-name="fraction" unicode="&#x2044;" horiz-adv-x="455" 
d="M405 661h50l-405 -661h-50z" />
    <glyph glyph-name="franc" unicode="&#x20a3;" horiz-adv-x="829" 
d="M93 60v277q-33 2 -59.5 -7.5t-49.5 -29.5q21 80 109 80v227l-73 60h548q-19 -23 -32 -40.5t-23.5 -35t-19 -37t-18.5 -46.5q-2 3 -3.5 7.5t-4.5 9.5q-14 31 -27.5 50.5t-32.5 30t-45.5 14.5t-66.5 4q-26 0 -48 -0.5t-51 -2.5v-241h141l67 80v-203l-67 80h-141v-277
l73 -60h-249zM504 45v115l-24 -3t-18 -5q-1 -1 -5.5 -2.5l-10.5 -3.5q9 17 14 29t8 26h4.5t6.5 -1h10h7t8 1v126l-51 27l10 6l6 4q15 10 35.5 18.5t43 14.5t46.5 9.5t46 3.5q33 0 61.5 -8.5t49 -23t32.5 -34.5t12 -42q0 -76 -102 -107q27 -64 63 -113.5t75 -77.5
q-36 -11 -64.5 -25t-55.5 -34q-6 36 -12 64.5t-13.5 55.5t-17.5 54.5t-24 61.5q-11 -2 -18 -3.5t-13.5 -3t-14 -2.5t-19.5 -2v-125l57 -45h-188zM579 206q135 18 135 95q0 30 -23.5 50.5t-58.5 20.5q-29 0 -53 -18v-148z" />
    <glyph glyph-name="Euro" unicode="&#x20ac;" horiz-adv-x="549" 
d="M449 377h-281v-34v-33h262l-15 -48h-243q12 -114 58.5 -172.5t121.5 -58.5q60 0 97.5 40.5t45.5 125.5q3 20 17 20q18 0 18 -31q0 -16 -5 -39.5t-12 -43.5q-20 -57 -66 -88t-112 -31q-58 0 -108 21.5t-83 63.5q-31 36 -50 86t-26 107h-80l13 48h64v12q0 28 3 55h-81
l15 48h73q12 56 35.5 102t56.5 78.5t75 50.5t90 18q16 0 28.5 -1t25.5 -4t28.5 -8.5t36.5 -14.5q20 -8 35 -12.5t37 -2.5l-43 -147q-8 27 -22 53.5t-33.5 47.5t-44.5 33.5t-55 12.5q-32 0 -63 -18.5t-49 -50.5q-32 -54 -41 -137h292z" />
    <glyph glyph-name="afii61289" unicode="&#x2113;" horiz-adv-x="433" 
d="M87 197l-54 -38l-13 29l67 52v126q0 58 2.5 99.5t8 71.5t15 52t24.5 42q25 32 50 45.5t54 13.5q25 0 43 -10.5t30 -29.5t18 -44t6 -54q0 -45 -11 -85t-30.5 -75.5t-47 -68t-59.5 -62.5v-65q0 -41 5 -69t15.5 -44.5t26 -23.5t36.5 -7q34 0 59.5 21t45.5 51l22 -20
q-29 -57 -71.5 -87t-99.5 -30q-33 0 -59 8t-44.5 28t-28.5 54t-10 85v35zM190 312q32 42 54 92.5t28 114.5q1 13 1.5 26t-0.5 25q-1 38 -10.5 61.5t-29.5 23.5q-13 0 -21 -11.5t-13 -37.5t-7 -68.5t-2 -103.5v-122z" />
    <glyph glyph-name="trademark" unicode="&#x2122;" horiz-adv-x="895" 
d="M169 307v326q-14 2 -20.5 2h-11.5q-32 0 -49 -13.5t-28 -47.5l-6 -15q-2 5 -2 6.5t-1 4.5q-6 16 -19.5 43.5t-26.5 46.5q-4 4 -5 7h410q-1 -3 -8 -12q-29 -45 -46 -96l-7.5 21t-5.5 14q-20 41 -70 41h-11t-21 -2v-326l53 -40h-178zM471 307v320l-53 40h193l-52 -40
l90 -251l97 251l-52 40h188l-53 -40v-320l53 -40h-178l53 40v261l-116 -301h-27l-110 304v-264l53 -40h-139z" />
    <glyph glyph-name="uni2126" unicode="&#x2126;" horiz-adv-x="759" 
d="M15 137h21q7 -22 16.5 -36t24 -22.5t36 -11.5t52.5 -3l110 -5v6q-50 17 -80 33.5t-55 39.5q-51 45 -78.5 104.5t-27.5 123.5q0 67 33 132.5t90 110.5q43 34 100 51.5t124 17.5q170 0 265 -107q39 -45 59.5 -96.5t20.5 -105.5q0 -75 -35.5 -141t-99.5 -111
q-20 -14 -43 -25.5t-63 -26.5v-6l119 5q28 0 47.5 3.5t33 12t22.5 22.5t17 35h20l-38 -137h-286v61q22 12 38 22t28.5 20.5t23 21.5t20.5 25q31 42 48 97.5t17 115.5q0 72 -23 135t-65 101q-23 21 -56 33.5t-68 12.5q-117 0 -174 -102q-21 -38 -32.5 -84t-11.5 -94
q0 -67 21.5 -128t59.5 -106q18 -21 37.5 -35.5t56.5 -34.5v-61h-287z" />
    <glyph glyph-name="estimated" unicode="&#x212e;" horiz-adv-x="719" 
d="M181 107q73 -73 178 -73q77 0 133.5 35t103.5 112l42 -25q-28 -44 -57 -75.5t-62 -51.5t-72.5 -29.5t-87.5 -9.5q-72 0 -130.5 26.5t-100 72.5t-63.5 108t-22 133t22 133t63.5 107.5t100 72t130.5 26.5q71 0 129 -25t99.5 -70t65 -107t24.5 -137h-496v-223zM538 374v178
q-77 74 -180 74t-177 -74v-178h357z" />
    <glyph glyph-name="onethird" unicode="&#x2153;" horiz-adv-x="847" 
d="M137 312v275q-27 -11 -44 -11t-29.5 9t-12.5 22q0 10 6.5 16.5t15.5 6.5q19 0 19 -19v-4q1 -1 5 -1q17 0 34.5 16t27.5 39h49v-349l57 -45h-184zM221 0h-50l405 661h50zM600 246l27 -1q30 0 49.5 17t19.5 43t-21 44.5t-51 18.5q-29 0 -46.5 -14t-17.5 -37q0 -12 6.5 -20
t16.5 -8q5 0 9 1.5t21 12.5l-7 -18q-10 -31 -48 -31q-26 0 -44.5 18.5t-18.5 43.5q0 19 10.5 35.5t28.5 28.5t43 18.5t54 6.5q61 0 98.5 -26t37.5 -71q0 -57 -67 -84q45 -18 66 -44.5t21 -68.5q0 -57 -41.5 -88.5t-113.5 -31.5q-69 0 -105 27.5t-48 90.5q16 5 26.5 9
t19.5 8.5t18.5 11t22.5 16.5q-5 -20 -6.5 -30.5t-1.5 -22.5q0 -73 73 -73q36 0 56.5 22t20.5 60q0 42 -22.5 68.5t-55.5 26.5q-6 0 -14.5 -1t-18.5 -3q-3 -1 -6 -1.5l-9 -1.5z" />
    <glyph glyph-name="twothirds" unicode="&#x2154;" horiz-adv-x="847" 
d="M261 0h-50l405 661h50zM620 246l27 -1q30 0 49.5 17t19.5 43t-21 44.5t-51 18.5q-29 0 -46.5 -14t-17.5 -37q0 -12 6.5 -20t16.5 -8q5 0 9 1.5t21 12.5l-7 -18q-10 -31 -48 -31q-26 0 -44.5 18.5t-18.5 43.5q0 19 10.5 35.5t28.5 28.5t43 18.5t54 6.5q61 0 98.5 -26
t37.5 -71q0 -57 -67 -84q45 -18 66 -44.5t21 -68.5q0 -57 -41.5 -88.5t-113.5 -31.5q-69 0 -105 27.5t-48 90.5q16 5 26.5 9t19.5 8.5t18.5 11t22.5 16.5q-5 -20 -6.5 -30.5t-1.5 -22.5q0 -73 73 -73q36 0 56.5 22t20.5 60q0 42 -22.5 68.5t-55.5 26.5q-6 0 -14.5 -1
t-18.5 -3q-3 -1 -6 -1.5l-9 -1.5zM31 266q12 57 42 96.5t87 71.5q14 8 22.5 13t14.5 9t10 7.5t9 8.5q40 34 40 87q0 35 -20.5 55t-56.5 20q-30 0 -50 -16.5t-20 -42.5q0 -20 12 -33t30 -13q6 0 10.5 0.5t9 3.5t11 9t17.5 18q-3 -23 -4 -28t-4 -10q-18 -43 -65 -43
q-36 0 -61 24t-25 58q0 24 10.5 44t28.5 35t43.5 23t55.5 8q32 0 59.5 -9.5t48 -26t32 -39t11.5 -48.5q0 -57 -60 -99q-8 -6 -13.5 -9.5t-14 -8.5t-23 -12.5t-40.5 -21.5q-20 -10 -41 -29.5t-35 -39.5h115q25 0 41.5 0.5t27 2.5t16.5 5.5t11 8.5q3 3 5 5.5t4 9t5 18.5t9 35
v-147h-305z" />
    <glyph glyph-name="oneeighth" unicode="&#x215b;" horiz-adv-x="847" 
d="M137 312v275q-27 -11 -44 -11t-29.5 9t-12.5 22q0 10 6.5 16.5t15.5 6.5q19 0 19 -19v-4q1 -1 5 -1q17 0 34.5 16t27.5 39h49v-349l57 -45h-184zM221 0h-50l405 661h50zM469 114q0 36 24.5 63t56.5 42q-23 15 -37 38.5t-14 49.5q0 48 44 78q16 9 38 14t46 5q66 0 102 -28
t36 -66q0 -26 -15.5 -45.5t-37.5 -32.5q48 -20 68.5 -51.5t20.5 -69.5q0 -60 -53 -95q-40 -25 -105 -25q-39 0 -71 9t-55 25.5t-35.5 39t-12.5 49.5zM734 105q0 16 -12.5 30.5t-32 26t-43 20t-44.5 13.5q-32 -17 -48 -35.5t-16 -44.5q0 -40 30 -61q12 -11 29.5 -15t47.5 -4
q42 0 65.5 18t23.5 52zM557 319q0 -11 10 -21t24.5 -18t31.5 -14.5t32 -9.5q23 8 39.5 22t16.5 28q0 28 -22 44q-11 8 -25.5 11.5t-37.5 3.5q-26 0 -47.5 -10.5t-21.5 -35.5z" />
    <glyph glyph-name="threeeighths" unicode="&#x215c;" horiz-adv-x="847" 
d="M231 0h-50l405 661h50zM148 512l27 -1q30 0 49.5 17t19.5 43t-21 44.5t-51 18.5q-29 0 -46.5 -14t-17.5 -37q0 -12 6.5 -20t16.5 -8q5 0 9 1.5t21 12.5l-7 -18q-10 -31 -48 -31q-26 0 -44.5 18.5t-18.5 43.5q0 19 10.5 35.5t28.5 28.5t43 18.5t54 6.5q61 0 98.5 -26
t37.5 -71q0 -57 -67 -84q45 -18 66 -44.5t21 -68.5q0 -57 -41.5 -88.5t-113.5 -31.5q-69 0 -105 27.5t-48 90.5q16 5 26.5 9t19.5 8.5t18.5 11t22.5 16.5q-5 -20 -6.5 -30.5t-1.5 -22.5q0 -73 73 -73q36 0 56.5 22t20.5 60q0 42 -22.5 68.5t-55.5 26.5q-6 0 -14.5 -1
t-18.5 -3q-3 -1 -6 -1.5l-9 -1.5zM469 114q0 36 24.5 63t56.5 42q-23 15 -37 38.5t-14 49.5q0 23 11.5 44t32.5 34q16 10 38 14.5t46 4.5q66 0 102 -28t36 -66q0 -26 -15.5 -45.5t-37.5 -32.5q48 -20 68.5 -51.5t20.5 -69.5q0 -60 -53 -95q-40 -25 -105 -25q-39 0 -71 9
t-55 25.5t-35.5 39t-12.5 49.5zM734 105q0 16 -12.5 30.5t-32 26t-43 20t-44.5 13.5q-32 -17 -48 -35.5t-16 -44.5q0 -40 30 -61q12 -11 29.5 -15t47.5 -4q42 0 65.5 18t23.5 52zM557 319q0 -11 10 -21t24.5 -18t31.5 -14.5t32 -9.5q23 8 39.5 22t16.5 28q0 28 -22 44
q-11 8 -25.5 11.5t-37.5 3.5q-26 0 -47.5 -10.5t-21.5 -35.5z" />
    <glyph glyph-name="fiveeighths" unicode="&#x215d;" horiz-adv-x="847" 
d="M241 0h-50l405 661h50zM479 114q0 36 24.5 63t56.5 42q-23 15 -37 38.5t-14 49.5q0 23 11.5 44t32.5 34q16 10 38 14.5t46 4.5q66 0 102 -28t36 -66q0 -26 -15.5 -45.5t-37.5 -32.5q48 -20 68.5 -51.5t20.5 -69.5q0 -60 -53 -95q-40 -25 -105 -25q-39 0 -71 9t-55 25.5
t-35.5 39t-12.5 49.5zM744 105q0 16 -12.5 30.5t-32 26t-43 20t-44.5 13.5q-32 -17 -48 -35.5t-16 -44.5q0 -40 30 -61q12 -11 29.5 -15t47.5 -4q42 0 65.5 18t23.5 52zM567 319q0 -11 10 -21t24.5 -18t31.5 -14.5t32 -9.5q23 8 39.5 22t16.5 28q0 28 -22 44
q-11 8 -25.5 11.5t-37.5 3.5q-26 0 -47.5 -10.5t-21.5 -35.5zM49 466v195h170q32 0 43 0.5t14 4.5v2q-1 -1 -5 -1q-8 0 -14 6t-6 15q0 8 6 14t14 6q14 0 25.5 -13.5t11.5 -31.5q0 -20 -11.5 -34.5t-30.5 -21.5q-14 -4 -28 -6t-47 -2h-104v-83q22 17 43 22.5t47 5.5
q61 0 105 -35q49 -37 49 -110q0 -66 -49 -107q-20 -16 -51.5 -25.5t-67.5 -9.5q-45 0 -74.5 11t-52.5 35q-20 23 -28 62q8 2 20 8t25 13.5t24.5 15t19.5 12.5q-5 -21 -6 -29.5t-1 -16.5q0 -40 21 -56v1q25 -19 56 -19q42 0 64 29t22 83q0 48 -22.5 73t-64.5 25
q-56 0 -91 -53z" />
    <glyph glyph-name="seveneighths" unicode="&#x215e;" horiz-adv-x="847" 
d="M439 114q0 36 24.5 63t56.5 42q-23 15 -37 38.5t-14 49.5q0 23 11.5 44t32.5 34q16 10 38 14.5t46 4.5q66 0 102 -28t36 -66q0 -26 -15.5 -45.5t-37.5 -32.5q48 -20 68.5 -51.5t20.5 -69.5q0 -60 -53 -95q-40 -25 -105 -25q-39 0 -71 9t-55 25.5t-35.5 39t-12.5 49.5z
M143 266q2 33 8 61.5t17.5 55.5t28.5 54t40 57q32 40 48 63.5t23 41.5h-198v-4q0 -37 -8.5 -53.5t-28.5 -16.5q-11 0 -19.5 7t-8.5 16t5.5 15t13.5 6q4 0 6 -1q1 -1 3.5 -2.5t7.5 -5.5q2 10 2.5 15.5t0.5 19.5v66h273q-3 -21 -8 -40t-13.5 -41t-21.5 -47t-32 -58
q-23 -42 -33.5 -85t-10.5 -94v-30h-95zM201 0h-50l405 661h50zM704 105q0 16 -12.5 30.5t-32 26t-43 20t-44.5 13.5q-32 -17 -48 -35.5t-16 -44.5q0 -40 30 -61q12 -11 29.5 -15t47.5 -4q42 0 65.5 18t23.5 52zM527 319q0 -11 10 -21t24.5 -18t31.5 -14.5t32 -9.5
q23 8 39.5 22t16.5 28q0 28 -22 44q-11 8 -25.5 11.5t-37.5 3.5q-26 0 -47.5 -10.5t-21.5 -35.5z" />
    <glyph glyph-name="partialdiff" unicode="&#x2202;" horiz-adv-x="511" 
d="M247 424q32 0 64 -14.5t52 -45.5q4 26 7 56.5t3 58.5q0 30 -5.5 67.5t-20 71t-39 56.5t-62.5 23q-39 0 -73.5 -19.5t-59.5 -40.5q-6 0 -12.5 6t-12.5 15t-10 20t-4 21q0 11 14 20.5t34.5 16t44 10.5t43.5 4q68 0 116 -37.5t78.5 -93t44.5 -118t14 -112.5q0 -45 -6 -92
t-18.5 -91.5t-32.5 -84.5t-47.5 -69.5t-63 -47t-80.5 -17.5q-79 0 -127 52.5t-48 149.5q0 53 16.5 96.5t44.5 74t66 47.5t80 17zM275 380q-33 0 -57 -21.5t-40 -56t-24 -78t-8 -86.5q0 -23 4.5 -44.5t14 -37.5t23 -25.5t31.5 -9.5q30 0 52.5 28t39 71t27.5 95.5t17 101.5
q-9 21 -30 42t-50 21z" />
    <glyph glyph-name="uni2206" unicode="&#x2206;" horiz-adv-x="667" 
d="M303 681h59l307 -681h-672zM516 67l-217 500l-191 -426q-6 -15 -9.5 -26t-3.5 -19q0 -16 10.5 -22.5t37.5 -6.5h373z" />
    <glyph glyph-name="product" unicode="&#x220f;" horiz-adv-x="707" 
d="M27 -100q28 2 44.5 5.5t25 12.5t11 25t2.5 43v653q0 25 -2.5 40t-11 23.5t-25.5 12t-47 5.5v30h659v-30q-30 -2 -46.5 -5.5t-25 -12t-10.5 -23.5t-2 -40v-653q0 -26 2 -42t10.5 -25t25 -13t45.5 -6v-30h-265v30q22 2 36.5 4.5t22 9.5t10.5 19t3 33v713q0 22 -6 27.5
t-27 5.5h-204q-21 0 -26.5 -5.5t-5.5 -26.5v-694q0 -27 1.5 -43t8 -25t20 -12.5t37.5 -5.5v-30h-260v30z" />
    <glyph glyph-name="summation" unicode="&#x2211;" horiz-adv-x="603" 
d="M19 -100l205 381l-200 439v30h507q0 -8 1 -25t3 -39.5t4 -48.5t4 -51l-31 -7q-7 31 -15.5 55t-17.5 42q-6 10 -12.5 17.5t-17 11.5t-26.5 6t-42 2h-224l161 -362l-208 -390h300q31 0 49.5 2.5t32 13.5t24.5 33.5t27 63.5l32 -8l-44 -196h-512v30z" />
    <glyph glyph-name="minus" unicode="&#x2212;" horiz-adv-x="467" 
d="M22 366h423v-65h-423v65z" />
    <glyph glyph-name="uni2215" unicode="&#x2215;" horiz-adv-x="100" 
d="M228 661h50l-405 -661h-50z" />
    <glyph glyph-name="uni2219" unicode="&#x2219;" horiz-adv-x="228" 
d="M116 354q27 0 46.5 -20t19.5 -48t-19.5 -47.5t-48.5 -19.5q-28 0 -47.5 19.5t-19.5 47.5q0 29 20 48.5t49 19.5z" />
    <glyph glyph-name="radical" unicode="&#x221a;" horiz-adv-x="523" 
d="M330 74l110 726l44 -10l-143 -911l-26 -12l-201 537l-81 -36l-12 37l166 73l141 -404h2z" />
    <glyph glyph-name="infinity" unicode="&#x221e;" horiz-adv-x="733" 
d="M544 115q-28 0 -52.5 9.5t-46.5 24.5t-41.5 33.5t-37.5 36.5q-19 -19 -39 -37.5t-42.5 -33.5t-48 -24t-55.5 -9q-32 0 -58.5 11t-46 31t-30 47t-10.5 60q0 30 11.5 57t31.5 47.5t48.5 32.5t61.5 12q28 0 52.5 -9.5t46.5 -24.5t41.5 -33.5t37.5 -36.5q19 19 39 37.5
t42.5 33.5t48 24t55.5 9q32 0 58.5 -11t46 -31t30 -47t10.5 -60q0 -30 -11.5 -57t-32 -47.5t-48.5 -32.5t-61 -12zM544 177q18 0 34 7t28 19t18.5 27.5t6.5 33.5q0 38 -23.5 62.5t-60.5 24.5q-21 0 -40 -8t-36.5 -20.5t-33 -28l-29.5 -29.5q13 -14 28.5 -29t32 -28.5
t35.5 -22t40 -8.5zM186 177q21 0 40 8t36 21t33 28.5t30 29.5q-14 13 -29 28.5t-31.5 28.5t-35 21.5t-40.5 8.5q-38 0 -62.5 -26t-24.5 -61q0 -38 24 -62.5t60 -24.5z" />
    <glyph glyph-name="integral" unicode="&#x222b;" horiz-adv-x="378" 
d="M155 52q-1 14 -3 38.5t-4 56t-4 67t-4 71.5q-2 58 -5 101t-2 75q2 106 18.5 171.5t41 101t53 47.5t53.5 12q11 0 23 -3.5t21.5 -9.5t15.5 -15.5t6 -21.5q0 -25 -15 -37.5t-35 -12.5q-13 0 -20 8.5t-12 18t-10 18t-13 8.5q-12 0 -23 -19.5t-11 -76.5q0 -31 2.5 -75
t5.5 -95t6.5 -107t5.5 -111q2 -36 0 -71q-3 -98 -17.5 -162t-37 -101.5t-51 -52.5t-59.5 -15q-28 0 -47.5 14t-19.5 40q0 23 19.5 37.5t39.5 14.5q12 0 18.5 -9t11.5 -19.5t9 -19.5t12 -9q14 0 23.5 23.5t9.5 68.5q0 11 -0.5 25.5t-1.5 25.5z" />
    <glyph glyph-name="approxequal" unicode="&#x2248;" horiz-adv-x="467" 
d="M23 378q34 54 68 79t72 25q16 0 34.5 -4.5t53.5 -16.5q30 -11 49 -15t34 -4q48 0 90 50l20 -11q-28 -48 -65 -75.5t-75 -27.5q-7 0 -13.5 1t-16 3.5t-22.5 6.5t-34 11q-35 12 -53.5 16t-36.5 4q-11 0 -20 -2t-17.5 -6.5t-18 -13t-21.5 -21.5q-1 -3 -8 -10zM23 218
q64 103 140 103q16 0 34.5 -4.5t53.5 -16.5q30 -11 49 -15t34 -4q48 0 90 50l20 -11q-28 -48 -65 -75.5t-75 -27.5q-7 0 -13.5 1t-16 3.5t-22.5 6.5t-34 11q-36 12 -54 16t-36 4q-23 0 -38 -8.5t-39 -34.5q-1 -2 -3 -4t-5 -6z" />
    <glyph glyph-name="notequal" unicode="&#x2260;" horiz-adv-x="467" 
d="M78 130l58 99h-114v65h151l46 79h-197v65h234l76 132l57 -33l-58 -99h114v-65h-151l-46 -79h197v-65h-234l-76 -132z" />
    <glyph glyph-name="lessequal" unicode="&#x2264;" horiz-adv-x="467" 
d="M428 107l-389 185v61l389 185v-68l-305 -147v-2l305 -146v-68zM39 59h389v-59h-389v59z" />
    <glyph glyph-name="greaterequal" unicode="&#x2265;" horiz-adv-x="467" 
d="M39 175l305 146v2l-305 147v68l389 -185v-61l-389 -185v68zM39 59h389v-59h-389v59z" />
    <glyph glyph-name="lozenge" unicode="&#x25ca;" horiz-adv-x="504" 
d="M217 -32l-166 361l166 364h70l166 -364l-166 -361h-70zM376 327l-124 294h-2l-122 -290l124 -290h2z" />
    <glyph glyph-name="glyph238" 
d="M200 -205q15 12 24 27.5t9 35.5q0 34 -33 60l69 41q14 -14 22.5 -30.5t8.5 -36.5q0 -32 -17.5 -59t-59.5 -47z" />
    <glyph glyph-name="glyph398" 
d="M95 811h106l76 -102h-55z" />
    <glyph glyph-name="glyph399" 
d="M298 811h106l-127 -102h-55z" />
    <glyph glyph-name="glyph400" 
d="M215 811h68l89 -102h-84l-53 60l-52 -60h-55z" />
    <glyph glyph-name="glyph401" 
d="M128 811h84l53 -60l52 60h55l-88 -102h-67z" />
    <glyph glyph-name="glyph402" 
d="M204 520q29 26 29 63q0 34 -33 60l69 41q14 -14 22.5 -30.5t8.5 -36.5q0 -32 -15.5 -59t-57.5 -47z" />
    <glyph glyph-name="glyph403" 
d="M99 711q0 22 7 41t19.5 33.5t29 23t36.5 8.5q12 0 21 -1.5t19.5 -5.5t24.5 -11.5t35 -19.5q25 -15 40 -15t23 10t10 34h38v-14q0 -37 -23.5 -63.5t-57.5 -26.5q-19 0 -41.5 7t-54.5 23q-22 11 -31.5 14.5t-18.5 3.5q-34 0 -39 -41h-37z" />
    <glyph glyph-name="glyph404" 
d="M340 811q20 0 34.5 -15t14.5 -35q0 -21 -15 -35.5t-35 -14.5q-21 0 -35.5 14.5t-14.5 35.5t14.5 35.5t36.5 14.5zM159 811q20 0 34.5 -15t14.5 -35q0 -21 -14.5 -35.5t-35.5 -14.5t-35.5 14.5t-14.5 35.5t15 35.5t36 14.5z" />
    <glyph glyph-name="glyph405" 
d="M109 774h281v-51h-281v51z" />
    <glyph glyph-name="glyph406" 
d="M102 821h37q2 -14 5 -21.5t8 -12.5q11 -14 39.5 -22.5t60.5 -8.5t59.5 8t38.5 22q10 12 12 35h35v-2q0 -55 -40.5 -87.5t-107.5 -32.5q-31 0 -58 9t-46.5 24t-31 36t-11.5 45v8z" />
    <glyph glyph-name="glyph407" 
d="M252 835q30 0 51.5 -22t21.5 -53t-21.5 -52.5t-53.5 -21.5q-30 0 -52 21.5t-22 52.5q0 32 22 53.5t54 21.5zM251 794q-14 0 -24 -10t-10 -24t10 -24t24 -10t23.5 10t9.5 24t-9.5 24t-23.5 10z" />
    <glyph glyph-name="glyph408" 
d="M236 811h103l-127 -102h-52zM381 811h103l-127 -102h-52z" />
    <glyph glyph-name="glyph409" 
d="M250 811q20 0 34.5 -15t14.5 -35q0 -21 -14.5 -35.5t-35.5 -14.5t-35.5 14.5t-14.5 35.5t15 35.5t36 14.5z" />
    <glyph glyph-name="glyph410" 
d="M231 676q-14 14 -22.5 30.5t-8.5 36.5q0 32 17.5 59t59.5 47l23 -9q-15 -12 -24 -27.5t-9 -35.5q0 -35 33 -60z" />
    </font>
</defs>
</svg>
